<?xml version="1.0" standalone="no"?>
<!DOCTYPE svg PUBLIC "-//W3C//DTD SVG 20010904//EN"
 "http://www.w3.org/TR/2001/REC-SVG-20010904/DTD/svg10.dtd">
<svg version="1.0" xmlns="http://www.w3.org/2000/svg"
 width="904.000000pt" height="904.000000pt" viewBox="0 0 904.000000 904.000000"
 preserveAspectRatio="xMidYMid meet">
<metadata>
Created by potrace 1.14, written by Peter Selinger 2001-2017
</metadata>
<g transform="translate(0.000000,904.000000) scale(0.100000,-0.100000)"
fill="#000000" stroke="none">
<path d="M2026 7324 c-295 -53 -567 -222 -748 -464 -109 -146 -163 -267 -213
-475 -29 -121 -253 -999 -906 -3556 -87 -343 -139 -564 -139 -595 1 -66 28
-121 83 -170 69 -61 157 -80 237 -50 19 7 154 91 300 188 683 451 1202 765
1503 908 208 99 449 167 742 210 121 17 191 20 525 20 384 0 586 10 677 31 26
6 89 24 138 41 l91 30 64 -62 c168 -161 393 -276 618 -315 66 -12 180 -15 508
-15 362 0 445 -3 576 -20 284 -36 534 -97 728 -177 272 -111 896 -484 1619
-966 124 -82 243 -158 265 -168 108 -49 251 3 307 113 44 85 66 -13 -441 1968
-259 1015 -498 1953 -531 2085 -33 132 -71 278 -86 325 -66 220 -223 440 -421
590 -95 72 -286 164 -407 195 -163 42 -302 47 -1213 42 -797 -4 -841 -5 -927
-24 -49 -11 -124 -32 -165 -47 l-75 -26 -65 64 c-167 165 -394 280 -629 321
-122 22 -1896 20 -2015 -1z m925 -837 c19 -12 44 -42 57 -67 21 -43 22 -53 22
-342 l0 -298 298 0 c289 0 299 -1 342 -22 25 -13 55 -38 67 -57 22 -33 23 -43
23 -241 0 -198 -1 -208 -23 -240 -12 -19 -38 -43 -57 -54 -33 -20 -53 -21
-342 -24 l-308 -3 0 -297 c0 -289 -1 -299 -22 -342 -13 -25 -38 -55 -57 -67
-33 -22 -43 -23 -241 -23 -198 0 -208 1 -241 23 -19 12 -44 42 -56 67 -22 43
-23 53 -23 342 l0 297 -307 3 c-290 3 -310 4 -343 24 -19 11 -45 35 -57 54
-22 32 -23 42 -23 240 0 198 1 208 23 241 12 19 42 44 67 57 43 21 53 22 342
22 l298 0 0 298 c0 289 1 299 23 342 12 25 37 55 56 67 33 22 43 23 241 23
198 0 208 -1 241 -23z m3540 -367 c220 -41 378 -262 342 -475 -32 -186 -171
-326 -356 -358 -220 -37 -438 123 -478 352 -43 242 156 481 407 490 17 1 56
-4 85 -9z m-800 -800 c220 -41 378 -262 342 -475 -32 -186 -171 -326 -356
-358 -271 -46 -525 208 -478 479 31 176 154 308 326 350 64 16 99 16 166 4z
m1600 0 c221 -41 379 -263 341 -480 -33 -183 -171 -321 -355 -353 -270 -46
-522 205 -478 477 28 172 147 305 310 348 78 20 110 21 182 8z m-787 -805
c169 -36 299 -174 328 -349 45 -271 -207 -523 -478 -478 -94 15 -166 53 -233
119 -168 169 -169 427 -2 594 62 61 128 97 211 115 74 16 93 16 174 -1z"/>
</g>
</svg>
