<svg width="25" height="25" viewBox="0 0 25 25" fill="none" xmlns="http://www.w3.org/2000/svg">
<path d="M22.4052 2.23328H10.5586C10.1816 2.23328 9.87604 2.53887 9.87604 2.91583V8.43514C9.87604 8.81211 9.57045 9.1177 9.19349 9.1177C8.81652 9.1177 8.51093 8.81211 8.51093 8.43514V2.91583C8.51093 1.78494 9.4277 0.868172 10.5586 0.868172H22.4052C23.5361 0.868172 24.4529 1.78494 24.4529 2.91583V22.7098C24.4529 23.8407 23.5361 24.7575 22.4052 24.7575H10.5586C9.4277 24.7575 8.51093 23.8407 8.51093 22.7098V16.7938C8.51093 16.4168 8.81652 16.1112 9.19349 16.1112C9.57045 16.1112 9.87604 16.4168 9.87604 16.7938V22.7098C9.87604 23.0868 10.1816 23.3924 10.5586 23.3924H22.4052C22.7822 23.3924 23.0878 23.0868 23.0878 22.7098V2.91583C23.0878 2.53887 22.7822 2.23328 22.4052 2.23328Z" fill="white"/>
<path d="M17.9582 12.3302L13.6145 7.98646C13.3479 7.71991 12.9158 7.71991 12.6492 7.98646C12.3827 8.25302 12.3827 8.68518 12.6492 8.95174L15.8277 12.1303H1.67974C1.30278 12.1303 0.997192 12.4359 0.997192 12.8128C0.997192 13.1898 1.30278 13.4954 1.67974 13.4954H15.8277L12.6492 16.6739C12.3827 16.9405 12.3827 17.3727 12.6492 17.6392C12.9158 17.9058 13.3479 17.9058 13.6145 17.6392L17.9582 13.2955C18.2248 13.0289 18.2248 12.5968 17.9582 12.3302Z" fill="white"/>
</svg>
