<svg width="188" height="46" viewBox="0 0 188 46" fill="none" xmlns="http://www.w3.org/2000/svg">
<path d="M8.6964 18.4118C8.06885 18.4118 7.56012 18.9205 7.56012 19.5481C7.56012 20.1756 8.06885 20.6843 8.6964 20.6843H20.6296C21.2572 20.6843 21.7659 20.1756 21.7659 19.5481C21.7659 18.9205 21.2572 18.4118 20.6296 18.4118H8.6964Z" fill="#990018"/>
<path d="M7.56012 24.547C7.56012 23.9195 8.06885 23.4107 8.6964 23.4107H29.1271C29.7547 23.4107 30.2634 23.9195 30.2634 24.547C30.2634 25.1746 29.7547 25.6833 29.1271 25.6833H8.6964C8.06885 25.6833 7.56012 25.1746 7.56012 24.547Z" fill="#990018"/>
<path d="M8.6964 28.4097C8.06885 28.4097 7.56012 28.9184 7.56012 29.546C7.56012 30.1735 8.06885 30.6823 8.6964 30.6823H29.1271C29.7547 30.6823 30.2634 30.1735 30.2634 29.546C30.2634 28.9184 29.7547 28.4097 29.1271 28.4097H8.6964Z" fill="#990018"/>
<path fill-rule="evenodd" clip-rule="evenodd" d="M47.5277 3.61573C47.5277 3.40655 47.3582 3.23697 47.149 3.23697H14.8166C14.6074 3.23697 14.4378 3.40655 14.4378 3.61573V10.1181H35.3131C36.7774 10.1181 37.9644 11.3051 37.9644 12.7694V35.3725C37.9644 36.8367 36.7774 38.0238 35.3131 38.0238H21.3648C21.2644 38.0238 21.168 38.0637 21.097 38.1347L14.8655 44.3662C13.1952 46.0365 10.3394 44.8536 10.3394 42.4915V38.4025C10.3394 38.1934 10.1698 38.0238 9.96063 38.0238H2.98069C1.51641 38.0238 0.329376 36.8367 0.329376 35.3725V12.7694C0.329376 11.3051 1.51641 10.1181 2.98069 10.1181H12.1652V3.61573C12.1652 2.15145 13.3523 0.964417 14.8166 0.964417H47.149C48.6133 0.964417 49.8003 2.15145 49.8003 3.61573V26.2188C49.8003 27.6831 48.6133 28.8701 47.149 28.8701H44.7142C44.505 28.8701 44.3354 29.0397 44.3354 29.2489V33.3378C44.3354 35.6999 41.4795 36.8828 39.8093 35.2126L37.9644 33.3677V30.1538L41.4163 33.6056C41.6549 33.8443 42.0628 33.6753 42.0628 33.3378V29.2489C42.0628 27.7846 43.2499 26.5976 44.7142 26.5976H47.149C47.3582 26.5976 47.5277 26.428 47.5277 26.2188V3.61573ZM2.98069 12.3906C2.77151 12.3906 2.60193 12.5602 2.60193 12.7694V35.3725C2.60193 35.5816 2.77151 35.7512 2.98069 35.7512H9.96063C11.4249 35.7512 12.612 36.9383 12.612 38.4025V42.4915C12.612 42.8289 13.0199 42.9979 13.2585 42.7593L19.4901 36.5278C19.9873 36.0306 20.6617 35.7512 21.3648 35.7512H35.3131C35.5223 35.7512 35.6919 35.5816 35.6919 35.3725V12.7694C35.6919 12.5602 35.5223 12.3906 35.3131 12.3906H2.98069Z" fill="#990018"/>
<path d="M62.876 23.5316H59.2203L63.339 11.0536H67.9695L72.0882 23.5316H68.4326L65.703 14.4899H65.6055L62.876 23.5316ZM62.1936 18.6086H69.0662V21.1432H62.1936V18.6086ZM71.3738 13.7832V11.0536H82.2189V13.7832H78.4658V23.5316H75.127V13.7832H71.3738ZM83.4938 23.5316V11.0536H92.4867V13.7832H86.8814V15.9278H92.0237V18.6574H86.8814V20.802H92.4624V23.5316H83.4938ZM104.963 11.0536V23.5316H102.136L97.6275 16.9758H97.5544V23.5316H94.1668V11.0536H97.0426L101.478 17.585H101.576V11.0536H104.963ZM111.367 23.5316H106.566V11.0536H111.318C112.601 11.0536 113.71 11.3034 114.645 11.803C115.583 12.2986 116.306 13.0134 116.814 13.9477C117.325 14.8778 117.581 15.9928 117.581 17.2926C117.581 18.5924 117.327 19.7094 116.82 20.6436C116.312 21.5738 115.593 22.2886 114.663 22.7882C113.733 23.2838 112.634 23.5316 111.367 23.5316ZM109.953 20.6558H111.245C111.862 20.6558 112.388 20.5563 112.823 20.3572C113.261 20.1582 113.595 19.815 113.822 19.3276C114.054 18.8401 114.169 18.1618 114.169 17.2926C114.169 16.4233 114.051 15.745 113.816 15.2576C113.584 14.7702 113.243 14.427 112.792 14.2279C112.346 14.0289 111.797 13.9294 111.147 13.9294H109.953V20.6558ZM122.536 11.0536V23.5316H119.149V11.0536H122.536ZM124.142 11.0536H128.358L131.258 18.1212H131.404L134.304 11.0536H138.52V23.5316H135.206V16.3177H135.109L132.33 23.4341H130.332L127.554 16.269H127.456V23.5316H124.142V11.0536ZM140.126 23.5316V11.0536H149.119V13.7832H143.513V15.9278H148.656V18.6574H143.513V20.802H149.094V23.5316H140.126ZM161.595 11.0536V23.5316H158.768L154.26 16.9758H154.186V23.5316H150.799V11.0536H153.675L158.11 17.585H158.208V11.0536H161.595ZM162.856 13.7832V11.0536H173.702V13.7832H169.948V23.5316H166.61V13.7832H162.856ZM186.478 17.2926C186.478 18.6817 186.208 19.8536 185.668 20.8081C185.127 21.7586 184.398 22.4795 183.48 22.971C182.562 23.4584 181.539 23.7022 180.41 23.7022C179.272 23.7022 178.245 23.4564 177.327 22.9649C176.413 22.4694 175.686 21.7464 175.146 20.7959C174.609 19.8414 174.341 18.6736 174.341 17.2926C174.341 15.9034 174.609 14.7336 175.146 13.7832C175.686 12.8286 176.413 12.1077 177.327 11.6202C178.245 11.1288 179.272 10.883 180.41 10.883C181.539 10.883 182.562 11.1288 183.48 11.6202C184.398 12.1077 185.127 12.8286 185.668 13.7832C186.208 14.7336 186.478 15.9034 186.478 17.2926ZM182.993 17.2926C182.993 16.5452 182.893 15.9156 182.694 15.4038C182.499 14.888 182.209 14.498 181.823 14.234C181.441 13.9659 180.97 13.8319 180.41 13.8319C179.849 13.8319 179.376 13.9659 178.99 14.234C178.608 14.498 178.318 14.888 178.119 15.4038C177.924 15.9156 177.826 16.5452 177.826 17.2926C177.826 18.04 177.924 18.6716 178.119 19.1874C178.318 19.6992 178.608 20.0892 178.99 20.3572C179.376 20.6213 179.849 20.7533 180.41 20.7533C180.97 20.7533 181.441 20.6213 181.823 20.3572C182.209 20.0892 182.499 19.6992 182.694 19.1874C182.893 18.6716 182.993 18.04 182.993 17.2926Z" fill="white"/>
<path d="M65.6258 32.6876L63.0037 39.7785H61.8957L59.2736 32.6876H60.4554L62.4128 38.3382H62.4866L64.444 32.6876H65.6258ZM67.0639 39.7785V32.6876H68.1534V39.7785H67.0639ZM67.6178 31.5058C67.4055 31.5058 67.2224 31.4335 67.0685 31.2888C66.9177 31.1442 66.8423 30.9703 66.8423 30.7671C66.8423 30.564 66.9177 30.3901 67.0685 30.2455C67.2224 30.1008 67.4055 30.0285 67.6178 30.0285C67.8302 30.0285 68.0118 30.1008 68.1626 30.2455C68.3165 30.3901 68.3934 30.564 68.3934 30.7671C68.3934 30.9703 68.3165 31.1442 68.1626 31.2888C68.0118 31.4335 67.8302 31.5058 67.6178 31.5058ZM72.2355 39.9447C71.7861 39.9447 71.3784 39.8601 71.0121 39.6908C70.6459 39.5184 70.355 39.2707 70.1396 38.9475C69.9242 38.6213 69.8164 38.2274 69.8164 37.7657C69.8164 37.3595 69.8965 37.0302 70.0565 36.7778C70.2165 36.5223 70.4304 36.3223 70.6982 36.1777C70.9659 36.033 71.2614 35.9253 71.5846 35.8545C71.9108 35.7806 72.2386 35.7222 72.5679 35.6791C72.9987 35.6237 73.3481 35.5821 73.6158 35.5544C73.8866 35.5237 74.0836 35.4729 74.2067 35.4021C74.3329 35.3313 74.396 35.2082 74.396 35.0328V34.9958C74.396 34.5403 74.2713 34.1864 74.0221 33.934C73.7758 33.6817 73.4019 33.5555 72.9003 33.5555C72.3801 33.5555 71.9723 33.6694 71.6769 33.8971C71.3814 34.1249 71.1737 34.368 71.0537 34.6265L70.0196 34.2572C70.2042 33.8263 70.4504 33.4909 70.7582 33.2508C71.069 33.0077 71.4076 32.8384 71.7738 32.743C72.1431 32.6445 72.5063 32.5953 72.8633 32.5953C73.0911 32.5953 73.3527 32.623 73.6481 32.6784C73.9467 32.7307 74.2344 32.8399 74.5114 33.0061C74.7915 33.1723 75.0238 33.4232 75.2085 33.7586C75.3931 34.0941 75.4855 34.5434 75.4855 35.1066V39.7785H74.396V38.8183H74.3406C74.2667 38.9722 74.1436 39.1368 73.9713 39.3122C73.7989 39.4877 73.5696 39.6369 73.2834 39.76C72.9972 39.8831 72.6479 39.9447 72.2355 39.9447ZM72.4017 38.966C72.8325 38.966 73.1957 38.8814 73.4912 38.7121C73.7897 38.5428 74.0144 38.3243 74.1652 38.0566C74.319 37.7888 74.396 37.5072 74.396 37.2117V36.2146C74.3498 36.27 74.2483 36.3208 74.0913 36.3669C73.9374 36.41 73.7589 36.4485 73.5558 36.4823C73.3557 36.5131 73.1603 36.5408 72.9695 36.5654C72.7818 36.587 72.6294 36.6054 72.5125 36.6208C72.2293 36.6578 71.9646 36.7178 71.7184 36.8009C71.4753 36.8809 71.2783 37.0025 71.1275 37.1656C70.9798 37.3256 70.9059 37.5441 70.9059 37.8211C70.9059 38.1997 71.046 38.4859 71.326 38.6798C71.6092 38.8706 71.9677 38.966 72.4017 38.966ZM82.9953 39.7785L80.4101 30.324H81.5735L83.5493 38.0242H83.6416L85.6544 30.324H86.947L88.9598 38.0242H89.0522L91.028 30.324H92.1914L89.6061 39.7785H88.4243L86.3377 32.2444H86.2638L84.1772 39.7785H82.9953ZM94.5596 35.5129V39.7785H93.4701V30.324H94.5596V33.7955H94.6519C94.8181 33.4293 95.0674 33.1385 95.3998 32.923C95.7353 32.7045 96.1815 32.5953 96.7386 32.5953C97.2218 32.5953 97.645 32.6922 98.0081 32.8861C98.3713 33.0769 98.6529 33.3708 98.8529 33.7678C99.0561 34.1618 99.1576 34.6634 99.1576 35.2728V39.7785H98.0681V35.3467C98.0681 34.7835 97.9219 34.348 97.6296 34.0402C97.3403 33.7294 96.9386 33.574 96.4247 33.574C96.0677 33.574 95.7476 33.6494 95.4644 33.8002C95.1844 33.951 94.9628 34.171 94.7997 34.4603C94.6396 34.7496 94.5596 35.1005 94.5596 35.5129ZM103.237 39.9447C102.788 39.9447 102.38 39.8601 102.014 39.6908C101.648 39.5184 101.357 39.2707 101.142 38.9475C100.926 38.6213 100.818 38.2274 100.818 37.7657C100.818 37.3595 100.898 37.0302 101.058 36.7778C101.218 36.5223 101.432 36.3223 101.7 36.1777C101.968 36.033 102.263 35.9253 102.587 35.8545C102.913 35.7806 103.241 35.7222 103.57 35.6791C104.001 35.6237 104.35 35.5821 104.618 35.5544C104.889 35.5237 105.086 35.4729 105.209 35.4021C105.335 35.3313 105.398 35.2082 105.398 35.0328V34.9958C105.398 34.5403 105.273 34.1864 105.024 33.934C104.778 33.6817 104.404 33.5555 103.902 33.5555C103.382 33.5555 102.974 33.6694 102.679 33.8971C102.383 34.1249 102.176 34.368 102.056 34.6265L101.022 34.2572C101.206 33.8263 101.452 33.4909 101.76 33.2508C102.071 33.0077 102.41 32.8384 102.776 32.743C103.145 32.6445 103.508 32.5953 103.865 32.5953C104.093 32.5953 104.355 32.623 104.65 32.6784C104.949 32.7307 105.236 32.8399 105.513 33.0061C105.793 33.1723 106.026 33.4232 106.21 33.7586C106.395 34.0941 106.487 34.5434 106.487 35.1066V39.7785H105.398V38.8183H105.343C105.269 38.9722 105.146 39.1368 104.973 39.3122C104.801 39.4877 104.572 39.6369 104.285 39.76C103.999 39.8831 103.65 39.9447 103.237 39.9447ZM103.404 38.966C103.834 38.966 104.198 38.8814 104.493 38.7121C104.792 38.5428 105.016 38.3243 105.167 38.0566C105.321 37.7888 105.398 37.5072 105.398 37.2117V36.2146C105.352 36.27 105.25 36.3208 105.093 36.3669C104.939 36.41 104.761 36.4485 104.558 36.4823C104.358 36.5131 104.162 36.5408 103.971 36.5654C103.784 36.587 103.631 36.6054 103.514 36.6208C103.231 36.6578 102.967 36.7178 102.72 36.8009C102.477 36.8809 102.28 37.0025 102.129 37.1656C101.982 37.3256 101.908 37.5441 101.908 37.8211C101.908 38.1997 102.048 38.4859 102.328 38.6798C102.611 38.8706 102.97 38.966 103.404 38.966ZM111.56 32.6876V33.6109H107.885V32.6876H111.56ZM108.956 30.9887H110.046V37.7473C110.046 38.055 110.09 38.2858 110.179 38.4397C110.272 38.5905 110.389 38.6921 110.53 38.7444C110.675 38.7937 110.827 38.8183 110.987 38.8183C111.107 38.8183 111.206 38.8121 111.283 38.7998C111.36 38.7844 111.421 38.7721 111.467 38.7629L111.689 39.7416C111.615 39.7693 111.512 39.797 111.38 39.8247C111.247 39.8554 111.08 39.8708 110.877 39.8708C110.569 39.8708 110.267 39.8047 109.972 39.6723C109.679 39.54 109.436 39.3384 109.242 39.0676C109.052 38.7967 108.956 38.4551 108.956 38.0427V30.9887ZM118.094 34.2757L117.116 34.5527C117.054 34.3895 116.963 34.231 116.843 34.0772C116.726 33.9202 116.566 33.7909 116.363 33.6894C116.16 33.5878 115.9 33.537 115.583 33.537C115.149 33.537 114.787 33.637 114.498 33.8371C114.212 34.0341 114.069 34.2849 114.069 34.5896C114.069 34.8604 114.167 35.0743 114.364 35.2313C114.561 35.3882 114.869 35.519 115.288 35.6237L116.34 35.8822C116.974 36.0361 117.447 36.2715 117.757 36.5885C118.068 36.9024 118.224 37.3071 118.224 37.8027C118.224 38.2089 118.107 38.5721 117.873 38.8921C117.642 39.2122 117.319 39.4646 116.903 39.6492C116.488 39.8339 116.005 39.9262 115.454 39.9262C114.731 39.9262 114.132 39.7693 113.658 39.4554C113.184 39.1414 112.884 38.6829 112.758 38.0796L113.792 37.8211C113.89 38.2027 114.077 38.489 114.35 38.6798C114.627 38.8706 114.989 38.966 115.435 38.966C115.943 38.966 116.346 38.8583 116.645 38.6428C116.946 38.4243 117.097 38.1627 117.097 37.858C117.097 37.6118 117.011 37.4056 116.839 37.2394C116.666 37.0702 116.402 36.944 116.045 36.8609L114.863 36.5839C114.213 36.43 113.736 36.1915 113.432 35.8683C113.13 35.5421 112.979 35.1343 112.979 34.645C112.979 34.2449 113.092 33.891 113.316 33.5832C113.544 33.2754 113.853 33.0338 114.244 32.8584C114.638 32.683 115.084 32.5953 115.583 32.5953C116.285 32.5953 116.836 32.7491 117.236 33.0569C117.639 33.3647 117.925 33.7709 118.094 34.2757ZM120.399 39.7785H119.199L122.67 30.324H123.852L127.324 39.7785H126.124L123.298 31.8197H123.224L120.399 39.7785ZM120.842 36.0853H125.68V37.1009H120.842V36.0853ZM128.649 42.4376V32.6876H129.701V33.814H129.831C129.911 33.6909 130.021 33.5339 130.163 33.3431C130.308 33.1492 130.514 32.9769 130.782 32.8261C131.052 32.6722 131.419 32.5953 131.88 32.5953C132.477 32.5953 133.004 32.7445 133.459 33.0431C133.915 33.3416 134.27 33.7648 134.526 34.3126C134.781 34.8604 134.909 35.5067 134.909 36.2515C134.909 37.0025 134.781 37.6534 134.526 38.2043C134.27 38.7521 133.916 39.1768 133.464 39.4784C133.011 39.777 132.49 39.9262 131.899 39.9262C131.443 39.9262 131.079 39.8508 130.805 39.7C130.531 39.5461 130.32 39.3723 130.172 39.1784C130.025 38.9814 129.911 38.8183 129.831 38.689H129.738V42.4376H128.649ZM129.72 36.233C129.72 36.7686 129.798 37.241 129.955 37.6503C130.112 38.0566 130.342 38.3751 130.643 38.6059C130.945 38.8337 131.314 38.9475 131.751 38.9475C132.207 38.9475 132.587 38.8275 132.891 38.5875C133.199 38.3443 133.43 38.0181 133.584 37.6088C133.741 37.1964 133.819 36.7378 133.819 36.233C133.819 35.7345 133.742 35.2851 133.588 34.885C133.438 34.4819 133.208 34.1633 132.901 33.9294C132.596 33.6924 132.213 33.574 131.751 33.574C131.308 33.574 130.936 33.6863 130.634 33.911C130.332 34.1326 130.105 34.4434 129.951 34.8435C129.797 35.2405 129.72 35.7037 129.72 36.233ZM136.571 42.4376V32.6876H137.623V33.814H137.753C137.833 33.6909 137.943 33.5339 138.085 33.3431C138.23 33.1492 138.436 32.9769 138.704 32.8261C138.974 32.6722 139.341 32.5953 139.802 32.5953C140.399 32.5953 140.926 32.7445 141.381 33.0431C141.837 33.3416 142.192 33.7648 142.447 34.3126C142.703 34.8604 142.831 35.5067 142.831 36.2515C142.831 37.0025 142.703 37.6534 142.447 38.2043C142.192 38.7521 141.838 39.1768 141.386 39.4784C140.933 39.777 140.412 39.9262 139.821 39.9262C139.365 39.9262 139.001 39.8508 138.727 39.7C138.453 39.5461 138.242 39.3723 138.094 39.1784C137.946 38.9814 137.833 38.8183 137.753 38.689H137.66V42.4376H136.571ZM137.642 36.233C137.642 36.7686 137.72 37.241 137.877 37.6503C138.034 38.0566 138.263 38.3751 138.565 38.6059C138.867 38.8337 139.236 38.9475 139.673 38.9475C140.128 38.9475 140.509 38.8275 140.813 38.5875C141.121 38.3443 141.352 38.0181 141.506 37.6088C141.663 37.1964 141.741 36.7378 141.741 36.233C141.741 35.7345 141.664 35.2851 141.51 34.885C141.36 34.4819 141.13 34.1633 140.822 33.9294C140.518 33.6924 140.135 33.574 139.673 33.574C139.23 33.574 138.857 33.6863 138.556 33.911C138.254 34.1326 138.026 34.4434 137.873 34.8435C137.719 35.2405 137.642 35.7037 137.642 36.233Z" fill="#FF0027"/>
</svg>
