<svg width="17" height="25" viewBox="0 0 17 25" fill="none" xmlns="http://www.w3.org/2000/svg">
<path fill-rule="evenodd" clip-rule="evenodd" d="M13.1457 6.38248V5.5799C13.1457 2.98187 11.0396 0.875755 8.44153 0.875755C5.8435 0.875755 3.73738 2.98188 3.73738 5.5799V6.38248H1.36809L0.0383165 23.1812C-0.0286187 24.0268 0.63951 24.7499 1.48773 24.7499H15.3954C16.2436 24.7499 16.9117 24.0268 16.8448 23.1812L15.515 6.38248H13.1457ZM11.6457 6.38248V5.5799C11.6457 3.8103 10.2111 2.37576 8.44153 2.37576C6.67193 2.37576 5.23738 3.8103 5.23738 5.5799V6.38248H11.6457ZM11.6457 7.75248V9.21156C11.6457 9.45385 11.83 9.66911 12.0723 9.66911H12.6654C12.9254 9.66911 13.1457 9.47147 13.1457 9.21156V7.75248H14.2492L15.4791 23.2893C15.4829 23.3382 15.4444 23.3799 15.3954 23.3799H1.48773C1.43876 23.3799 1.40018 23.3382 1.40404 23.2893L2.63393 7.75248H3.73738V9.21156C3.73738 9.47148 3.95769 9.66911 4.2176 9.66911H4.81072C5.05301 9.66911 5.23738 9.45385 5.23738 9.21156V7.75248H11.6457Z" fill="white"/>
</svg>
