<svg width="280" height="48" viewBox="0 0 280 48" fill="none" xmlns="http://www.w3.org/2000/svg">
<path fill-rule="evenodd" clip-rule="evenodd" d="M34.9072 18.8748V20.1751H35.8658V18.8737C36.5757 18.8277 37.1933 18.6789 37.7186 18.4274C38.3655 18.1196 38.8564 17.7046 39.1916 17.1825C39.5306 16.6603 39.7001 16.0758 39.7001 15.429C39.7001 14.8678 39.5851 14.3944 39.3552 14.0086C39.1253 13.6229 38.8331 13.3072 38.4785 13.0617C38.1278 12.8124 37.7595 12.6156 37.3738 12.4714C36.9919 12.3272 36.6451 12.2142 36.3334 12.1324L35.8658 12.0065V7.85009C36.4096 7.90241 36.8811 8.05954 37.2802 8.32147C37.779 8.64879 38.0635 9.10859 38.1336 9.70088H39.5364C39.5169 9.0969 39.3299 8.55722 38.9753 8.08183C38.6246 7.60643 38.1492 7.23236 37.5491 6.95959C37.0478 6.72847 36.4867 6.59389 35.8658 6.55584V5.21194H34.9072V6.57339C34.3711 6.62758 33.8742 6.75826 33.4167 6.96544C32.801 7.2421 32.3101 7.63176 31.9438 8.13443C31.5814 8.6332 31.4002 9.2177 31.4002 9.88792C31.4002 10.6945 31.673 11.3472 32.2185 11.846C32.764 12.3448 33.5044 12.7286 34.4396 12.9975L34.9072 13.1311V17.5563C34.6051 17.525 34.3167 17.4627 34.0421 17.3695C33.633 17.2253 33.294 17.0071 33.0251 16.7149C32.7601 16.4187 32.6082 16.0446 32.5692 15.5926H31.0729C31.1196 16.2473 31.3203 16.822 31.6749 17.3169C32.0334 17.8118 32.5244 18.1975 33.1479 18.4742C33.6582 18.6993 34.2447 18.8328 34.9072 18.8748ZM35.8658 17.5549C36.2262 17.5168 36.5594 17.4356 36.8653 17.311C37.3056 17.1279 37.6543 16.8746 37.9115 16.5512C38.1687 16.2239 38.2973 15.842 38.2973 15.4056C38.2973 15.0081 38.1862 14.6847 37.9641 14.4353C37.742 14.1859 37.4498 13.9833 37.0874 13.8274C36.725 13.6716 36.3334 13.5352 35.9125 13.4183L35.8658 13.4049V17.5549ZM34.9072 11.7463C34.7441 11.6984 34.5707 11.642 34.387 11.5771C34.122 11.4797 33.8687 11.357 33.6271 11.2089C33.3855 11.0569 33.1868 10.8679 33.0309 10.6419C32.879 10.412 32.803 10.1373 32.803 9.81778C32.803 9.43591 32.9121 9.09496 33.1303 8.79491C33.3524 8.49487 33.6603 8.25912 34.0538 8.08767C34.3106 7.97689 34.5951 7.9019 34.9072 7.8627V11.7463Z" fill="#990018"/>
<path fill-rule="evenodd" clip-rule="evenodd" d="M47.0857 12.6935C47.0857 19.1548 41.8478 24.3927 35.3865 24.3927C28.9252 24.3927 23.6873 19.1548 23.6873 12.6935C23.6873 6.23219 28.9252 0.994263 35.3865 0.994263C41.8478 0.994263 47.0857 6.23219 47.0857 12.6935ZM44.8132 12.6935C44.8132 17.8997 40.5927 22.1202 35.3865 22.1202C30.1803 22.1202 25.9598 17.8997 25.9598 12.6935C25.9598 7.48729 30.1803 3.26682 35.3865 3.26682C40.5927 3.26682 44.8132 7.48729 44.8132 12.6935Z" fill="#990018"/>
<path fill-rule="evenodd" clip-rule="evenodd" d="M15.0784 32.1145V31.702C15.0784 30.3669 13.996 29.2845 12.6609 29.2845C11.3258 29.2845 10.2434 30.3669 10.2434 31.702V32.1145H9.0258L8.34242 40.7475C8.30802 41.1821 8.65138 41.5537 9.08729 41.5537H16.2345C16.6705 41.5537 17.0138 41.1821 16.9794 40.7475L16.296 32.1145H15.0784ZM14.3075 32.1145V31.702C14.3075 30.7926 13.5703 30.0554 12.6609 30.0554C11.7515 30.0554 11.0143 30.7926 11.0143 31.702V32.1145H14.3075ZM14.3075 32.8185V33.5684C14.3075 33.6929 14.4023 33.8035 14.5268 33.8035H14.8316C14.9652 33.8035 15.0784 33.702 15.0784 33.5684V32.8185H15.6455L16.2776 40.8031C16.2795 40.8282 16.2597 40.8496 16.2345 40.8496H9.08729C9.06211 40.8496 9.04229 40.8282 9.04428 40.8031L9.67632 32.8185H10.2434V33.5684C10.2434 33.702 10.3566 33.8035 10.4902 33.8035H10.795C10.9195 33.8035 11.0143 33.6929 11.0143 33.5684V32.8185H14.3075Z" fill="#990018"/>
<path fill-rule="evenodd" clip-rule="evenodd" d="M24.3601 35.4191C24.3601 41.8804 19.1222 47.1183 12.6609 47.1183C6.19959 47.1183 0.96167 41.8804 0.96167 35.4191C0.96167 28.9578 6.19959 23.7198 12.6609 23.7198C19.1222 23.7198 24.3601 28.9578 24.3601 35.4191ZM22.0876 35.4191C22.0876 40.6253 17.8671 44.8458 12.6609 44.8458C7.45469 44.8458 3.23423 40.6253 3.23423 35.4191C3.23423 30.2129 7.45469 25.9924 12.6609 25.9924C17.8671 25.9924 22.0876 30.2129 22.0876 35.4191Z" fill="#990018"/>
<path d="M10.5601 9.24916C12.8445 6.74091 16.2771 5.22794 20.8312 5.22794C21.4588 5.22794 21.9675 5.73667 21.9675 6.36422C21.9675 6.99177 21.4588 7.5005 20.8312 7.5005C16.8067 7.5005 14.0252 8.81958 12.2402 10.7794C10.6038 12.5762 9.71209 15.0142 9.56213 17.7378L11.2379 15.603C11.6254 15.1094 12.3397 15.0234 12.8333 15.4109C13.3269 15.7984 13.413 16.5127 13.0255 17.0063L9.76959 21.154C8.98147 22.1579 7.44607 22.1107 6.72119 21.0601L3.88522 16.95C3.52882 16.4335 3.65863 15.7258 4.17515 15.3694C4.69168 15.013 5.39932 15.1428 5.75572 15.6594L7.28087 17.8697C7.41074 14.6395 8.44545 11.571 10.5601 9.24916Z" fill="#990018"/>
<path d="M27.3811 42.2556C31.9353 42.2556 35.3679 40.7426 37.6523 38.2344C39.7669 35.9126 40.8016 32.844 40.9315 29.6138L42.4567 31.8242C42.8131 32.3407 43.5207 32.4705 44.0372 32.1141C44.5538 31.7577 44.6836 31.0501 44.3272 30.5335L41.4912 26.4234C40.7663 25.3728 39.2309 25.3256 38.4428 26.3296L35.1869 30.4772C34.7994 30.9709 34.8854 31.6851 35.3791 32.0726C35.8727 32.4601 36.587 32.3741 36.9745 31.8805L38.6503 29.7457C38.5003 32.4693 37.6086 34.9073 35.9721 36.7041C34.1872 38.6639 31.4057 39.983 27.3811 39.983C26.7536 39.983 26.2449 40.4918 26.2449 41.1193C26.2449 41.7468 26.7536 42.2556 27.3811 42.2556Z" fill="#990018"/>
<path d="M68.5694 15.472H65.1331C65.1087 15.1877 65.0438 14.9298 64.9381 14.6983C64.8366 14.4667 64.6944 14.2677 64.5117 14.1012C64.3329 13.9306 64.1156 13.8006 63.8597 13.7112C63.6038 13.6178 63.3134 13.5711 62.9885 13.5711C62.4198 13.5711 61.9385 13.7092 61.5445 13.9854C61.1545 14.2616 60.858 14.6576 60.6549 15.1735C60.4559 15.6893 60.3564 16.3088 60.3564 17.0318C60.3564 17.7954 60.4579 18.4351 60.661 18.951C60.8682 19.4628 61.1667 19.8487 61.5567 20.1086C61.9466 20.3645 62.4157 20.4925 62.9641 20.4925C63.2769 20.4925 63.5571 20.4539 63.8049 20.3767C64.0527 20.2955 64.2679 20.1797 64.4507 20.0294C64.6335 19.8791 64.7818 19.6984 64.8955 19.4872C65.0133 19.2719 65.0925 19.0302 65.1331 18.7621L68.5694 18.7865C68.5288 19.3145 68.3805 19.8527 68.1247 20.4011C67.8688 20.9454 67.5052 21.449 67.034 21.9121C66.5669 22.3711 65.9881 22.7407 65.2976 23.0209C64.6071 23.3012 63.8049 23.4413 62.891 23.4413C61.7455 23.4413 60.7179 23.1956 59.8081 22.7041C58.9023 22.2126 58.1853 21.4896 57.6573 20.5351C57.1333 19.5806 56.8713 18.4128 56.8713 17.0318C56.8713 15.6426 57.1394 14.4728 57.6756 13.5224C58.2118 12.5678 58.9348 11.8468 59.8446 11.3594C60.7545 10.8679 61.7699 10.6222 62.891 10.6222C63.679 10.6222 64.404 10.7298 65.0661 10.9451C65.7282 11.1604 66.309 11.4752 66.8086 11.8895C67.3082 12.2997 67.7103 12.8054 68.015 13.4066C68.3196 14.0077 68.5044 14.6962 68.5694 15.472ZM70.1063 23.2708V10.7928H73.4939V20.5412H78.5387V23.2708H70.1063ZM87.2924 10.7928H90.68V18.7865C90.68 19.737 90.4525 20.5595 89.9976 21.2541C89.5468 21.9446 88.9172 22.4787 88.1089 22.8564C87.3006 23.2301 86.3623 23.417 85.294 23.417C84.2176 23.417 83.2753 23.2301 82.467 22.8564C81.6587 22.4787 81.0291 21.9446 80.5782 21.2541C80.1314 20.5595 79.908 19.737 79.908 18.7865V10.7928H83.2956V18.494C83.2956 18.8799 83.3809 19.2252 83.5515 19.5298C83.7221 19.8304 83.9577 20.066 84.2582 20.2366C84.5629 20.4072 84.9081 20.4925 85.294 20.4925C85.684 20.4925 86.0292 20.4072 86.3298 20.2366C86.6304 20.066 86.8659 19.8304 87.0365 19.5298C87.2071 19.2252 87.2924 18.8799 87.2924 18.494V10.7928ZM92.29 23.2708V10.7928H97.7004C98.6508 10.7928 99.449 10.9208 100.095 11.1766C100.745 11.4325 101.234 11.794 101.563 12.2612C101.896 12.7283 102.063 13.2786 102.063 13.9123C102.063 14.3713 101.961 14.7896 101.758 15.1674C101.559 15.5451 101.279 15.862 100.917 16.1179C100.556 16.3697 100.133 16.5444 99.6501 16.6418V16.7637C100.186 16.784 100.674 16.9201 101.112 17.1719C101.551 17.4197 101.9 17.7629 102.16 18.2016C102.42 18.6362 102.55 19.148 102.55 19.737C102.55 20.4193 102.371 21.0266 102.014 21.5587C101.661 22.0908 101.157 22.5092 100.503 22.8138C99.8491 23.1184 99.0692 23.2708 98.1634 23.2708H92.29ZM95.6776 20.5656H97.2617C97.8304 20.5656 98.2568 20.46 98.5412 20.2487C98.8255 20.0335 98.9677 19.7166 98.9677 19.2983C98.9677 19.0058 98.9006 18.7581 98.7666 18.555C98.6326 18.3519 98.4417 18.1975 98.1939 18.0919C97.9502 17.9863 97.6557 17.9335 97.3104 17.9335H95.6776V20.5656ZM95.6776 15.8376H97.0667C97.3632 15.8376 97.6252 15.7909 97.8527 15.6975C98.0802 15.604 98.2568 15.47 98.3828 15.2953C98.5127 15.1166 98.5777 14.8993 98.5777 14.6434C98.5777 14.2575 98.4396 13.9631 98.1634 13.76C97.8872 13.5528 97.5379 13.4492 97.1155 13.4492H95.6776V15.8376ZM103.75 23.2708V10.7928H112.743V13.5224H107.138V15.667H112.28V18.3966H107.138V20.5412H112.719V23.2708H103.75ZM122.643 23.2708H117.841V10.7928H122.594C123.877 10.7928 124.986 11.0426 125.92 11.5422C126.859 12.0378 127.582 12.7526 128.089 13.6869C128.601 14.617 128.857 15.732 128.857 17.0318C128.857 18.3316 128.603 19.4486 128.096 20.3828C127.588 21.3129 126.869 22.0278 125.939 22.5274C125.009 23.023 123.91 23.2708 122.643 23.2708ZM121.229 20.395H122.521C123.138 20.395 123.664 20.2955 124.099 20.0964C124.537 19.8974 124.87 19.5542 125.098 19.0668C125.329 18.5793 125.445 17.901 125.445 17.0318C125.445 16.1625 125.327 15.4842 125.092 14.9968C124.86 14.5094 124.519 14.1662 124.068 13.9671C123.621 13.7681 123.073 13.6686 122.423 13.6686H121.229V20.395ZM130.425 23.2708V10.7928H139.417V13.5224H133.812V15.667H138.954V18.3966H133.812V20.5412H139.393V23.2708H130.425ZM147.927 10.7928L150.486 19.5907H150.584L153.143 10.7928H156.969L152.85 23.2708H148.22L144.101 10.7928H147.927ZM159.368 23.2708H155.712L159.831 10.7928H164.462L168.58 23.2708H164.925L162.195 14.2291H162.098L159.368 23.2708ZM158.686 18.3478H165.558V20.8824H158.686V18.3478ZM180.579 10.7928V23.2708H177.751L173.243 16.715H173.17V23.2708H169.782V10.7928H172.658L177.093 17.3242H177.191V10.7928H180.579ZM181.84 13.5224V10.7928H192.685V13.5224H188.932V23.2708H185.593V13.5224H181.84ZM195.626 23.2708H191.97L196.089 10.7928H200.72L204.838 23.2708H201.183L198.453 14.2291H198.356L195.626 23.2708ZM194.944 18.3478H201.816V20.8824H194.944V18.3478ZM213.557 14.9115C213.504 14.6962 213.421 14.5073 213.307 14.3449C213.193 14.1783 213.051 14.0382 212.881 13.9245C212.714 13.8067 212.519 13.7194 212.296 13.6625C212.076 13.6016 211.835 13.5711 211.571 13.5711C211.002 13.5711 210.517 13.7072 210.115 13.9793C209.717 14.2515 209.412 14.6434 209.201 15.1552C208.994 15.667 208.89 16.2844 208.89 17.0074C208.89 17.7385 208.989 18.3641 209.189 18.884C209.388 19.4039 209.684 19.8019 210.078 20.0782C210.472 20.3544 210.962 20.4925 211.546 20.4925C212.062 20.4925 212.491 20.4173 212.832 20.267C213.177 20.1167 213.435 19.9035 213.606 19.6273C213.776 19.3511 213.862 19.0261 213.862 18.6524L214.447 18.7134H211.595V16.3006H217.127V18.031C217.127 19.1683 216.886 20.1411 216.402 20.9494C215.923 21.7537 215.261 22.3711 214.416 22.8016C213.575 23.2281 212.611 23.4413 211.522 23.4413C210.308 23.4413 209.241 23.1834 208.323 22.6676C207.405 22.1517 206.688 21.4165 206.173 20.462C205.661 19.5075 205.405 18.3722 205.405 17.0561C205.405 16.0244 205.561 15.1105 205.874 14.3144C206.191 13.5183 206.63 12.8461 207.19 12.2977C207.751 11.7453 208.399 11.329 209.134 11.0487C209.869 10.7644 210.657 10.6222 211.498 10.6222C212.237 10.6222 212.923 10.7278 213.557 10.939C214.195 11.1462 214.757 11.4427 215.245 11.8286C215.736 12.2104 216.132 12.6633 216.433 13.1873C216.733 13.7112 216.916 14.286 216.981 14.9115H213.557ZM218.707 23.2708V10.7928H227.7V13.5224H222.094V15.667H227.237V18.3966H222.094V20.5412H227.675V23.2708H218.707ZM240.176 10.7928V23.2708H237.349L232.841 16.715H232.767V23.2708H229.38V10.7928H232.256L236.691 17.3242H236.789V10.7928H240.176ZM248.505 14.6922C248.473 14.286 248.32 13.9692 248.048 13.7417C247.78 13.5142 247.372 13.4005 246.823 13.4005C246.474 13.4005 246.188 13.4431 245.964 13.5284C245.745 13.6097 245.583 13.7214 245.477 13.8635C245.371 14.0057 245.316 14.1682 245.312 14.351C245.304 14.5013 245.331 14.6373 245.392 14.7592C245.457 14.877 245.558 14.9846 245.696 15.0821C245.834 15.1755 246.011 15.2608 246.226 15.338C246.442 15.4152 246.698 15.4842 246.994 15.5451L248.018 15.7645C248.708 15.9107 249.299 16.1036 249.791 16.3433C250.282 16.5829 250.684 16.8652 250.997 17.1902C251.31 17.5111 251.539 17.8726 251.685 18.2747C251.836 18.6768 251.913 19.1155 251.917 19.5907C251.913 20.4112 251.708 21.1058 251.302 21.6745C250.895 22.2431 250.315 22.6757 249.559 22.9722C248.808 23.2687 247.904 23.417 246.848 23.417C245.763 23.417 244.817 23.2565 244.009 22.9357C243.204 22.6148 242.579 22.1213 242.132 21.4551C241.689 20.7849 241.466 19.9279 241.462 18.884H244.679C244.699 19.2658 244.795 19.5867 244.965 19.8466C245.136 20.1066 245.375 20.3036 245.684 20.4376C245.997 20.5717 246.369 20.6387 246.799 20.6387C247.161 20.6387 247.463 20.594 247.707 20.5046C247.951 20.4153 248.135 20.2914 248.261 20.133C248.387 19.9746 248.452 19.7938 248.456 19.5907C248.452 19.3998 248.389 19.2333 248.267 19.0911C248.15 18.9449 247.955 18.8149 247.683 18.7012C247.41 18.5834 247.043 18.4737 246.58 18.3722L245.337 18.1041C244.232 17.8645 243.361 17.4644 242.723 16.9038C242.089 16.3392 241.775 15.5695 241.779 14.5947C241.775 13.8026 241.986 13.1101 242.412 12.5171C242.843 11.92 243.438 11.4549 244.197 11.1218C244.961 10.7887 245.836 10.6222 246.823 10.6222C247.831 10.6222 248.702 10.7908 249.437 11.1279C250.172 11.465 250.739 11.9403 251.137 12.5536C251.539 13.1629 251.742 13.8757 251.746 14.6922H248.505Z" fill="white"/>
<path d="M59.9752 42.3245C59.4489 42.3245 58.9965 42.2568 58.618 42.1214C58.2394 41.9891 57.924 41.8136 57.6716 41.5951C57.4223 41.3797 57.2238 41.1489 57.0761 40.9026L57.944 40.2933C58.0425 40.4225 58.1671 40.5703 58.3179 40.7365C58.4687 40.9057 58.6749 41.0519 58.9365 41.175C59.2012 41.3012 59.5474 41.3643 59.9752 41.3643C60.5477 41.3643 61.0201 41.2258 61.3925 40.9488C61.7649 40.6718 61.9511 40.2379 61.9511 39.647V38.2066H61.8587C61.7787 38.3359 61.6649 38.4959 61.5171 38.6867C61.3725 38.8745 61.1632 39.0422 60.8893 39.1899C60.6184 39.3346 60.2522 39.4069 59.7906 39.4069C59.2181 39.4069 58.7041 39.2715 58.2487 39.0007C57.7962 38.7298 57.4377 38.3359 57.173 37.8188C56.9114 37.3018 56.7806 36.674 56.7806 35.9353C56.7806 35.209 56.9083 34.5765 57.1638 34.0379C57.4192 33.4963 57.7747 33.0777 58.2302 32.7823C58.6857 32.4837 59.212 32.3345 59.809 32.3345C60.2707 32.3345 60.6369 32.4114 60.9077 32.5653C61.1817 32.7161 61.3909 32.8884 61.5356 33.0823C61.6833 33.2731 61.7972 33.4301 61.8772 33.5532H61.988V32.4268H63.0406V39.7208C63.0406 40.3302 62.9021 40.8257 62.6251 41.2073C62.3512 41.592 61.9818 41.8736 61.5171 42.0521C61.0555 42.2337 60.5415 42.3245 59.9752 42.3245ZM59.9383 38.4282C60.3753 38.4282 60.7446 38.3282 61.0462 38.1281C61.3479 37.9281 61.5771 37.6403 61.7341 37.2649C61.8911 36.8894 61.9695 36.44 61.9695 35.9168C61.9695 35.406 61.8926 34.9551 61.7387 34.5642C61.5848 34.1734 61.3571 33.8671 61.0555 33.6455C60.7539 33.4239 60.3815 33.3132 59.9383 33.3132C59.4766 33.3132 59.0919 33.4301 58.7842 33.664C58.4795 33.8979 58.2502 34.2118 58.0963 34.6058C57.9455 34.9997 57.8701 35.4367 57.8701 35.9168C57.8701 36.4093 57.947 36.8448 58.1009 37.2233C58.2579 37.5988 58.4887 37.8942 58.7934 38.1097C59.1012 38.322 59.4828 38.4282 59.9383 38.4282ZM67.1215 39.6839C66.6722 39.6839 66.2644 39.5993 65.8982 39.43C65.5319 39.2576 65.2411 39.0099 65.0256 38.6867C64.8102 38.3605 64.7025 37.9666 64.7025 37.5049C64.7025 37.0987 64.7825 36.7694 64.9425 36.517C65.1026 36.2615 65.3165 36.0615 65.5842 35.9168C65.852 35.7722 66.1474 35.6645 66.4706 35.5937C66.7968 35.5198 67.1246 35.4614 67.4539 35.4183C67.8848 35.3629 68.2341 35.3213 68.5019 35.2936C68.7727 35.2628 68.9697 35.2121 69.0928 35.1413C69.2189 35.0705 69.282 34.9474 69.282 34.772V34.735C69.282 34.2795 69.1574 33.9256 68.9081 33.6732C68.6619 33.4209 68.288 33.2947 67.7863 33.2947C67.2662 33.2947 66.8584 33.4086 66.5629 33.6363C66.2675 33.8641 66.0597 34.1072 65.9397 34.3657L64.9056 33.9964C65.0903 33.5655 65.3365 33.2301 65.6443 32.99C65.9551 32.7469 66.2936 32.5776 66.6599 32.4822C67.0292 32.3837 67.3924 32.3345 67.7494 32.3345C67.9771 32.3345 68.2387 32.3622 68.5342 32.4176C68.8327 32.4699 69.1205 32.5791 69.3974 32.7453C69.6775 32.9115 69.9099 33.1623 70.0945 33.4978C70.2792 33.8333 70.3715 34.2826 70.3715 34.8458V39.5177H69.282V38.5575H69.2266C69.1528 38.7114 69.0297 38.876 68.8573 39.0514C68.685 39.2269 68.4557 39.3761 68.1695 39.4992C67.8832 39.6223 67.5339 39.6839 67.1215 39.6839ZM67.2877 38.7052C67.7186 38.7052 68.0818 38.6206 68.3772 38.4513C68.6757 38.282 68.9004 38.0635 69.0512 37.7958C69.2051 37.528 69.282 37.2464 69.282 36.9509V35.9538C69.2359 36.0092 69.1343 36.06 68.9774 36.1061C68.8235 36.1492 68.645 36.1877 68.4418 36.2215C68.2418 36.2523 68.0464 36.28 67.8555 36.3046C67.6678 36.3262 67.5155 36.3446 67.3985 36.36C67.1154 36.397 66.8507 36.457 66.6045 36.5401C66.3613 36.6201 66.1644 36.7417 66.0136 36.9048C65.8658 37.0648 65.792 37.2833 65.792 37.5603C65.792 37.9389 65.932 38.2251 66.2121 38.419C66.4952 38.6098 66.8538 38.7052 67.2877 38.7052ZM73.4496 35.2521V39.5177H72.3601V32.4268H73.4126V33.5347H73.505C73.6712 33.1747 73.9235 32.8854 74.2621 32.6668C74.6006 32.4453 75.0376 32.3345 75.5731 32.3345C76.0533 32.3345 76.4734 32.4329 76.8334 32.6299C77.1935 32.8238 77.4736 33.1193 77.6736 33.5163C77.8737 33.9102 77.9737 34.4088 77.9737 35.012V39.5177H76.8842V35.0859C76.8842 34.5288 76.7396 34.0949 76.4503 33.784C76.161 33.4701 75.764 33.3132 75.2592 33.3132C74.9114 33.3132 74.6006 33.3886 74.3267 33.5394C74.0559 33.6902 73.842 33.9102 73.685 34.1995C73.528 34.4888 73.4496 34.8397 73.4496 35.2521ZM81.0541 35.2521V39.5177H79.9646V30.0632H81.0541V33.5347H81.1464C81.3126 33.1685 81.5619 32.8777 81.8943 32.6622C82.2297 32.4437 82.676 32.3345 83.233 32.3345C83.7162 32.3345 84.1394 32.4314 84.5026 32.6253C84.8657 32.8161 85.1473 33.11 85.3474 33.507C85.5505 33.901 85.6521 34.4026 85.6521 35.012V39.5177H84.5626V35.0859C84.5626 34.5227 84.4164 34.0872 84.124 33.7794C83.8347 33.4686 83.4331 33.3132 82.9191 33.3132C82.5621 33.3132 82.242 33.3886 81.9589 33.5394C81.6788 33.6902 81.4572 33.9102 81.2941 34.1995C81.1341 34.4888 81.0541 34.8397 81.0541 35.2521ZM90.6182 39.6654C89.935 39.6654 89.3456 39.5146 88.8501 39.213C88.3577 38.9083 87.9776 38.4836 87.7099 37.9389C87.4452 37.391 87.3128 36.754 87.3128 36.0276C87.3128 35.3013 87.4452 34.6612 87.7099 34.1072C87.9776 33.5501 88.35 33.1162 88.827 32.8053C89.3072 32.4914 89.8673 32.3345 90.5074 32.3345C90.8768 32.3345 91.2415 32.396 91.6016 32.5191C91.9616 32.6422 92.2894 32.8423 92.5849 33.1193C92.8803 33.3932 93.1158 33.7563 93.2912 34.2088C93.4666 34.6612 93.5543 35.2182 93.5543 35.8799V36.3416H88.0884V35.3998H92.4464C92.4464 34.9997 92.3663 34.6427 92.2063 34.3288C92.0493 34.0149 91.8247 33.7671 91.5323 33.5855C91.243 33.4039 90.9014 33.3132 90.5074 33.3132C90.0735 33.3132 89.698 33.4209 89.381 33.6363C89.0671 33.8487 88.8255 34.1257 88.6562 34.4673C88.487 34.8089 88.4023 35.1751 88.4023 35.566V36.1938C88.4023 36.7293 88.4947 37.1833 88.6793 37.5557C88.8671 37.925 89.1271 38.2066 89.4595 38.4005C89.7919 38.5913 90.1781 38.6867 90.6182 38.6867C90.9045 38.6867 91.163 38.6467 91.3938 38.5667C91.6277 38.4836 91.8293 38.3605 91.9986 38.1974C92.1678 38.0312 92.2986 37.825 92.391 37.5788L93.4435 37.8742C93.3327 38.2312 93.1465 38.5452 92.8849 38.816C92.6233 39.0838 92.3002 39.293 91.9155 39.4438C91.5308 39.5916 91.0984 39.6654 90.6182 39.6654ZM98.8679 42.1768V32.4268H99.9204V33.5532H100.05C100.13 33.4301 100.241 33.2731 100.382 33.0823C100.527 32.8884 100.733 32.7161 101.001 32.5653C101.272 32.4114 101.638 32.3345 102.099 32.3345C102.696 32.3345 103.223 32.4837 103.678 32.7823C104.134 33.0808 104.489 33.504 104.745 34.0518C105 34.5996 105.128 35.2459 105.128 35.9907C105.128 36.7417 105 37.3926 104.745 37.9435C104.489 38.4913 104.135 38.916 103.683 39.2176C103.23 39.5162 102.709 39.6654 102.118 39.6654C101.662 39.6654 101.298 39.59 101.024 39.4392C100.75 39.2853 100.539 39.1115 100.391 38.9176C100.244 38.7206 100.13 38.5575 100.05 38.4282H99.9574V42.1768H98.8679ZM99.9389 35.9722C99.9389 36.5078 100.017 36.9802 100.174 37.3895C100.331 37.7958 100.561 38.1143 100.862 38.3451C101.164 38.5729 101.533 38.6867 101.97 38.6867C102.426 38.6867 102.806 38.5667 103.11 38.3266C103.418 38.0835 103.649 37.7573 103.803 37.348C103.96 36.9356 104.038 36.477 104.038 35.9722C104.038 35.4737 103.961 35.0243 103.808 34.6242C103.657 34.2211 103.427 33.9025 103.12 33.6686C102.815 33.4316 102.432 33.3132 101.97 33.3132C101.527 33.3132 101.155 33.4255 100.853 33.6502C100.551 33.8717 100.324 34.1826 100.17 34.5827C100.016 34.9797 99.9389 35.4429 99.9389 35.9722ZM109.67 39.6654C109.03 39.6654 108.469 39.5131 107.985 39.2084C107.505 38.9037 107.13 38.4775 106.859 37.9296C106.591 37.3818 106.457 36.7417 106.457 36.0092C106.457 35.2705 106.591 34.6258 106.859 34.0749C107.13 33.524 107.505 33.0962 107.985 32.7915C108.469 32.4868 109.03 32.3345 109.67 32.3345C110.311 32.3345 110.871 32.4868 111.351 32.7915C111.834 33.0962 112.21 33.524 112.477 34.0749C112.748 34.6258 112.884 35.2705 112.884 36.0092C112.884 36.7417 112.748 37.3818 112.477 37.9296C112.21 38.4775 111.834 38.9037 111.351 39.2084C110.871 39.5131 110.311 39.6654 109.67 39.6654ZM109.67 38.6867C110.157 38.6867 110.557 38.5621 110.871 38.3128C111.185 38.0635 111.417 37.7357 111.568 37.3295C111.719 36.9232 111.794 36.4831 111.794 36.0092C111.794 35.5352 111.719 35.0936 111.568 34.6842C111.417 34.2749 111.185 33.9441 110.871 33.6917C110.557 33.4393 110.157 33.3132 109.67 33.3132C109.184 33.3132 108.784 33.4393 108.47 33.6917C108.156 33.9441 107.924 34.2749 107.773 34.6842C107.622 35.0936 107.547 35.5352 107.547 36.0092C107.547 36.4831 107.622 36.9232 107.773 37.3295C107.924 37.7357 108.156 38.0635 108.47 38.3128C108.784 38.5621 109.184 38.6867 109.67 38.6867ZM115.636 35.2521V39.5177H114.547V32.4268H115.599V33.5347H115.691C115.858 33.1747 116.11 32.8854 116.449 32.6668C116.787 32.4453 117.224 32.3345 117.76 32.3345C118.24 32.3345 118.66 32.4329 119.02 32.6299C119.38 32.8238 119.66 33.1193 119.86 33.5163C120.06 33.9102 120.16 34.4088 120.16 35.012V39.5177H119.071V35.0859C119.071 34.5288 118.926 34.0949 118.637 33.784C118.347 33.4701 117.95 33.3132 117.446 33.3132C117.098 33.3132 116.787 33.3886 116.513 33.5394C116.242 33.6902 116.028 33.9102 115.872 34.1995C115.715 34.4888 115.636 34.8397 115.636 35.2521ZM125.235 32.4268V33.3501H121.56V32.4268H125.235ZM122.631 30.7279H123.721V37.4865C123.721 37.7942 123.765 38.025 123.855 38.1789C123.947 38.3297 124.064 38.4313 124.205 38.4836C124.35 38.5329 124.502 38.5575 124.662 38.5575C124.782 38.5575 124.881 38.5513 124.958 38.539C125.035 38.5236 125.096 38.5113 125.143 38.5021L125.364 39.4808C125.29 39.5085 125.187 39.5362 125.055 39.5639C124.923 39.5946 124.755 39.61 124.552 39.61C124.244 39.61 123.942 39.5439 123.647 39.4115C123.354 39.2792 123.111 39.0776 122.917 38.8068C122.727 38.5359 122.631 38.1943 122.631 37.7819V30.7279ZM129.678 39.6654C129.038 39.6654 128.476 39.5131 127.993 39.2084C127.513 38.9037 127.138 38.4775 126.867 37.9296C126.599 37.3818 126.465 36.7417 126.465 36.0092C126.465 35.2705 126.599 34.6258 126.867 34.0749C127.138 33.524 127.513 33.0962 127.993 32.7915C128.476 32.4868 129.038 32.3345 129.678 32.3345C130.318 32.3345 130.879 32.4868 131.359 32.7915C131.842 33.0962 132.217 33.524 132.485 34.0749C132.756 34.6258 132.891 35.2705 132.891 36.0092C132.891 36.7417 132.756 37.3818 132.485 37.9296C132.217 38.4775 131.842 38.9037 131.359 39.2084C130.879 39.5131 130.318 39.6654 129.678 39.6654ZM129.678 38.6867C130.165 38.6867 130.565 38.5621 130.879 38.3128C131.192 38.0635 131.425 37.7357 131.576 37.3295C131.726 36.9232 131.802 36.4831 131.802 36.0092C131.802 35.5352 131.726 35.0936 131.576 34.6842C131.425 34.2749 131.192 33.9441 130.879 33.6917C130.565 33.4393 130.165 33.3132 129.678 33.3132C129.192 33.3132 128.792 33.4393 128.478 33.6917C128.164 33.9441 127.932 34.2749 127.781 34.6842C127.63 35.0936 127.555 35.5352 127.555 36.0092C127.555 36.4831 127.63 36.9232 127.781 37.3295C127.932 37.7357 128.164 38.0635 128.478 38.3128C128.792 38.5621 129.192 38.6867 129.678 38.6867ZM139.577 34.0149L138.598 34.2918C138.537 34.1287 138.446 33.9702 138.326 33.8164C138.209 33.6594 138.049 33.5301 137.846 33.4286C137.643 33.327 137.383 33.2762 137.066 33.2762C136.632 33.2762 136.27 33.3762 135.981 33.5763C135.695 33.7733 135.552 34.0241 135.552 34.3288C135.552 34.5996 135.65 34.8135 135.847 34.9705C136.044 35.1274 136.352 35.2582 136.77 35.3629L137.823 35.6214C138.457 35.7753 138.929 36.0107 139.24 36.3277C139.551 36.6416 139.706 37.0463 139.706 37.5418C139.706 37.9481 139.589 38.3113 139.356 38.6313C139.125 38.9514 138.802 39.2038 138.386 39.3884C137.971 39.5731 137.487 39.6654 136.937 39.6654C136.213 39.6654 135.615 39.5085 135.141 39.1945C134.667 38.8806 134.367 38.4221 134.24 37.8188L135.275 37.5603C135.373 37.9419 135.559 38.2282 135.833 38.419C136.11 38.6098 136.472 38.7052 136.918 38.7052C137.426 38.7052 137.829 38.5975 138.128 38.382C138.429 38.1635 138.58 37.9019 138.58 37.5972C138.58 37.351 138.494 37.1448 138.321 36.9786C138.149 36.8094 137.884 36.6832 137.527 36.6001L136.346 36.3231C135.696 36.1692 135.219 35.9307 134.914 35.6075C134.613 35.2813 134.462 34.8735 134.462 34.3842C134.462 33.9841 134.574 33.6302 134.799 33.3224C135.027 33.0146 135.336 32.773 135.727 32.5976C136.121 32.4222 136.567 32.3345 137.066 32.3345C137.767 32.3345 138.318 32.4883 138.718 32.7961C139.122 33.1039 139.408 33.5101 139.577 34.0149ZM147.976 39.6654C147.292 39.6654 146.703 39.5146 146.208 39.213C145.715 38.9083 145.335 38.4836 145.067 37.9389C144.803 37.391 144.67 36.754 144.67 36.0276C144.67 35.3013 144.803 34.6612 145.067 34.1072C145.335 33.5501 145.707 33.1162 146.184 32.8053C146.665 32.4914 147.225 32.3345 147.865 32.3345C148.234 32.3345 148.599 32.396 148.959 32.5191C149.319 32.6422 149.647 32.8423 149.942 33.1193C150.238 33.3932 150.473 33.7563 150.649 34.2088C150.824 34.6612 150.912 35.2182 150.912 35.8799V36.3416H145.446V35.3998H149.804C149.804 34.9997 149.724 34.6427 149.564 34.3288C149.407 34.0149 149.182 33.7671 148.89 33.5855C148.6 33.4039 148.259 33.3132 147.865 33.3132C147.431 33.3132 147.055 33.4209 146.738 33.6363C146.425 33.8487 146.183 34.1257 146.014 34.4673C145.844 34.8089 145.76 35.1751 145.76 35.566V36.1938C145.76 36.7293 145.852 37.1833 146.037 37.5557C146.224 37.925 146.485 38.2066 146.817 38.4005C147.149 38.5913 147.536 38.6867 147.976 38.6867C148.262 38.6867 148.52 38.6467 148.751 38.5667C148.985 38.4836 149.187 38.3605 149.356 38.1974C149.525 38.0312 149.656 37.825 149.748 37.5788L150.801 37.8742C150.69 38.2312 150.504 38.5452 150.242 38.816C149.981 39.0838 149.658 39.293 149.273 39.4438C148.888 39.5916 148.456 39.6654 147.976 39.6654ZM159.309 32.4268V33.3501H155.634V32.4268H159.309ZM156.705 30.7279H157.795V37.4865C157.795 37.7942 157.84 38.025 157.929 38.1789C158.021 38.3297 158.138 38.4313 158.28 38.4836C158.424 38.5329 158.577 38.5575 158.737 38.5575C158.857 38.5575 158.955 38.5513 159.032 38.539C159.109 38.5236 159.171 38.5113 159.217 38.5021L159.438 39.4808C159.365 39.5085 159.261 39.5362 159.129 39.5639C158.997 39.5946 158.829 39.61 158.626 39.61C158.318 39.61 158.017 39.5439 157.721 39.4115C157.429 39.2792 157.186 39.0776 156.992 38.8068C156.801 38.5359 156.705 38.1943 156.705 37.7819V30.7279ZM160.948 39.5177V32.4268H162.001V33.4978H162.074C162.204 33.147 162.438 32.8623 162.776 32.6438C163.115 32.4253 163.496 32.316 163.921 32.316C164.001 32.316 164.101 32.3175 164.221 32.3206C164.341 32.3237 164.432 32.3283 164.493 32.3345V33.4424C164.456 33.4332 164.372 33.4193 164.24 33.4009C164.11 33.3793 163.973 33.3686 163.829 33.3686C163.484 33.3686 163.176 33.4409 162.905 33.5855C162.638 33.7271 162.425 33.9241 162.268 34.1764C162.114 34.4257 162.037 34.7104 162.037 35.0305V39.5177H160.948ZM168.45 39.6654C167.81 39.6654 167.248 39.5131 166.765 39.2084C166.285 38.9037 165.909 38.4775 165.638 37.9296C165.371 37.3818 165.237 36.7417 165.237 36.0092C165.237 35.2705 165.371 34.6258 165.638 34.0749C165.909 33.524 166.285 33.0962 166.765 32.7915C167.248 32.4868 167.81 32.3345 168.45 32.3345C169.09 32.3345 169.65 32.4868 170.13 32.7915C170.613 33.0962 170.989 33.524 171.257 34.0749C171.527 34.6258 171.663 35.2705 171.663 36.0092C171.663 36.7417 171.527 37.3818 171.257 37.9296C170.989 38.4775 170.613 38.9037 170.13 39.2084C169.65 39.5131 169.09 39.6654 168.45 39.6654ZM168.45 38.6867C168.936 38.6867 169.336 38.5621 169.65 38.3128C169.964 38.0635 170.196 37.7357 170.347 37.3295C170.498 36.9232 170.573 36.4831 170.573 36.0092C170.573 35.5352 170.498 35.0936 170.347 34.6842C170.196 34.2749 169.964 33.9441 169.65 33.6917C169.336 33.4393 168.936 33.3132 168.45 33.3132C167.963 33.3132 167.563 33.4393 167.249 33.6917C166.936 33.9441 166.703 34.2749 166.552 34.6842C166.402 35.0936 166.326 35.5352 166.326 36.0092C166.326 36.4831 166.402 36.9232 166.552 37.3295C166.703 37.7357 166.936 38.0635 167.249 38.3128C167.563 38.5621 167.963 38.6867 168.45 38.6867ZM178.164 42.1768V38.4282H178.072C177.992 38.5575 177.878 38.7206 177.73 38.9176C177.582 39.1115 177.371 39.2853 177.098 39.4392C176.824 39.59 176.459 39.6654 176.003 39.6654C175.413 39.6654 174.891 39.5162 174.438 39.2176C173.986 38.916 173.632 38.4913 173.377 37.9435C173.121 37.3926 172.994 36.7417 172.994 35.9907C172.994 35.2459 173.121 34.5996 173.377 34.0518C173.632 33.504 173.988 33.0808 174.443 32.7823C174.899 32.4837 175.425 32.3345 176.022 32.3345C176.484 32.3345 176.848 32.4114 177.116 32.5653C177.387 32.7161 177.593 32.8884 177.735 33.0823C177.879 33.2731 177.992 33.4301 178.072 33.5532H178.201V32.4268H179.253V42.1768H178.164ZM176.151 38.6867C176.588 38.6867 176.958 38.5729 177.259 38.3451C177.561 38.1143 177.79 37.7958 177.947 37.3895C178.104 36.9802 178.182 36.5078 178.182 35.9722C178.182 35.4429 178.105 34.9797 177.952 34.5827C177.798 34.1826 177.57 33.8717 177.268 33.6502C176.967 33.4255 176.594 33.3132 176.151 33.3132C175.69 33.3132 175.305 33.4316 174.997 33.6686C174.692 33.9025 174.463 34.2211 174.309 34.6242C174.158 35.0243 174.083 35.4737 174.083 35.9722C174.083 36.477 174.16 36.9356 174.314 37.348C174.471 37.7573 174.702 38.0835 175.006 38.3266C175.314 38.5667 175.696 38.6867 176.151 38.6867ZM185.717 36.6186V32.4268H186.806V39.5177H185.717V38.3174H185.643C185.476 38.6775 185.218 38.9837 184.867 39.2361C184.516 39.4854 184.073 39.61 183.538 39.61C183.094 39.61 182.7 39.5131 182.356 39.3192C182.011 39.1222 181.74 38.8268 181.543 38.4328C181.346 38.0358 181.248 37.5357 181.248 36.9325V32.4268H182.337V36.8586C182.337 37.3757 182.482 37.7881 182.771 38.0958C183.064 38.4036 183.436 38.5575 183.888 38.5575C184.159 38.5575 184.435 38.4882 184.715 38.3497C184.998 38.2112 185.235 37.9989 185.426 37.7127C185.62 37.4264 185.717 37.0617 185.717 36.6186ZM191.774 39.6654C191.091 39.6654 190.502 39.5146 190.006 39.213C189.514 38.9083 189.134 38.4836 188.866 37.9389C188.601 37.391 188.469 36.754 188.469 36.0276C188.469 35.3013 188.601 34.6612 188.866 34.1072C189.134 33.5501 189.506 33.1162 189.983 32.8053C190.463 32.4914 191.024 32.3345 191.664 32.3345C192.033 32.3345 192.398 32.396 192.758 32.5191C193.118 32.6422 193.446 32.8423 193.741 33.1193C194.037 33.3932 194.272 33.7563 194.447 34.2088C194.623 34.6612 194.711 35.2182 194.711 35.8799V36.3416H189.245V35.3998H193.603C193.603 34.9997 193.523 34.6427 193.363 34.3288C193.206 34.0149 192.981 33.7671 192.689 33.5855C192.399 33.4039 192.058 33.3132 191.664 33.3132C191.23 33.3132 190.854 33.4209 190.537 33.6363C190.223 33.8487 189.982 34.1257 189.812 34.4673C189.643 34.8089 189.559 35.1751 189.559 35.566V36.1938C189.559 36.7293 189.651 37.1833 189.836 37.5557C190.023 37.925 190.283 38.2066 190.616 38.4005C190.948 38.5913 191.334 38.6867 191.774 38.6867C192.061 38.6867 192.319 38.6467 192.55 38.5667C192.784 38.4836 192.986 38.3605 193.155 38.1974C193.324 38.0312 193.455 37.825 193.547 37.5788L194.6 37.8742C194.489 38.2312 194.303 38.5452 194.041 38.816C193.78 39.0838 193.456 39.293 193.072 39.4438C192.687 39.5916 192.255 39.6654 191.774 39.6654ZM200.024 42.1768V32.4268H201.077V33.5532H201.206C201.286 33.4301 201.397 33.2731 201.538 33.0823C201.683 32.8884 201.889 32.7161 202.157 32.5653C202.428 32.4114 202.794 32.3345 203.256 32.3345C203.853 32.3345 204.379 32.4837 204.835 32.7823C205.29 33.0808 205.645 33.504 205.901 34.0518C206.156 34.5996 206.284 35.2459 206.284 35.9907C206.284 36.7417 206.156 37.3926 205.901 37.9435C205.645 38.4913 205.292 38.916 204.839 39.2176C204.387 39.5162 203.865 39.6654 203.274 39.6654C202.819 39.6654 202.454 39.59 202.18 39.4392C201.906 39.2853 201.695 39.1115 201.548 38.9176C201.4 38.7206 201.286 38.5575 201.206 38.4282H201.114V42.1768H200.024ZM201.095 35.9722C201.095 36.5078 201.174 36.9802 201.331 37.3895C201.488 37.7958 201.717 38.1143 202.018 38.3451C202.32 38.5729 202.689 38.6867 203.126 38.6867C203.582 38.6867 203.962 38.5667 204.267 38.3266C204.574 38.0835 204.805 37.7573 204.959 37.348C205.116 36.9356 205.195 36.477 205.195 35.9722C205.195 35.4737 205.118 35.0243 204.964 34.6242C204.813 34.2211 204.584 33.9025 204.276 33.6686C203.971 33.4316 203.588 33.3132 203.126 33.3132C202.683 33.3132 202.311 33.4255 202.009 33.6502C201.708 33.8717 201.48 34.1826 201.326 34.5827C201.172 34.9797 201.095 35.4429 201.095 35.9722ZM210.827 39.6654C210.187 39.6654 209.625 39.5131 209.142 39.2084C208.662 38.9037 208.286 38.4775 208.015 37.9296C207.748 37.3818 207.614 36.7417 207.614 36.0092C207.614 35.2705 207.748 34.6258 208.015 34.0749C208.286 33.524 208.662 33.0962 209.142 32.7915C209.625 32.4868 210.187 32.3345 210.827 32.3345C211.467 32.3345 212.027 32.4868 212.507 32.7915C212.99 33.0962 213.366 33.524 213.634 34.0749C213.904 34.6258 214.04 35.2705 214.04 36.0092C214.04 36.7417 213.904 37.3818 213.634 37.9296C213.366 38.4775 212.99 38.9037 212.507 39.2084C212.027 39.5131 211.467 39.6654 210.827 39.6654ZM210.827 38.6867C211.313 38.6867 211.713 38.5621 212.027 38.3128C212.341 38.0635 212.573 37.7357 212.724 37.3295C212.875 36.9232 212.95 36.4831 212.95 36.0092C212.95 35.5352 212.875 35.0936 212.724 34.6842C212.573 34.2749 212.341 33.9441 212.027 33.6917C211.713 33.4393 211.313 33.3132 210.827 33.3132C210.34 33.3132 209.94 33.4393 209.626 33.6917C209.312 33.9441 209.08 34.2749 208.929 34.6842C208.779 35.0936 208.703 35.5352 208.703 36.0092C208.703 36.4831 208.779 36.9232 208.929 37.3295C209.08 37.7357 209.312 38.0635 209.626 38.3128C209.94 38.5621 210.34 38.6867 210.827 38.6867ZM215.703 39.5177V32.4268H216.755V33.4978H216.829C216.959 33.147 217.192 32.8623 217.531 32.6438C217.87 32.4253 218.251 32.316 218.676 32.316C218.756 32.316 218.856 32.3175 218.976 32.3206C219.096 32.3237 219.187 32.3283 219.248 32.3345V33.4424C219.211 33.4332 219.127 33.4193 218.994 33.4009C218.865 33.3793 218.728 33.3686 218.584 33.3686C218.239 33.3686 217.931 33.4409 217.66 33.5855C217.392 33.7271 217.18 33.9241 217.023 34.1764C216.869 34.4257 216.792 34.7104 216.792 35.0305V39.5177H215.703ZM224.196 42.1768V32.4268H225.249V33.5532H225.378C225.458 33.4301 225.569 33.2731 225.71 33.0823C225.855 32.8884 226.061 32.7161 226.329 32.5653C226.6 32.4114 226.966 32.3345 227.428 32.3345C228.025 32.3345 228.551 32.4837 229.006 32.7823C229.462 33.0808 229.817 33.504 230.073 34.0518C230.328 34.5996 230.456 35.2459 230.456 35.9907C230.456 36.7417 230.328 37.3926 230.073 37.9435C229.817 38.4913 229.463 38.916 229.011 39.2176C228.559 39.5162 228.037 39.6654 227.446 39.6654C226.991 39.6654 226.626 39.59 226.352 39.4392C226.078 39.2853 225.867 39.1115 225.719 38.9176C225.572 38.7206 225.458 38.5575 225.378 38.4282H225.286V42.1768H224.196ZM225.267 35.9722C225.267 36.5078 225.346 36.9802 225.502 37.3895C225.659 37.7958 225.889 38.1143 226.19 38.3451C226.492 38.5729 226.861 38.6867 227.298 38.6867C227.754 38.6867 228.134 38.5667 228.439 38.3266C228.746 38.0835 228.977 37.7573 229.131 37.348C229.288 36.9356 229.366 36.477 229.366 35.9722C229.366 35.4737 229.29 35.0243 229.136 34.6242C228.985 34.2211 228.756 33.9025 228.448 33.6686C228.143 33.4316 227.76 33.3132 227.298 33.3132C226.855 33.3132 226.483 33.4255 226.181 33.6502C225.879 33.8717 225.652 34.1826 225.498 34.5827C225.344 34.9797 225.267 35.4429 225.267 35.9722ZM232.118 39.5177V32.4268H233.17V33.4978H233.244C233.374 33.147 233.607 32.8623 233.946 32.6438C234.285 32.4253 234.666 32.316 235.091 32.316C235.171 32.316 235.271 32.3175 235.391 32.3206C235.511 32.3237 235.602 32.3283 235.663 32.3345V33.4424C235.626 33.4332 235.542 33.4193 235.409 33.4009C235.28 33.3793 235.143 33.3686 234.999 33.3686C234.654 33.3686 234.346 33.4409 234.075 33.5855C233.808 33.7271 233.595 33.9241 233.438 34.1764C233.284 34.4257 233.207 34.7104 233.207 35.0305V39.5177H232.118ZM239.62 39.6654C238.98 39.6654 238.418 39.5131 237.935 39.2084C237.455 38.9037 237.079 38.4775 236.808 37.9296C236.54 37.3818 236.407 36.7417 236.407 36.0092C236.407 35.2705 236.54 34.6258 236.808 34.0749C237.079 33.524 237.455 33.0962 237.935 32.7915C238.418 32.4868 238.98 32.3345 239.62 32.3345C240.26 32.3345 240.82 32.4868 241.3 32.7915C241.783 33.0962 242.159 33.524 242.426 34.0749C242.697 34.6258 242.833 35.2705 242.833 36.0092C242.833 36.7417 242.697 37.3818 242.426 37.9296C242.159 38.4775 241.783 38.9037 241.3 39.2084C240.82 39.5131 240.26 39.6654 239.62 39.6654ZM239.62 38.6867C240.106 38.6867 240.506 38.5621 240.82 38.3128C241.134 38.0635 241.366 37.7357 241.517 37.3295C241.668 36.9232 241.743 36.4831 241.743 36.0092C241.743 35.5352 241.668 35.0936 241.517 34.6842C241.366 34.2749 241.134 33.9441 240.82 33.6917C240.506 33.4393 240.106 33.3132 239.62 33.3132C239.133 33.3132 238.733 33.4393 238.419 33.6917C238.105 33.9441 237.873 34.2749 237.722 34.6842C237.571 35.0936 237.496 35.5352 237.496 36.0092C237.496 36.4831 237.571 36.9232 237.722 37.3295C237.873 37.7357 238.105 38.0635 238.419 38.3128C238.733 38.5621 239.133 38.6867 239.62 38.6867ZM247.173 39.6654C246.582 39.6654 246.061 39.5162 245.608 39.2176C245.156 38.916 244.802 38.4913 244.547 37.9435C244.291 37.3926 244.163 36.7417 244.163 35.9907C244.163 35.2459 244.291 34.5996 244.547 34.0518C244.802 33.504 245.158 33.0808 245.613 32.7823C246.068 32.4837 246.595 32.3345 247.192 32.3345C247.653 32.3345 248.018 32.4114 248.286 32.5653C248.557 32.7161 248.763 32.8884 248.905 33.0823C249.049 33.2731 249.162 33.4301 249.242 33.5532H249.334V30.0632H250.423V39.5177H249.371V38.4282H249.242C249.162 38.5575 249.048 38.7206 248.9 38.9176C248.752 39.1115 248.541 39.2853 248.267 39.4392C247.994 39.59 247.629 39.6654 247.173 39.6654ZM247.321 38.6867C247.758 38.6867 248.127 38.5729 248.429 38.3451C248.731 38.1143 248.96 37.7958 249.117 37.3895C249.274 36.9802 249.352 36.5078 249.352 35.9722C249.352 35.4429 249.275 34.9797 249.122 34.5827C248.968 34.1826 248.74 33.8717 248.438 33.6502C248.137 33.4255 247.764 33.3132 247.321 33.3132C246.859 33.3132 246.475 33.4316 246.167 33.6686C245.862 33.9025 245.633 34.2211 245.479 34.6242C245.328 35.0243 245.253 35.4737 245.253 35.9722C245.253 36.477 245.33 36.9356 245.484 37.348C245.641 37.7573 245.872 38.0835 246.176 38.3266C246.484 38.5667 246.866 38.6867 247.321 38.6867ZM257.039 36.6186V32.4268H258.128V39.5177H257.039V38.3174H256.965C256.799 38.6775 256.54 38.9837 256.189 39.2361C255.839 39.4854 255.395 39.61 254.86 39.61C254.417 39.61 254.023 39.5131 253.678 39.3192C253.333 39.1222 253.062 38.8268 252.865 38.4328C252.669 38.0358 252.57 37.5357 252.57 36.9325V32.4268H253.66V36.8586C253.66 37.3757 253.804 37.7881 254.093 38.0958C254.386 38.4036 254.758 38.5575 255.211 38.5575C255.481 38.5575 255.757 38.4882 256.037 38.3497C256.32 38.2112 256.557 37.9989 256.748 37.7127C256.942 37.4264 257.039 37.0617 257.039 36.6186ZM263.208 32.4268V33.3501H259.533V32.4268H263.208ZM260.604 30.7279H261.693V37.4865C261.693 37.7942 261.738 38.025 261.827 38.1789C261.92 38.3297 262.037 38.4313 262.178 38.4836C262.323 38.5329 262.475 38.5575 262.635 38.5575C262.755 38.5575 262.854 38.5513 262.931 38.539C263.008 38.5236 263.069 38.5113 263.115 38.5021L263.337 39.4808C263.263 39.5085 263.16 39.5362 263.028 39.5639C262.895 39.5946 262.727 39.61 262.524 39.61C262.217 39.61 261.915 39.5439 261.619 39.4115C261.327 39.2792 261.084 39.0776 260.89 38.8068C260.699 38.5359 260.604 38.1943 260.604 37.7819V30.7279ZM267.651 39.6654C267.011 39.6654 266.449 39.5131 265.966 39.2084C265.486 38.9037 265.11 38.4775 264.839 37.9296C264.572 37.3818 264.438 36.7417 264.438 36.0092C264.438 35.2705 264.572 34.6258 264.839 34.0749C265.11 33.524 265.486 33.0962 265.966 32.7915C266.449 32.4868 267.011 32.3345 267.651 32.3345C268.291 32.3345 268.851 32.4868 269.331 32.7915C269.815 33.0962 270.19 33.524 270.458 34.0749C270.729 34.6258 270.864 35.2705 270.864 36.0092C270.864 36.7417 270.729 37.3818 270.458 37.9296C270.19 38.4775 269.815 38.9037 269.331 39.2084C268.851 39.5131 268.291 39.6654 267.651 39.6654ZM267.651 38.6867C268.137 38.6867 268.537 38.5621 268.851 38.3128C269.165 38.0635 269.397 37.7357 269.548 37.3295C269.699 36.9232 269.774 36.4831 269.774 36.0092C269.774 35.5352 269.699 35.0936 269.548 34.6842C269.397 34.2749 269.165 33.9441 268.851 33.6917C268.537 33.4393 268.137 33.3132 267.651 33.3132C267.165 33.3132 266.765 33.4393 266.451 33.6917C266.137 33.9441 265.904 34.2749 265.754 34.6842C265.603 35.0936 265.527 35.5352 265.527 36.0092C265.527 36.4831 265.603 36.9232 265.754 37.3295C265.904 37.7357 266.137 38.0635 266.451 38.3128C266.765 38.5621 267.165 38.6867 267.651 38.6867ZM277.55 34.0149L276.571 34.2918C276.51 34.1287 276.419 33.9702 276.299 33.8164C276.182 33.6594 276.022 33.5301 275.819 33.4286C275.615 33.327 275.355 33.2762 275.038 33.2762C274.604 33.2762 274.243 33.3762 273.954 33.5763C273.667 33.7733 273.524 34.0241 273.524 34.3288C273.524 34.5996 273.623 34.8135 273.82 34.9705C274.017 35.1274 274.324 35.2582 274.743 35.3629L275.796 35.6214C276.43 35.7753 276.902 36.0107 277.213 36.3277C277.524 36.6416 277.679 37.0463 277.679 37.5418C277.679 37.9481 277.562 38.3113 277.328 38.6313C277.097 38.9514 276.774 39.2038 276.359 39.3884C275.943 39.5731 275.46 39.6654 274.909 39.6654C274.186 39.6654 273.587 39.5085 273.113 39.1945C272.639 38.8806 272.339 38.4221 272.213 37.8188L273.247 37.5603C273.346 37.9419 273.532 38.2282 273.806 38.419C274.083 38.6098 274.444 38.7052 274.891 38.7052C275.399 38.7052 275.802 38.5975 276.1 38.382C276.402 38.1635 276.553 37.9019 276.553 37.5972C276.553 37.351 276.466 37.1448 276.294 36.9786C276.122 36.8094 275.857 36.6832 275.5 36.6001L274.318 36.3231C273.669 36.1692 273.192 35.9307 272.887 35.6075C272.586 35.2813 272.435 34.8735 272.435 34.3842C272.435 33.9841 272.547 33.6302 272.772 33.3224C272.999 33.0146 273.309 32.773 273.7 32.5976C274.094 32.4222 274.54 32.3345 275.038 32.3345C275.74 32.3345 276.291 32.4883 276.691 32.7961C277.094 33.1039 277.381 33.5101 277.55 34.0149Z" fill="#FF0027"/>
</svg>
