<svg width="64" height="58" viewBox="0 0 64 58" fill="none" xmlns="http://www.w3.org/2000/svg">
<path d="M11.2948 23.0994C10.4976 23.0994 9.85128 23.7457 9.85128 24.543C9.85128 25.3402 10.4976 25.9865 11.2948 25.9865H26.4551C27.2524 25.9865 27.8987 25.3402 27.8987 24.543C27.8987 23.7457 27.2524 23.0994 26.4551 23.0994H11.2948Z" fill="#54000D"/>
<path d="M9.85128 30.8938C9.85128 30.0965 10.4976 29.4502 11.2948 29.4502H37.2505C38.0478 29.4502 38.6941 30.0965 38.6941 30.8938C38.6941 31.691 38.0478 32.3373 37.2505 32.3373H11.2948C10.4976 32.3373 9.85128 31.691 9.85128 30.8938Z" fill="#54000D"/>
<path d="M11.2948 35.801C10.4976 35.801 9.85128 36.4473 9.85128 37.2446C9.85128 38.0418 10.4976 38.6881 11.2948 38.6881H37.2505C38.0478 38.6881 38.6941 38.0418 38.6941 37.2446C38.6941 36.4473 38.0478 35.801 37.2505 35.801H11.2948Z" fill="#54000D"/>
<path fill-rule="evenodd" clip-rule="evenodd" d="M60.6272 4.30214C60.6272 4.03639 60.4117 3.82095 60.146 3.82095H19.0701C18.8043 3.82095 18.5889 4.03639 18.5889 4.30214V12.5629H45.1094C46.9697 12.5629 48.4777 14.0709 48.4777 15.9312V44.6467C48.4777 46.507 46.9697 48.015 45.1094 48.015H27.3892C27.2615 48.015 27.1391 48.0657 27.0489 48.1559L19.1322 56.0726C17.0103 58.1945 13.3821 56.6917 13.3821 53.6909V48.4962C13.3821 48.2304 13.1667 48.015 12.901 48.015H4.03346C2.1732 48.015 0.665161 46.507 0.665161 44.6467V15.9312C0.665161 14.0709 2.1732 12.5629 4.03346 12.5629H15.7018V4.30214C15.7018 2.44188 17.2098 0.933838 19.0701 0.933838H60.146C62.0063 0.933838 63.5143 2.44188 63.5143 4.30214V33.0176C63.5143 34.8779 62.0063 36.3859 60.146 36.3859H57.0527C56.787 36.3859 56.5715 36.6014 56.5715 36.8671V42.0618C56.5715 45.0627 52.9434 46.5655 50.8215 44.4436L48.4777 42.0998V38.0168L52.863 42.4021C53.1661 42.7052 53.6844 42.4905 53.6844 42.0618V36.8671C53.6844 35.0069 55.1925 33.4988 57.0527 33.4988H60.146C60.4117 33.4988 60.6272 33.2834 60.6272 33.0176V4.30214ZM4.03346 15.45C3.76771 15.45 3.55228 15.6654 3.55228 15.9312V44.6467C3.55228 44.9124 3.76771 45.1279 4.03346 45.1279H12.901C14.7612 45.1279 16.2693 46.6359 16.2693 48.4962V53.6909C16.2693 54.1196 16.7876 54.3343 17.0907 54.0311L25.0074 46.1144C25.6391 45.4828 26.4958 45.1279 27.3892 45.1279H45.1094C45.3752 45.1279 45.5906 44.9124 45.5906 44.6467V15.9312C45.5906 15.6654 45.3752 15.45 45.1094 15.45H4.03346Z" fill="#54000D"/>
</svg>
