<svg width="253" height="44" viewBox="0 0 253 44" fill="none" xmlns="http://www.w3.org/2000/svg">
<path fill-rule="evenodd" clip-rule="evenodd" d="M49.6745 9.74057C48.2102 9.74057 47.0232 10.9276 47.0232 12.3919V17.4456C47.0232 18.9099 48.2102 20.0969 49.6745 20.0969H59.4823C61.4182 20.0969 62.7014 18.0895 61.8886 16.3325L59.5509 11.2788C59.117 10.3409 58.1779 9.74057 57.1446 9.74057H49.6745ZM49.2958 12.3919C49.2958 12.1827 49.4653 12.0131 49.6745 12.0131H57.1446C57.2922 12.0131 57.4263 12.0989 57.4883 12.2329L59.8261 17.2866C59.9422 17.5376 59.7589 17.8244 59.4823 17.8244H49.6745C49.4653 17.8244 49.2958 17.6548 49.2958 17.4456V12.3919Z" fill="#990018"/>
<path fill-rule="evenodd" clip-rule="evenodd" d="M12.806 40.146C14.8857 40.146 16.5715 38.4601 16.5715 36.3805C16.5715 34.3009 14.8857 32.615 12.806 32.615C10.7264 32.615 9.0405 34.3009 9.0405 36.3805C9.0405 38.4601 10.7264 40.146 12.806 40.146ZM12.806 37.8735C13.6306 37.8735 14.299 37.205 14.299 36.3805C14.299 35.556 13.6306 34.8875 12.806 34.8875C11.9815 34.8875 11.3131 35.556 11.3131 36.3805C11.3131 37.205 11.9815 37.8735 12.806 37.8735Z" fill="#990018"/>
<path fill-rule="evenodd" clip-rule="evenodd" d="M50.6353 40.146C52.7149 40.146 54.4008 38.4601 54.4008 36.3805C54.4008 34.3009 52.7149 32.615 50.6353 32.615C48.5556 32.615 46.8697 34.3009 46.8697 36.3805C46.8697 38.4601 48.5556 40.146 50.6353 40.146ZM50.6353 37.8735C51.4598 37.8735 52.1282 37.205 52.1282 36.3805C52.1282 35.556 51.4598 34.8875 50.6353 34.8875C49.8107 34.8875 49.1423 35.556 49.1423 36.3805C49.1423 37.205 49.8107 37.8735 50.6353 37.8735Z" fill="#990018"/>
<path fill-rule="evenodd" clip-rule="evenodd" d="M45.0839 6.33108V1.71579C45.0839 0.879053 44.4056 0.200745 43.5689 0.200745H2.42806C1.59133 0.200745 0.913025 0.879051 0.913025 1.71578V34.8034C0.913025 35.6401 1.59133 36.3184 2.42806 36.3184H5.27507C5.2749 36.3391 5.27482 36.3598 5.27482 36.3805C5.27482 40.5399 8.64665 43.9117 12.806 43.9117C16.9654 43.9117 20.3372 40.5399 20.3372 36.3805C20.3372 36.3598 20.3371 36.3391 20.337 36.3184H43.1043C43.1041 36.3391 43.1041 36.3598 43.1041 36.3805C43.1041 40.5399 46.4759 43.9117 50.6353 43.9117C54.7946 43.9117 58.1665 40.5399 58.1665 36.3805C58.1665 36.3533 58.1663 36.3262 58.166 36.2991C58.1659 36.2875 58.1658 36.276 58.1656 36.2645H64.5168C65.9811 36.2645 67.1681 35.0774 67.1681 33.6132V19.0968C67.1681 18.6869 67.0731 18.2826 66.8905 17.9157L61.858 7.80133C61.4098 6.90056 60.4904 6.33108 59.4843 6.33108H45.0839ZM3.56434 2.4733C3.35516 2.4733 3.18558 2.64288 3.18558 2.85206V29.004H11.2797C11.7726 28.9026 12.2831 28.8493 12.806 28.8493C13.3289 28.8493 13.8394 28.9026 14.3323 29.004H42.8114V8.09287C42.6929 7.91347 42.6239 7.69847 42.6239 7.46736C42.6239 7.23626 42.6929 7.02126 42.8114 6.84186V2.85206C42.8114 2.64288 42.6418 2.4733 42.4326 2.4733H3.56434ZM45.0839 8.60364V31.2911C46.4607 29.7902 48.4381 28.8493 50.6353 28.8493C53.9597 28.8493 56.7811 31.0034 57.7798 33.9919H64.5168C64.726 33.9919 64.8955 33.8223 64.8955 33.6132V28.4408H62.5661C61.1018 28.4408 59.9148 27.2537 59.9148 25.7894V25.0249C59.9148 23.5607 61.1018 22.3736 62.5661 22.3736H64.8955V19.0968C64.8955 19.0382 64.882 18.9804 64.8559 18.928L59.8234 8.81368C59.7593 8.685 59.628 8.60364 59.4843 8.60364H45.0839ZM19.9684 34.0459H42.4326C42.6418 34.0459 42.8114 33.8763 42.8114 33.6671V31.2766H18.344C19.0694 32.0632 19.6292 33.0047 19.9684 34.0459ZM5.64368 34.0459C5.98283 33.0047 6.54267 32.0632 7.26798 31.2766H3.18558V33.6671C3.18558 33.8763 3.35516 34.0459 3.56434 34.0459H5.64368ZM64.8955 24.6462V26.1682H62.5661C62.3569 26.1682 62.1874 25.9986 62.1874 25.7894V25.0249C62.1874 24.8158 62.3569 24.6462 62.5661 24.6462H64.8955ZM11.5345 31.2766C9.24458 31.8452 7.54738 33.9147 7.54738 36.3805C7.54738 39.2848 9.90175 41.6391 12.806 41.6391C15.7103 41.6391 18.0647 39.2848 18.0647 36.3805C18.0647 33.9147 16.3675 31.8452 14.0775 31.2766H11.5345ZM55.8939 36.3805C55.8939 39.2848 53.5395 41.6391 50.6353 41.6391C47.731 41.6391 45.3766 39.2848 45.3766 36.3805C45.3766 33.4762 47.731 31.1219 50.6353 31.1219C53.5395 31.1219 55.8939 33.4762 55.8939 36.3805Z" fill="#990018"/>
<path d="M77.0024 21.1844V8.70644H85.776V11.436H80.39V13.5806H85.2398V16.3102H80.39V21.1844H77.0024ZM87.0219 21.1844V8.70644H92.4079C93.334 8.70644 94.1444 8.875 94.8389 9.21214C95.5335 9.54927 96.0737 10.0347 96.4596 10.6683C96.8455 11.3019 97.0384 12.0615 97.0384 12.947C97.0384 13.8406 96.8394 14.5941 96.4413 15.2074C96.0473 15.8207 95.4929 16.2838 94.778 16.5965C94.0672 16.9093 93.2366 17.0657 92.2861 17.0657H89.0691V14.4336H91.6037C92.0018 14.4336 92.3409 14.3849 92.6212 14.2874C92.9055 14.1859 93.1228 14.0254 93.2731 13.8061C93.4275 13.5867 93.5046 13.3004 93.5046 12.947C93.5046 12.5896 93.4275 12.2991 93.2731 12.0757C93.1228 11.8483 92.9055 11.6817 92.6212 11.5761C92.3409 11.4665 92.0018 11.4116 91.6037 11.4116H90.4095V21.1844H87.0219ZM94.3332 15.4572L97.4527 21.1844H93.7727L90.7263 15.4572H94.3332ZM98.4824 21.1844V8.70644H107.475V11.436H101.87V13.5806H107.012V16.3102H101.87V18.4548H107.451V21.1844H98.4824ZM108.814 11.436V8.70644H119.659V11.436H115.906V21.1844H112.567V11.436H108.814ZM120.934 21.1844V8.70644H129.927V11.436H124.322V13.5806H129.464V16.3102H124.322V18.4548H129.903V21.1844H120.934ZM143.129 12.8251C143.076 12.6099 142.992 12.421 142.879 12.2585C142.765 12.092 142.623 11.9518 142.452 11.8381C142.286 11.7203 142.091 11.633 141.867 11.5761C141.648 11.5152 141.406 11.4847 141.142 11.4847C140.574 11.4847 140.088 11.6208 139.686 11.8929C139.288 12.1651 138.983 12.5571 138.772 13.0688C138.565 13.5806 138.462 14.198 138.462 14.921C138.462 15.6522 138.561 16.2777 138.76 16.7976C138.959 17.3175 139.256 17.7156 139.65 17.9918C140.044 18.268 140.533 18.4061 141.118 18.4061C141.634 18.4061 142.062 18.3309 142.404 18.1807C142.749 18.0304 143.007 17.8171 143.177 17.5409C143.348 17.2647 143.433 16.9398 143.433 16.5661L144.018 16.627H141.167V14.2143H146.699V15.9446C146.699 17.0819 146.457 18.0547 145.974 18.8631C145.495 19.6673 144.832 20.2847 143.988 20.7152C143.147 21.1417 142.182 21.355 141.094 21.355C139.879 21.355 138.813 21.0971 137.895 20.5812C136.977 20.0654 136.26 19.3302 135.744 18.3756C135.232 17.4211 134.976 16.2858 134.976 14.9698C134.976 13.9381 135.133 13.0242 135.446 12.228C135.762 11.4319 136.201 10.7597 136.762 10.2113C137.322 9.65894 137.97 9.2426 138.705 8.96233C139.44 8.67801 140.228 8.53584 141.069 8.53584C141.808 8.53584 142.495 8.64145 143.129 8.85266C143.766 9.05982 144.329 9.35633 144.816 9.74221C145.308 10.124 145.704 10.5769 146.004 11.1009C146.305 11.6249 146.488 12.1996 146.553 12.8251H143.129ZM148.278 21.1844V8.70644H153.664C154.591 8.70644 155.401 8.875 156.095 9.21214C156.79 9.54927 157.33 10.0347 157.716 10.6683C158.102 11.3019 158.295 12.0615 158.295 12.947C158.295 13.8406 158.096 14.5941 157.698 15.2074C157.304 15.8207 156.749 16.2838 156.035 16.5965C155.324 16.9093 154.493 17.0657 153.543 17.0657H150.326V14.4336H152.86C153.258 14.4336 153.597 14.3849 153.878 14.2874C154.162 14.1859 154.379 14.0254 154.53 13.8061C154.684 13.5867 154.761 13.3004 154.761 12.947C154.761 12.5896 154.684 12.2991 154.53 12.0757C154.379 11.8483 154.162 11.6817 153.878 11.5761C153.597 11.4665 153.258 11.4116 152.86 11.4116H151.666V21.1844H148.278ZM155.59 15.4572L158.709 21.1844H155.029L151.983 15.4572H155.59ZM162.98 21.1844H159.325L163.443 8.70644H168.074L172.192 21.1844H168.537L165.807 12.1427H165.71L162.98 21.1844ZM162.298 16.2614H169.17V18.796H162.298V16.2614ZM164.637 7.53663L165.807 4.80708H168.683L166.855 7.53663H164.637ZM171.478 11.436V8.70644H182.323V11.436H178.57V21.1844H175.231V11.436H171.478ZM186.986 8.70644V21.1844H183.598V8.70644H186.986ZM195.318 12.6058C195.285 12.1996 195.133 11.8828 194.861 11.6553C194.592 11.4279 194.184 11.3141 193.636 11.3141C193.287 11.3141 193 11.3568 192.777 11.4421C192.557 11.5233 192.395 11.635 192.289 11.7772C192.184 11.9193 192.129 12.0818 192.125 12.2646C192.117 12.4149 192.143 12.551 192.204 12.6728C192.269 12.7906 192.371 12.8982 192.509 12.9957C192.647 13.0892 192.824 13.1745 193.039 13.2516C193.254 13.3288 193.51 13.3979 193.807 13.4588L194.83 13.6781C195.521 13.8243 196.112 14.0173 196.603 14.2569C197.095 14.4966 197.497 14.7789 197.809 15.1038C198.122 15.4247 198.352 15.7862 198.498 16.1883C198.648 16.5905 198.725 17.0291 198.729 17.5044C198.725 18.3249 198.52 19.0194 198.114 19.5881C197.708 20.1567 197.127 20.5893 196.372 20.8858C195.62 21.1824 194.716 21.3306 193.66 21.3306C192.576 21.3306 191.629 21.1702 190.821 20.8493C190.017 20.5284 189.391 20.0349 188.944 19.3687C188.502 18.6985 188.278 17.8415 188.274 16.7976H191.491C191.512 17.1794 191.607 17.5003 191.778 17.7603C191.948 18.0202 192.188 18.2172 192.497 18.3513C192.809 18.4853 193.181 18.5523 193.612 18.5523C193.973 18.5523 194.276 18.5076 194.519 18.4183C194.763 18.3289 194.948 18.205 195.074 18.0466C195.2 17.8882 195.265 17.7075 195.269 17.5044C195.265 17.3135 195.202 17.1469 195.08 17.0048C194.962 16.8585 194.767 16.7286 194.495 16.6148C194.223 16.497 193.855 16.3874 193.392 16.2858L192.149 16.0177C191.044 15.7781 190.173 15.378 189.535 14.8175C188.902 14.2529 188.587 13.4832 188.591 12.5083C188.587 11.7163 188.798 11.0237 189.225 10.4307C189.655 9.8336 190.25 9.36852 191.01 9.03545C191.774 8.70238 192.649 8.53584 193.636 8.53584C194.643 8.53584 195.515 8.70441 196.25 9.04154C196.985 9.37867 197.552 9.85391 197.95 10.4672C198.352 11.0765 198.555 11.7894 198.559 12.6058H195.318Z" fill="white"/>
<path d="M80.0761 37.579C79.4113 37.579 78.8388 37.422 78.3587 37.1081C77.8786 36.7942 77.5093 36.3618 77.2508 35.8109C76.9922 35.26 76.863 34.6306 76.863 33.9228C76.863 33.2026 76.9953 32.567 77.26 32.0161C77.5278 31.4622 77.9002 31.0298 78.3772 30.7189C78.8573 30.405 79.4174 30.248 80.0576 30.248C80.5562 30.248 81.0055 30.3404 81.4056 30.525C81.8057 30.7097 82.1335 30.9682 82.3889 31.3006C82.6444 31.633 82.8029 32.0208 82.8644 32.4639H81.7749C81.6918 32.1408 81.5072 31.8546 81.2209 31.6053C80.9378 31.3529 80.5562 31.2267 80.0761 31.2267C79.6513 31.2267 79.2789 31.3375 78.9589 31.5591C78.6419 31.7776 78.3941 32.0869 78.2156 32.487C78.0402 32.884 77.9525 33.3503 77.9525 33.8858C77.9525 34.4336 78.0386 34.9107 78.211 35.3169C78.3864 35.7232 78.6326 36.0386 78.9496 36.2633C79.2697 36.488 79.6452 36.6003 80.0761 36.6003C80.3592 36.6003 80.6162 36.5511 80.847 36.4526C81.0778 36.3541 81.2733 36.2125 81.4333 36.0279C81.5933 35.8432 81.7072 35.6216 81.7749 35.3631H82.8644C82.8029 35.7817 82.6505 36.1587 82.4074 36.4941C82.1673 36.8265 81.8488 37.0912 81.4518 37.2882C81.0578 37.4821 80.5993 37.579 80.0761 37.579ZM87.3378 37.579C86.6976 37.579 86.1359 37.4267 85.6528 37.122C85.1726 36.8173 84.7972 36.391 84.5263 35.8432C84.2586 35.2954 84.1247 34.6552 84.1247 33.9228C84.1247 33.1841 84.2586 32.5393 84.5263 31.9884C84.7972 31.4375 85.1726 31.0098 85.6528 30.7051C86.1359 30.4004 86.6976 30.248 87.3378 30.248C87.9779 30.248 88.5381 30.4004 89.0182 30.7051C89.5014 31.0098 89.8768 31.4375 90.1446 31.9884C90.4154 32.5393 90.5508 33.1841 90.5508 33.9228C90.5508 34.6552 90.4154 35.2954 90.1446 35.8432C89.8768 36.391 89.5014 36.8173 89.0182 37.122C88.5381 37.4267 87.9779 37.579 87.3378 37.579ZM87.3378 36.6003C87.824 36.6003 88.2241 36.4757 88.5381 36.2264C88.852 35.9771 89.0843 35.6493 89.2351 35.2431C89.3859 34.8368 89.4614 34.3967 89.4614 33.9228C89.4614 33.4488 89.3859 33.0072 89.2351 32.5978C89.0843 32.1885 88.852 31.8576 88.5381 31.6053C88.2241 31.3529 87.824 31.2267 87.3378 31.2267C86.8515 31.2267 86.4514 31.3529 86.1375 31.6053C85.8236 31.8576 85.5912 32.1885 85.4404 32.5978C85.2896 33.0072 85.2142 33.4488 85.2142 33.9228C85.2142 34.3967 85.2896 34.8368 85.4404 35.2431C85.5912 35.6493 85.8236 35.9771 86.1375 36.2264C86.4514 36.4757 86.8515 36.6003 87.3378 36.6003ZM92.2139 37.4313V30.3404H93.2665V31.4483H93.3588C93.5065 31.0698 93.7451 30.7759 94.0744 30.5666C94.4037 30.3542 94.7992 30.248 95.2608 30.248C95.7286 30.248 96.1179 30.3542 96.4288 30.5666C96.7427 30.7759 96.9874 31.0698 97.1628 31.4483H97.2367C97.4182 31.0821 97.6906 30.7912 98.0538 30.5758C98.4169 30.3573 98.8524 30.248 99.3602 30.248C99.9942 30.248 100.513 30.4465 100.916 30.8436C101.319 31.2375 101.521 31.8515 101.521 32.6855V37.4313H100.431V32.6855C100.431 32.1623 100.288 31.7884 100.002 31.5637C99.7157 31.3391 99.3787 31.2267 98.9909 31.2267C98.4923 31.2267 98.1061 31.3775 97.8322 31.6791C97.5583 31.9777 97.4213 32.3562 97.4213 32.8148V37.4313H96.3134V32.5747C96.3134 32.1716 96.1826 31.8469 95.921 31.6007C95.6594 31.3514 95.3224 31.2267 94.9099 31.2267C94.6268 31.2267 94.3621 31.3021 94.1159 31.4529C93.8728 31.6037 93.6758 31.813 93.525 32.0808C93.3773 32.3455 93.3034 32.6517 93.3034 32.9995V37.4313H92.2139ZM103.513 40.0904V30.3404H104.565V31.4668H104.695C104.775 31.3437 104.885 31.1867 105.027 30.9959C105.172 30.802 105.378 30.6297 105.646 30.4789C105.916 30.325 106.283 30.248 106.744 30.248C107.341 30.248 107.868 30.3973 108.323 30.6958C108.779 30.9944 109.134 31.4175 109.39 31.9654C109.645 32.5132 109.773 33.1595 109.773 33.9043C109.773 34.6552 109.645 35.3062 109.39 35.8571C109.134 36.4049 108.78 36.8296 108.328 37.1312C107.875 37.4297 107.354 37.579 106.763 37.579C106.307 37.579 105.943 37.5036 105.669 37.3528C105.395 37.1989 105.184 37.025 105.036 36.8311C104.888 36.6342 104.775 36.471 104.695 36.3418H104.602V40.0904H103.513ZM104.584 33.8858C104.584 34.4213 104.662 34.8938 104.819 35.3031C104.976 35.7093 105.205 36.0279 105.507 36.2587C105.809 36.4864 106.178 36.6003 106.615 36.6003C107.071 36.6003 107.451 36.4803 107.755 36.2402C108.063 35.9971 108.294 35.6709 108.448 35.2615C108.605 34.8491 108.683 34.3906 108.683 33.8858C108.683 33.3872 108.606 32.9379 108.452 32.5378C108.302 32.1346 108.072 31.8161 107.765 31.5822C107.46 31.3452 107.077 31.2267 106.615 31.2267C106.172 31.2267 105.799 31.3391 105.498 31.5637C105.196 31.7853 104.968 32.0962 104.815 32.4963C104.661 32.8933 104.584 33.3565 104.584 33.8858ZM111.435 37.4313V30.3404H112.487V31.4114H112.561C112.69 31.0605 112.924 30.7759 113.263 30.5573C113.601 30.3388 113.983 30.2296 114.408 30.2296C114.488 30.2296 114.588 30.2311 114.708 30.2342C114.828 30.2373 114.919 30.2419 114.98 30.248V31.356C114.943 31.3468 114.859 31.3329 114.726 31.3144C114.597 31.2929 114.46 31.2821 114.315 31.2821C113.971 31.2821 113.663 31.3545 113.392 31.4991C113.124 31.6407 112.912 31.8376 112.755 32.09C112.601 32.3393 112.524 32.624 112.524 32.9441V37.4313H111.435ZM118.358 37.5975C117.909 37.5975 117.501 37.5128 117.135 37.3436C116.769 37.1712 116.478 36.9235 116.262 36.6003C116.047 36.2741 115.939 35.8801 115.939 35.4185C115.939 35.0122 116.019 34.6829 116.179 34.4306C116.339 34.1751 116.553 33.9751 116.821 33.8304C117.089 33.6858 117.384 33.5781 117.707 33.5073C118.033 33.4334 118.361 33.3749 118.691 33.3318C119.121 33.2764 119.471 33.2349 119.739 33.2072C120.009 33.1764 120.206 33.1256 120.329 33.0549C120.456 32.9841 120.519 32.861 120.519 32.6855V32.6486C120.519 32.1931 120.394 31.8392 120.145 31.5868C119.899 31.3344 119.525 31.2083 119.023 31.2083C118.503 31.2083 118.095 31.3221 117.8 31.5499C117.504 31.7776 117.296 32.0208 117.176 32.2793L116.142 31.91C116.327 31.4791 116.573 31.1436 116.881 30.9036C117.192 30.6604 117.53 30.4912 117.897 30.3958C118.266 30.2973 118.629 30.248 118.986 30.248C119.214 30.248 119.475 30.2757 119.771 30.3311C120.069 30.3835 120.357 30.4927 120.634 30.6589C120.914 30.8251 121.147 31.0759 121.331 31.4114C121.516 31.7469 121.608 32.1962 121.608 32.7594V37.4313H120.519V36.471H120.463C120.389 36.6249 120.266 36.7896 120.094 36.965C119.922 37.1404 119.692 37.2897 119.406 37.4128C119.12 37.5359 118.771 37.5975 118.358 37.5975ZM118.524 36.6188C118.955 36.6188 119.318 36.5341 119.614 36.3649C119.912 36.1956 120.137 35.9771 120.288 35.7093C120.442 35.4416 120.519 35.16 120.519 34.8645V33.8674C120.473 33.9228 120.371 33.9735 120.214 34.0197C120.06 34.0628 119.882 34.1013 119.679 34.1351C119.478 34.1659 119.283 34.1936 119.092 34.2182C118.904 34.2397 118.752 34.2582 118.635 34.2736C118.352 34.3105 118.087 34.3705 117.841 34.4536C117.598 34.5337 117.401 34.6552 117.25 34.8183C117.103 34.9784 117.029 35.1969 117.029 35.4739C117.029 35.8524 117.169 36.1387 117.449 36.3326C117.732 36.5234 118.09 36.6188 118.524 36.6188ZM128.619 31.9284L127.641 32.2054C127.579 32.0423 127.488 31.8838 127.368 31.7299C127.251 31.573 127.091 31.4437 126.888 31.3421C126.685 31.2406 126.425 31.1898 126.108 31.1898C125.674 31.1898 125.313 31.2898 125.023 31.4899C124.737 31.6868 124.594 31.9377 124.594 32.2424C124.594 32.5132 124.692 32.7271 124.889 32.884C125.086 33.041 125.394 33.1718 125.813 33.2764L126.865 33.535C127.499 33.6888 127.972 33.9243 128.282 34.2413C128.593 34.5552 128.749 34.9599 128.749 35.4554C128.749 35.8617 128.632 36.2248 128.398 36.5449C128.167 36.865 127.844 37.1174 127.428 37.302C127.013 37.4867 126.53 37.579 125.979 37.579C125.256 37.579 124.657 37.422 124.183 37.1081C123.709 36.7942 123.409 36.3356 123.283 35.7324L124.317 35.4739C124.415 35.8555 124.602 36.1417 124.876 36.3326C125.152 36.5234 125.514 36.6188 125.96 36.6188C126.468 36.6188 126.871 36.5111 127.17 36.2956C127.472 36.0771 127.622 35.8155 127.622 35.5108C127.622 35.2646 127.536 35.0584 127.364 34.8922C127.191 34.7229 126.927 34.5968 126.57 34.5137L125.388 34.2367C124.739 34.0828 124.262 33.8443 123.957 33.5211C123.655 33.1949 123.504 32.7871 123.504 32.2978C123.504 31.8977 123.617 31.5437 123.841 31.236C124.069 30.9282 124.378 30.6866 124.769 30.5112C125.163 30.3357 125.61 30.248 126.108 30.248C126.81 30.248 127.361 30.4019 127.761 30.7097C128.164 31.0174 128.45 31.4237 128.619 31.9284ZM136.132 37.5975C135.682 37.5975 135.275 37.5128 134.908 37.3436C134.542 37.1712 134.251 36.9235 134.036 36.6003C133.82 36.2741 133.713 35.8801 133.713 35.4185C133.713 35.0122 133.793 34.6829 133.953 34.4306C134.113 34.1751 134.327 33.9751 134.594 33.8304C134.862 33.6858 135.158 33.5781 135.481 33.5073C135.807 33.4334 136.135 33.3749 136.464 33.3318C136.895 33.2764 137.244 33.2349 137.512 33.2072C137.783 33.1764 137.98 33.1256 138.103 33.0549C138.229 32.9841 138.292 32.861 138.292 32.6855V32.6486C138.292 32.1931 138.167 31.8392 137.918 31.5868C137.672 31.3344 137.298 31.2083 136.796 31.2083C136.276 31.2083 135.868 31.3221 135.573 31.5499C135.278 31.7776 135.07 32.0208 134.95 32.2793L133.916 31.91C134.1 31.4791 134.347 31.1436 134.654 30.9036C134.965 30.6604 135.304 30.4912 135.67 30.3958C136.039 30.2973 136.402 30.248 136.759 30.248C136.987 30.248 137.249 30.2757 137.544 30.3311C137.843 30.3835 138.131 30.4927 138.408 30.6589C138.688 30.8251 138.92 31.0759 139.105 31.4114C139.289 31.7469 139.382 32.1962 139.382 32.7594V37.4313H138.292V36.471H138.237C138.163 36.6249 138.04 36.7896 137.867 36.965C137.695 37.1404 137.466 37.2897 137.18 37.4128C136.893 37.5359 136.544 37.5975 136.132 37.5975ZM136.298 36.6188C136.729 36.6188 137.092 36.5341 137.387 36.3649C137.686 36.1956 137.911 35.9771 138.061 35.7093C138.215 35.4416 138.292 35.16 138.292 34.8645V33.8674C138.246 33.9228 138.144 33.9735 137.987 34.0197C137.834 34.0628 137.655 34.1013 137.452 34.1351C137.252 34.1659 137.056 34.1936 136.866 34.2182C136.678 34.2397 136.526 34.2582 136.409 34.2736C136.125 34.3105 135.861 34.3705 135.615 34.4536C135.371 34.5337 135.174 34.6552 135.024 34.8183C134.876 34.9784 134.802 35.1969 134.802 35.4739C134.802 35.8524 134.942 36.1387 135.222 36.3326C135.505 36.5234 135.864 36.6188 136.298 36.6188ZM144.251 37.579C143.586 37.579 143.014 37.422 142.534 37.1081C142.053 36.7942 141.684 36.3618 141.426 35.8109C141.167 35.26 141.038 34.6306 141.038 33.9228C141.038 33.2026 141.17 32.567 141.435 32.0161C141.703 31.4622 142.075 31.0298 142.552 30.7189C143.032 30.405 143.592 30.248 144.232 30.248C144.731 30.248 145.18 30.3404 145.58 30.525C145.98 30.7097 146.308 30.9682 146.564 31.3006C146.819 31.633 146.978 32.0208 147.039 32.4639H145.95C145.867 32.1408 145.682 31.8546 145.396 31.6053C145.113 31.3529 144.731 31.2267 144.251 31.2267C143.826 31.2267 143.454 31.3375 143.134 31.5591C142.817 31.7776 142.569 32.0869 142.39 32.487C142.215 32.884 142.127 33.3503 142.127 33.8858C142.127 34.4336 142.213 34.9107 142.386 35.3169C142.561 35.7232 142.807 36.0386 143.124 36.2633C143.445 36.488 143.82 36.6003 144.251 36.6003C144.534 36.6003 144.791 36.5511 145.022 36.4526C145.253 36.3541 145.448 36.2125 145.608 36.0279C145.768 35.8432 145.882 35.6216 145.95 35.3631H147.039C146.978 35.7817 146.825 36.1587 146.582 36.4941C146.342 36.8265 146.024 37.0912 145.627 37.2882C145.233 37.4821 144.774 37.579 144.251 37.579ZM148.632 37.4313V30.3404H149.721V37.4313H148.632ZM149.186 29.1585C148.974 29.1585 148.79 29.0862 148.637 28.9416C148.486 28.7969 148.41 28.623 148.41 28.4199C148.41 28.2168 148.486 28.0429 148.637 27.8982C148.79 27.7536 148.974 27.6813 149.186 27.6813C149.398 27.6813 149.58 27.7536 149.731 27.8982C149.884 28.0429 149.961 28.2168 149.961 28.4199C149.961 28.623 149.884 28.7969 149.731 28.9416C149.58 29.0862 149.398 29.1585 149.186 29.1585ZM151.717 37.4313V30.3404H152.769V31.4483H152.862C153.009 31.0698 153.248 30.7759 153.577 30.5666C153.907 30.3542 154.302 30.248 154.764 30.248C155.232 30.248 155.621 30.3542 155.932 30.5666C156.246 30.7759 156.49 31.0698 156.666 31.4483H156.74C156.921 31.0821 157.194 30.7912 157.557 30.5758C157.92 30.3573 158.355 30.248 158.863 30.248C159.497 30.248 160.016 30.4465 160.419 30.8436C160.822 31.2375 161.024 31.8515 161.024 32.6855V37.4313H159.934V32.6855C159.934 32.1623 159.791 31.7884 159.505 31.5637C159.219 31.3391 158.882 31.2267 158.494 31.2267C157.995 31.2267 157.609 31.3775 157.335 31.6791C157.061 31.9777 156.924 32.3562 156.924 32.8148V37.4313H155.816V32.5747C155.816 32.1716 155.685 31.8469 155.424 31.6007C155.162 31.3514 154.825 31.2267 154.413 31.2267C154.13 31.2267 153.865 31.3021 153.619 31.4529C153.376 31.6037 153.179 31.813 153.028 32.0808C152.88 32.3455 152.806 32.6517 152.806 32.9995V37.4313H151.717ZM165.102 37.5975C164.653 37.5975 164.245 37.5128 163.879 37.3436C163.513 37.1712 163.222 36.9235 163.006 36.6003C162.791 36.2741 162.683 35.8801 162.683 35.4185C162.683 35.0122 162.763 34.6829 162.923 34.4306C163.083 34.1751 163.297 33.9751 163.565 33.8304C163.833 33.6858 164.128 33.5781 164.451 33.5073C164.778 33.4334 165.105 33.3749 165.435 33.3318C165.866 33.2764 166.215 33.2349 166.483 33.2072C166.753 33.1764 166.95 33.1256 167.074 33.0549C167.2 32.9841 167.263 32.861 167.263 32.6855V32.6486C167.263 32.1931 167.138 31.8392 166.889 31.5868C166.643 31.3344 166.269 31.2083 165.767 31.2083C165.247 31.2083 164.839 31.3221 164.544 31.5499C164.248 31.7776 164.041 32.0208 163.921 32.2793L162.886 31.91C163.071 31.4791 163.317 31.1436 163.625 30.9036C163.936 30.6604 164.274 30.4912 164.641 30.3958C165.01 30.2973 165.373 30.248 165.73 30.248C165.958 30.248 166.22 30.2757 166.515 30.3311C166.814 30.3835 167.101 30.4927 167.378 30.6589C167.658 30.8251 167.891 31.0759 168.075 31.4114C168.26 31.7469 168.352 32.1962 168.352 32.7594V37.4313H167.263V36.471H167.207C167.134 36.6249 167.01 36.7896 166.838 36.965C166.666 37.1404 166.436 37.2897 166.15 37.4128C165.864 37.5359 165.515 37.5975 165.102 37.5975ZM165.269 36.6188C165.699 36.6188 166.063 36.5341 166.358 36.3649C166.657 36.1956 166.881 35.9771 167.032 35.7093C167.186 35.4416 167.263 35.16 167.263 34.8645V33.8674C167.217 33.9228 167.115 33.9735 166.958 34.0197C166.804 34.0628 166.626 34.1013 166.423 34.1351C166.223 34.1659 166.027 34.1936 165.836 34.2182C165.649 34.2397 165.496 34.2582 165.379 34.2736C165.096 34.3105 164.831 34.3705 164.585 34.4536C164.342 34.5337 164.145 34.6552 163.994 34.8183C163.847 34.9784 163.773 35.1969 163.773 35.4739C163.773 35.8524 163.913 36.1387 164.193 36.3326C164.476 36.5234 164.835 36.6188 165.269 36.6188ZM176.675 37.579C176.084 37.579 175.562 37.4297 175.11 37.1312C174.657 36.8296 174.303 36.4049 174.048 35.8571C173.792 35.3062 173.665 34.6552 173.665 33.9043C173.665 33.1595 173.792 32.5132 174.048 31.9654C174.303 31.4175 174.659 30.9944 175.114 30.6958C175.57 30.3973 176.096 30.248 176.693 30.248C177.155 30.248 177.52 30.325 177.787 30.4789C178.058 30.6297 178.264 30.802 178.406 30.9959C178.551 31.1867 178.663 31.3437 178.743 31.4668H178.835V27.9767H179.925V37.4313H178.872V36.3418H178.743C178.663 36.471 178.549 36.6342 178.401 36.8311C178.254 37.025 178.043 37.1989 177.769 37.3528C177.495 37.5036 177.13 37.579 176.675 37.579ZM176.822 36.6003C177.259 36.6003 177.629 36.4864 177.93 36.2587C178.232 36.0279 178.461 35.7093 178.618 35.3031C178.775 34.8938 178.854 34.4213 178.854 33.8858C178.854 33.3565 178.777 32.8933 178.623 32.4963C178.469 32.0962 178.241 31.7853 177.94 31.5637C177.638 31.3391 177.266 31.2267 176.822 31.2267C176.361 31.2267 175.976 31.3452 175.668 31.5822C175.364 31.8161 175.134 32.1346 174.98 32.5378C174.83 32.9379 174.754 33.3872 174.754 33.8858C174.754 34.3906 174.831 34.8491 174.985 35.2615C175.142 35.6709 175.373 35.9971 175.678 36.2402C175.985 36.4803 176.367 36.6003 176.822 36.6003ZM185.044 37.579C184.361 37.579 183.772 37.4282 183.276 37.1266C182.784 36.8219 182.404 36.3972 182.136 35.8524C181.871 35.3046 181.739 34.6675 181.739 33.9412C181.739 33.2149 181.871 32.5747 182.136 32.0208C182.404 31.4637 182.776 31.0298 183.253 30.7189C183.733 30.405 184.293 30.248 184.934 30.248C185.303 30.248 185.668 30.3096 186.028 30.4327C186.388 30.5558 186.716 30.7558 187.011 31.0328C187.306 31.3067 187.542 31.6699 187.717 32.1223C187.893 32.5747 187.98 33.1318 187.98 33.7935V34.2551H182.515V33.3134H186.872C186.872 32.9133 186.792 32.5563 186.632 32.2424C186.475 31.9284 186.251 31.6807 185.958 31.4991C185.669 31.3175 185.328 31.2267 184.934 31.2267C184.5 31.2267 184.124 31.3344 183.807 31.5499C183.493 31.7622 183.252 32.0392 183.082 32.3808C182.913 32.7225 182.828 33.0887 182.828 33.4796V34.1074C182.828 34.6429 182.921 35.0969 183.105 35.4693C183.293 35.8386 183.553 36.1202 183.886 36.3141C184.218 36.5049 184.604 36.6003 185.044 36.6003C185.331 36.6003 185.589 36.5603 185.82 36.4803C186.054 36.3972 186.255 36.2741 186.425 36.111C186.594 35.9448 186.725 35.7386 186.817 35.4924L187.87 35.7878C187.759 36.1448 187.573 36.4587 187.311 36.7296C187.049 36.9973 186.726 37.2066 186.342 37.3574C185.957 37.5051 185.524 37.579 185.044 37.579ZM193.442 37.4313V27.9767H196.636C197.375 27.9767 197.981 28.1029 198.455 28.3553C198.929 28.6046 199.28 28.9477 199.508 29.3848C199.736 29.8218 199.849 30.3188 199.849 30.8759C199.849 31.4329 199.736 31.9269 199.508 32.3578C199.28 32.7886 198.931 33.1272 198.46 33.3734C197.989 33.6165 197.387 33.7381 196.655 33.7381H194.07V32.704H196.618C197.123 32.704 197.529 32.6301 197.837 32.4824C198.147 32.3347 198.372 32.1254 198.511 31.8546C198.652 31.5807 198.723 31.2544 198.723 30.8759C198.723 30.4973 198.652 30.1665 198.511 29.8833C198.369 29.6002 198.143 29.3817 197.832 29.2278C197.521 29.0708 197.11 28.9924 196.599 28.9924H194.587V37.4313H193.442ZM197.892 33.1841L200.219 37.4313H198.889L196.599 33.1841H197.892ZM204.379 38.6131V26.7949H205.136V38.6131H204.379ZM206.928 30.3404C206.872 29.8726 206.648 29.5094 206.254 29.2509C205.86 28.9924 205.376 28.8631 204.804 28.8631C204.385 28.8631 204.019 28.9308 203.705 29.0662C203.394 29.2016 203.151 29.3878 202.976 29.6248C202.804 29.8618 202.717 30.1311 202.717 30.4327C202.717 30.6851 202.777 30.902 202.897 31.0836C203.021 31.2621 203.177 31.4114 203.368 31.5314C203.559 31.6484 203.759 31.7453 203.968 31.8223C204.178 31.8961 204.37 31.9561 204.546 32.0023L205.506 32.2608C205.752 32.3255 206.026 32.4147 206.327 32.5286C206.632 32.6424 206.923 32.7979 207.2 32.9948C207.48 33.1887 207.711 33.438 207.892 33.7427C208.074 34.0474 208.165 34.4213 208.165 34.8645C208.165 35.3754 208.031 35.8371 207.763 36.2495C207.499 36.6619 207.111 36.9896 206.6 37.2328C206.092 37.4759 205.475 37.5975 204.749 37.5975C204.072 37.5975 203.485 37.4882 202.99 37.2697C202.497 37.0512 202.11 36.7465 201.826 36.3556C201.546 35.9648 201.388 35.5108 201.351 34.9938H202.533C202.564 35.3508 202.684 35.6462 202.893 35.8801C203.105 36.111 203.373 36.2833 203.696 36.3972C204.022 36.508 204.373 36.5634 204.749 36.5634C205.186 36.5634 205.578 36.4926 205.926 36.351C206.274 36.2064 206.549 36.0063 206.752 35.7509C206.955 35.4924 207.057 35.1907 207.057 34.846C207.057 34.5321 206.969 34.2767 206.794 34.0797C206.618 33.8827 206.387 33.7227 206.101 33.5996C205.815 33.4765 205.506 33.3688 205.173 33.2764L204.01 32.9441C203.271 32.7317 202.687 32.4286 202.256 32.0346C201.825 31.6407 201.609 31.1252 201.609 30.4881C201.609 29.9587 201.753 29.4971 202.039 29.1031C202.328 28.7061 202.716 28.3984 203.202 28.1799C203.691 27.9583 204.238 27.8475 204.841 27.8475C205.45 27.8475 205.992 27.9567 206.466 28.1752C206.94 28.3907 207.315 28.6861 207.592 29.0616C207.872 29.4371 208.02 29.8633 208.036 30.3404H206.928ZM209.881 37.4313V36.6003L213.002 33.1841C213.368 32.784 213.67 32.4362 213.907 32.1408C214.144 31.8423 214.319 31.5622 214.433 31.3006C214.55 31.0359 214.608 30.7589 214.608 30.4696C214.608 30.1372 214.528 29.8495 214.368 29.6063C214.211 29.3632 213.996 29.1755 213.722 29.0431C213.448 28.9108 213.14 28.8446 212.799 28.8446C212.435 28.8446 212.118 28.92 211.848 29.0708C211.58 29.2186 211.372 29.4263 211.224 29.6941C211.08 29.9618 211.007 30.2757 211.007 30.6358H209.918C209.918 30.0818 210.046 29.5956 210.301 29.177C210.557 28.7585 210.904 28.4322 211.344 28.1983C211.788 27.9644 212.285 27.8475 212.836 27.8475C213.39 27.8475 213.88 27.9644 214.308 28.1983C214.736 28.4322 215.071 28.7477 215.315 29.1447C215.558 29.5417 215.679 29.9834 215.679 30.4696C215.679 30.8174 215.616 31.1575 215.49 31.4899C215.367 31.8192 215.151 32.187 214.844 32.5932C214.539 32.9964 214.116 33.4888 213.574 34.0705L211.451 36.3418V36.4156H215.845V37.4313H209.881ZM217.752 37.4313V36.6003L220.873 33.1841C221.239 32.784 221.541 32.4362 221.778 32.1408C222.015 31.8423 222.19 31.5622 222.304 31.3006C222.421 31.0359 222.479 30.7589 222.479 30.4696C222.479 30.1372 222.399 29.8495 222.239 29.6063C222.082 29.3632 221.867 29.1755 221.593 29.0431C221.319 28.9108 221.011 28.8446 220.67 28.8446C220.307 28.8446 219.99 28.92 219.719 29.0708C219.451 29.2186 219.243 29.4263 219.095 29.6941C218.951 29.9618 218.879 30.2757 218.879 30.6358H217.789C217.789 30.0818 217.917 29.5956 218.172 29.177C218.428 28.7585 218.775 28.4322 219.216 28.1983C219.659 27.9644 220.156 27.8475 220.707 27.8475C221.261 27.8475 221.752 27.9644 222.179 28.1983C222.607 28.4322 222.943 28.7477 223.186 29.1447C223.429 29.5417 223.55 29.9834 223.55 30.4696C223.55 30.8174 223.487 31.1575 223.361 31.4899C223.238 31.8192 223.023 32.187 222.715 32.5932C222.41 32.9964 221.987 33.4888 221.445 34.0705L219.322 36.3418V36.4156H223.717V37.4313H217.752ZM228.707 37.5605C228.011 37.5605 227.419 37.3713 226.93 36.9927C226.44 36.6111 226.066 36.0586 225.808 35.3354C225.549 34.6091 225.42 33.7319 225.42 32.704C225.42 31.6822 225.549 30.8097 225.808 30.0865C226.069 29.3601 226.445 28.8062 226.934 28.4245C227.427 28.0398 228.018 27.8475 228.707 27.8475C229.396 27.8475 229.986 28.0398 230.475 28.4245C230.968 28.8062 231.343 29.3601 231.602 30.0865C231.863 30.8097 231.994 31.6822 231.994 32.704C231.994 33.7319 231.865 34.6091 231.606 35.3354C231.348 36.0586 230.974 36.6111 230.484 36.9927C229.995 37.3713 229.403 37.5605 228.707 37.5605ZM228.707 36.5449C229.396 36.5449 229.932 36.2125 230.314 35.5478C230.695 34.883 230.886 33.9351 230.886 32.704C230.886 31.8853 230.798 31.1883 230.623 30.6127C230.45 30.0372 230.201 29.5987 229.875 29.297C229.552 28.9954 229.162 28.8446 228.707 28.8446C228.024 28.8446 227.49 29.1816 227.105 29.8556C226.72 30.5266 226.528 31.476 226.528 32.704C226.528 33.5227 226.614 34.2182 226.787 34.7906C226.959 35.3631 227.207 35.7986 227.53 36.0971C227.856 36.3956 228.248 36.5449 228.707 36.5449ZM235.062 36.1387L234.988 36.6372C234.935 36.9881 234.855 37.3636 234.748 37.7637C234.643 38.1638 234.534 38.5408 234.42 38.8947C234.306 39.2486 234.212 39.5302 234.138 39.7395H233.307C233.347 39.5425 233.4 39.2825 233.464 38.9593C233.529 38.6362 233.594 38.2746 233.658 37.8745C233.726 37.4774 233.781 37.0712 233.824 36.6557L233.88 36.1387H235.062ZM239.815 37.5605C239.12 37.5605 238.527 37.3713 238.038 36.9927C237.549 36.6111 237.175 36.0586 236.916 35.3354C236.658 34.6091 236.528 33.7319 236.528 32.704C236.528 31.6822 236.658 30.8097 236.916 30.0865C237.178 29.3601 237.553 28.8062 238.043 28.4245C238.535 28.0398 239.126 27.8475 239.815 27.8475C240.505 27.8475 241.094 28.0398 241.584 28.4245C242.076 28.8062 242.451 29.3601 242.71 30.0865C242.972 30.8097 243.102 31.6822 243.102 32.704C243.102 33.7319 242.973 34.6091 242.715 35.3354C242.456 36.0586 242.082 36.6111 241.593 36.9927C241.103 37.3713 240.511 37.5605 239.815 37.5605ZM239.815 36.5449C240.505 36.5449 241.04 36.2125 241.422 35.5478C241.804 34.883 241.994 33.9351 241.994 32.704C241.994 31.8853 241.907 31.1883 241.731 30.6127C241.559 30.0372 241.31 29.5987 240.983 29.297C240.66 28.9954 240.271 28.8446 239.815 28.8446C239.132 28.8446 238.598 29.1816 238.213 29.8556C237.829 30.5266 237.636 31.476 237.636 32.704C237.636 33.5227 237.723 34.2182 237.895 34.7906C238.067 35.3631 238.315 35.7986 238.638 36.0971C238.964 36.3956 239.357 36.5449 239.815 36.5449ZM247.94 37.5605C247.245 37.5605 246.652 37.3713 246.163 36.9927C245.674 36.6111 245.3 36.0586 245.041 35.3354C244.783 34.6091 244.653 33.7319 244.653 32.704C244.653 31.6822 244.783 30.8097 245.041 30.0865C245.303 29.3601 245.678 28.8062 246.168 28.4245C246.66 28.0398 247.251 27.8475 247.94 27.8475C248.63 27.8475 249.219 28.0398 249.709 28.4245C250.201 28.8062 250.576 29.3601 250.835 30.0865C251.097 30.8097 251.227 31.6822 251.227 32.704C251.227 33.7319 251.098 34.6091 250.84 35.3354C250.581 36.0586 250.207 36.6111 249.718 36.9927C249.228 37.3713 248.636 37.5605 247.94 37.5605ZM247.94 36.5449C248.63 36.5449 249.165 36.2125 249.547 35.5478C249.929 34.883 250.119 33.9351 250.119 32.704C250.119 31.8853 250.032 31.1883 249.856 30.6127C249.684 30.0372 249.435 29.5987 249.108 29.297C248.785 28.9954 248.396 28.8446 247.94 28.8446C247.257 28.8446 246.723 29.1816 246.338 29.8556C245.954 30.5266 245.761 31.476 245.761 32.704C245.761 33.5227 245.848 34.2182 246.02 34.7906C246.192 35.3631 246.44 35.7986 246.763 36.0971C247.089 36.3956 247.482 36.5449 247.94 36.5449Z" fill="#FF0027"/>
</svg>
