<svg width="34" height="34" viewBox="0 0 34 34" fill="none" xmlns="http://www.w3.org/2000/svg">
<path d="M29.5863 16.9962C29.5863 24.0549 23.8641 29.7771 16.8054 29.7771C9.74665 29.7771 4.02444 24.0549 4.02444 16.9962C4.02444 9.93753 9.74665 4.21532 16.8054 4.21532C23.8641 4.21532 29.5863 9.93753 29.5863 16.9962Z" fill="#FF0027"/>
<path fill-rule="evenodd" clip-rule="evenodd" d="M33.519 16.9962C33.519 26.2269 26.036 33.7099 16.8053 33.7099C7.57466 33.7099 0.0917053 26.2269 0.0917053 16.9962C0.0917053 7.76554 7.57466 0.282593 16.8053 0.282593C26.036 0.282593 33.519 7.76554 33.519 16.9962ZM16.8053 31.4484C24.787 31.4484 31.2575 24.9779 31.2575 16.9962C31.2575 9.01454 24.787 2.54411 16.8053 2.54411C8.82366 2.54411 2.35322 9.01454 2.35322 16.9962C2.35322 24.9779 8.82366 31.4484 16.8053 31.4484Z" fill="#a7a7a79e"/>
<path d="M16.8083 14.881C16.32 14.881 15.9177 14.7657 15.6013 14.5353C15.2849 14.3048 15.1266 13.9728 15.1266 13.5392C15.1266 13.1056 15.2849 12.7775 15.6013 12.5548C15.9177 12.3321 16.3239 12.2208 16.82 12.2208C17.3161 12.2208 17.7184 12.3302 18.027 12.5489C18.3395 12.7677 18.4958 13.0978 18.4958 13.5392C18.4958 13.9728 18.3356 14.3048 18.0153 14.5353C17.6989 14.7657 17.2966 14.881 16.8083 14.881ZM18.9645 20.0079V21.7716H14.6462V20.0079H15.402V17.3068H14.6462V15.8653L18.2087 15.4962V20.0079H18.9645Z" fill="#ffffff"/>
</svg>
