<svg width="136" height="42" viewBox="0 0 136 42" fill="none" xmlns="http://www.w3.org/2000/svg">
<path d="M75.1706 18.8644C72.753 18.8964 70.6896 20.0346 69.4692 21.8146C69.4926 21.8149 69.516 21.815 69.5395 21.815C71.9669 21.815 73.9946 20.6739 75.1706 18.8644Z" fill="#D9D9D9"/>
<path d="M88.0477 19.0693H90.8049V21.6094H84.0025L83.2659 19.5367H81.318V19.0693H87.5389L88.0477 20.4193V19.0693Z" fill="#D9D9D9"/>
<path d="M75.3778 18.8644L74.3474 21.6094H78.771L79.3199 20.0648C78.2103 19.3165 76.8585 18.8835 75.3778 18.8644Z" fill="#D9D9D9"/>
<path d="M102.297 19.0693V21.6094H98.895V19.0693H102.297Z" fill="#D9D9D9"/>
<path d="M95.4792 19.6224L95.103 19.0693H93.6825L93.9768 19.6224H95.4792Z" fill="#D9D9D9"/>
<path d="M92.173 19.0693V21.6094H91.3066V19.0693H92.173Z" fill="#D9D9D9"/>
<path d="M112.744 19.0693V21.6094H103.172V19.0693H112.744Z" fill="#D9D9D9"/>
<path fill-rule="evenodd" clip-rule="evenodd" d="M69.4692 21.8146C69.4926 21.8148 69.5161 21.8149 69.5395 21.8149C71.967 21.8149 73.9946 20.6739 75.1706 18.8643C75.2055 18.8639 75.2404 18.8636 75.2754 18.8636C75.3096 18.8636 75.3438 18.8639 75.3778 18.8643L74.3474 21.6094H78.7711L79.32 20.0648C80.022 20.5382 80.6271 21.1378 81.1066 21.8387L81.318 22.1477V19.5367H83.266L84.0026 21.6094H90.8049V23.0404H85.4434V23.6942H90.2397V27.6654H85.4434V28.3876H90.8906V32.3588H81.318V29.2803L81.1066 29.5893C79.8516 31.4236 77.7367 32.5644 75.2754 32.5644C71.3213 32.5644 68.288 29.612 68.288 25.714C68.288 24.2438 68.7195 22.9081 69.4692 21.8146ZM77.9949 24.6702L81.318 22.6119V28.8162L77.9949 26.7578L77.5981 27.3369C77.0989 28.0655 76.2618 28.5418 75.2754 28.5418C73.682 28.5418 72.4819 27.3511 72.4819 25.714C72.4819 24.0769 73.682 22.8862 75.2754 22.8862C76.2618 22.8862 77.0989 23.3625 77.5981 24.0911L77.9949 24.6702Z" fill="white"/>
<path d="M98.895 21.6094H102.297V19.0692H103.02V32.3588H99.206L95.432 26.7902V32.3588H91.3067V21.6094H92.1731V19.0692H93.6825L93.9769 19.6223H95.4793L98.895 24.6448V21.6094Z" fill="white"/>
<path d="M88.0477 19.0692V20.4192L87.539 19.0692H88.0477Z" fill="white"/>
<path d="M103.172 19.0692H103.169V23.0404H106.458V32.3588H110.583V23.0404H113.872V19.0692H112.744V21.6094H103.172V19.0692Z" fill="white"/>
<path d="M123.617 28.3876H118.169V27.6654H122.966V23.6942H118.169V23.0404H123.531V19.0692H114.044V32.3588H123.617V28.3876Z" fill="white"/>
<path fill-rule="evenodd" clip-rule="evenodd" d="M128.292 28.3163L130.724 32.3588H135.665L132.625 27.5821C133.908 26.7892 134.736 25.4221 134.736 23.7613C134.736 21.0676 132.615 19.0692 129.889 19.0692H124.033V32.3588H128.158V28.3163H128.292ZM128.158 23.0404H129.838C130.232 23.0404 130.542 23.3222 130.542 23.7955C130.542 24.2461 130.237 24.5335 129.838 24.5335H128.158V23.0404Z" fill="white"/>
<path fill-rule="evenodd" clip-rule="evenodd" d="M75.5296 11.2368L72.8422 13.3729H76.27V15.0159C76.27 16.4695 75.8716 17.7857 75.1706 18.8643C72.753 18.8963 70.6896 20.0346 69.4692 21.8146C65.5603 21.7797 62.6035 18.8328 62.6035 14.9645C62.6035 11.0666 65.6368 8.11417 69.5909 8.11417C71.8508 8.11417 73.8754 9.07571 75.0908 10.6636L75.5296 11.2368ZM72.0988 13.3729H69.0442V17.2071H71.3639C70.9375 17.5774 70.3393 17.8094 69.6252 17.8094C68.0122 17.8094 66.7974 16.5993 66.7974 14.9645C66.7974 13.3322 68.0099 12.1196 69.6423 12.1196C70.6077 12.1196 71.4233 12.5374 71.9312 13.1657L72.0988 13.3729ZM70.9449 18.303C71.6954 18.0089 72.2801 17.4636 72.584 16.7634C72.5163 16.9193 72.4347 17.0676 72.3404 17.2071C72.0114 17.694 71.5283 18.0744 70.9449 18.303Z" fill="white"/>
<path d="M90.8049 21.6094H91.3067V19.0692H92.1731V16.2325L93.6825 19.0692H95.1031L95.4793 19.6223H96.3674L98.1712 16.2325V21.6094H98.895V19.0692H102.297V8.31973H97.8841L95.191 13.338L92.5126 8.31973H88.0477V19.0692H90.8049V21.6094Z" fill="white"/>
<path fill-rule="evenodd" clip-rule="evenodd" d="M87.539 19.0692L83.4885 8.31973H79.3359L75.3778 18.8643C76.8586 18.8834 78.2103 19.3164 79.32 20.0648L79.5076 19.5367H81.318V19.0692H87.539ZM81.3868 14.1929L81.8894 15.6169H80.8842L81.3868 14.1929Z" fill="white"/>
<path d="M112.744 17.6381H107.297V16.9159H112.093V12.9447H107.297V12.2909H112.659V8.31973H103.172V19.0692H112.744V17.6381Z" fill="white"/>
<path fill-rule="evenodd" clip-rule="evenodd" d="M22.8773 29.3072C20.6956 29.5211 18.3722 29.9569 16.5207 30.7689C13.6571 32.0249 7.85715 35.7464 3.41962 38.726C2.08553 39.6218 0.325049 38.3953 0.722228 36.8383L8.15922 7.68298C8.8272 3.55943 12.404 0.410942 16.7162 0.410942H28.2747C30.8445 0.410942 33.1532 1.52917 34.7407 3.30558C31.6639 4.63682 29.5112 7.6997 29.5112 11.2654V22.8239C29.5112 25.0418 30.344 27.0651 31.7141 28.5982C30.6596 29.0544 29.4967 29.3072 28.2747 29.3072H22.8773ZM17.8408 7.57434C17.8408 6.93599 18.3583 6.41849 18.9966 6.41849H21.2527C21.8911 6.41849 22.4086 6.93599 22.4086 7.57434V11.7357H26.57C27.2083 11.7357 27.7258 12.2531 27.7258 12.8915V15.1476C27.7258 15.786 27.2083 16.3035 26.57 16.3035H22.4086V20.4649C22.4086 21.1032 21.8911 21.6207 21.2527 21.6207H18.9966C18.3583 21.6207 17.8408 21.1032 17.8408 20.4648V16.3035H13.6795C13.0411 16.3035 12.5236 15.786 12.5236 15.1476V12.8915C12.5236 12.2531 13.0411 11.7357 13.6795 11.7357H17.8408V7.57434Z" fill="white"/>
<path fill-rule="evenodd" clip-rule="evenodd" d="M38.1801 31.4928C35.6103 31.4928 33.3016 30.3746 31.7141 28.5982C34.7908 27.2669 36.9436 24.204 36.9436 20.6383V9.07983C36.9436 6.86199 36.1108 4.83867 34.7407 3.30558C35.7952 2.84935 36.9581 2.5965 38.1801 2.5965H49.7386C54.0508 2.5965 57.6276 5.745 58.2956 9.86854L65.7326 39.0238C66.1297 40.5809 64.3693 41.8073 63.0352 40.9115C58.5976 37.932 52.7977 34.2105 49.9341 32.9545C48.0826 32.1424 45.7592 31.7066 43.5775 31.4928H38.1801ZM49.9163 12.2577C49.9163 13.9261 48.5639 15.2785 46.8956 15.2785C45.2273 15.2785 43.8748 13.9261 43.8748 12.2577C43.8748 10.5894 45.2273 9.23701 46.8956 9.23701C48.5639 9.23701 49.9163 10.5894 49.9163 12.2577ZM44.137 18.037C44.137 19.7053 42.7846 21.0578 41.1163 21.0578C39.448 21.0578 38.0956 19.7053 38.0956 18.037C38.0956 16.3687 39.448 15.0163 41.1163 15.0163C42.7846 15.0163 44.137 16.3687 44.137 18.037ZM55.6956 18.037C55.6956 19.7053 54.3431 21.0578 52.6748 21.0578C51.0065 21.0578 49.6541 19.7053 49.6541 18.037C49.6541 16.3687 51.0065 15.0163 52.6748 15.0163C54.3431 15.0163 55.6956 16.3687 55.6956 18.037ZM49.9163 23.8161C49.9163 25.4844 48.5639 26.8369 46.8956 26.8369C45.2273 26.8369 43.8748 25.4844 43.8748 23.8161C43.8748 22.1478 45.2273 20.7954 46.8956 20.7954C48.5639 20.7954 49.9163 22.1478 49.9163 23.8161Z" fill="white"/>
</svg>
