<svg width="216" height="46" viewBox="0 0 216 46" fill="none" xmlns="http://www.w3.org/2000/svg">
<path fill-rule="evenodd" clip-rule="evenodd" d="M10.1069 8.23027C8.01505 8.23027 6.31929 9.92603 6.31929 12.0179V18.5756C6.31929 20.6674 8.01505 22.3632 10.1069 22.3632H20.6377C22.7296 22.3632 24.4253 20.6674 24.4253 18.5756V12.0179C24.4253 9.92603 22.7296 8.23027 20.6378 8.23027H10.1069ZM20.6378 10.5028H14.427V20.0906H16.5056V14.0934C16.5056 13.2566 17.184 12.5783 18.0207 12.5784L22.1528 12.5787V12.0179C22.1528 11.1811 21.4745 10.5028 20.6378 10.5028ZM22.1528 14.0937H18.7781C18.3598 14.0937 18.0206 14.4329 18.0206 14.8513V15.3653C18.0206 15.7836 18.3598 16.1228 18.7781 16.1228H22.1528V14.0937ZM18.0206 20.0906V18.3953C18.0206 17.977 18.3598 17.6378 18.7781 17.6378H22.1528V18.5756C22.1528 19.4123 21.4745 20.0906 20.6377 20.0906H18.0206ZM10.1069 10.5028H12.9119V11.8212C12.9119 12.2395 12.5728 12.5787 12.1544 12.5787H8.59184V12.0179C8.59184 11.1811 9.27015 10.5028 10.1069 10.5028ZM8.59184 14.0937H12.1544C12.5728 14.0937 12.9119 14.4329 12.9119 14.8513V15.5387C12.9119 15.9571 12.5728 16.2963 12.1544 16.2963H8.59184V14.0937ZM8.59184 17.8113V18.5756C8.59184 19.4123 9.27015 20.0906 10.1069 20.0906H12.9119V18.5688C12.9119 18.1504 12.5728 17.8113 12.1544 17.8113H8.59184Z" fill="#990018"/>
<path fill-rule="evenodd" clip-rule="evenodd" d="M44.2774 38.7003C43.2009 39.2932 41.9638 39.6306 40.6479 39.6306C36.4871 39.6306 33.114 36.2576 33.114 32.0967C33.114 27.9359 36.4871 24.5628 40.6479 24.5628C41.9638 24.5628 43.2009 24.9002 44.2774 25.4931C45.3539 24.9002 46.591 24.5628 47.9068 24.5628C52.0677 24.5628 55.4407 27.9359 55.4407 32.0967C55.4407 36.2576 52.0677 39.6306 47.9068 39.6306C46.591 39.6306 45.3539 39.2932 44.2774 38.7003ZM44.2774 35.9057C45.2827 34.9475 45.9092 33.5953 45.9092 32.0967C45.9092 30.5982 45.2827 29.246 44.2774 28.2877C43.272 29.246 42.6455 30.5982 42.6455 32.0967C42.6455 33.5953 43.272 34.9475 44.2774 35.9057ZM42.2754 37.1015C41.7629 37.268 41.2159 37.358 40.6479 37.358C37.7422 37.358 35.3866 35.0025 35.3866 32.0967C35.3866 29.191 37.7422 26.8354 40.6479 26.8354C41.2159 26.8354 41.7629 26.9254 42.2754 27.092C41.0919 28.4227 40.373 30.1758 40.373 32.0967C40.373 34.0177 41.0919 35.7708 42.2754 37.1015ZM46.2793 27.092C46.7918 26.9254 47.3388 26.8354 47.9068 26.8354C50.8126 26.8354 53.1682 29.191 53.1682 32.0967C53.1682 35.0025 50.8126 37.358 47.9068 37.358C47.3388 37.358 46.7918 37.268 46.2793 37.1015C47.4628 35.7708 48.1818 34.0177 48.1818 32.0967C48.1818 30.1758 47.4628 28.4227 46.2793 27.092Z" fill="#990018"/>
<path d="M7.51451 29.3618C6.88696 29.3618 6.37824 29.8706 6.37824 30.4981C6.37824 31.1257 6.88696 31.6344 7.51451 31.6344H16.6435C17.2711 31.6344 17.7798 31.1257 17.7798 30.4981C17.7798 29.8706 17.2711 29.3618 16.6435 29.3618H7.51451Z" fill="#990018"/>
<path d="M6.37824 35.5732C6.37824 34.9457 6.88696 34.437 7.51451 34.437H8.72535C9.3529 34.437 9.86163 34.9457 9.86163 35.5732C9.86163 36.2008 9.3529 36.7095 8.72535 36.7095H7.51451C6.88696 36.7095 6.37824 36.2008 6.37824 35.5732Z" fill="#990018"/>
<path d="M11.9705 35.5732C11.9705 34.9457 12.4793 34.437 13.1068 34.437H14.3177C14.9452 34.437 15.4539 34.9457 15.4539 35.5732C15.4539 36.2008 14.9452 36.7095 14.3177 36.7095H13.1068C12.4793 36.7095 11.9705 36.2008 11.9705 35.5732Z" fill="#990018"/>
<path d="M17.6598 35.5732C17.6598 34.9457 18.1685 34.437 18.7961 34.437H20.0069C20.6345 34.437 21.1432 34.9457 21.1432 35.5732C21.1432 36.2008 20.6345 36.7095 20.0069 36.7095H18.7961C18.1685 36.7095 17.6598 36.2008 17.6598 35.5732Z" fill="#990018"/>
<path d="M27.1437 35.5732C27.1437 34.9457 27.6525 34.437 28.28 34.437H29.4908C30.1184 34.437 30.6271 34.9457 30.6271 35.5732C30.6271 36.2008 30.1184 36.7095 29.4908 36.7095H28.28C27.6525 36.7095 27.1437 36.2008 27.1437 35.5732Z" fill="#990018"/>
<path d="M21.9007 35.5732C21.9007 34.9457 22.4095 34.437 23.037 34.437H25.2499C25.8775 34.437 26.3862 34.9457 26.3862 35.5732C26.3862 36.2008 25.8775 36.7095 25.2499 36.7095H23.037C22.4095 36.7095 21.9007 36.2008 21.9007 35.5732Z" fill="#990018"/>
<path d="M19.3563 30.4981C19.3563 29.8706 19.865 29.3618 20.4926 29.3618H29.6216C30.2491 29.3618 30.7578 29.8706 30.7578 30.4981C30.7578 31.1257 30.2491 31.6344 29.6216 31.6344H20.4926C19.865 31.6344 19.3563 31.1257 19.3563 30.4981Z" fill="#990018"/>
<path fill-rule="evenodd" clip-rule="evenodd" d="M0.665192 4.11828C0.665192 2.02645 2.36096 0.330688 4.45279 0.330688H55.9641C58.0559 0.330688 59.7517 2.02645 59.7517 4.11829V41.9943C59.7517 44.0861 58.0559 45.7819 55.9641 45.7819H4.45279C2.36096 45.7819 0.665192 44.0861 0.665192 41.9943V4.11828ZM4.45279 2.60325H55.9641C56.8008 2.60325 57.4791 3.28155 57.4791 4.11829V41.9943C57.4791 42.831 56.8008 43.5093 55.9641 43.5093H4.45279C3.61606 43.5093 2.93775 42.831 2.93775 41.9943V4.11828C2.93775 3.28155 3.61606 2.60325 4.45279 2.60325Z" fill="#990018"/>
<path d="M69.586 22.6072V10.1292H74.972C75.8981 10.1292 76.7085 10.312 77.403 10.6776C78.0976 11.0431 78.6378 11.557 79.0237 12.219C79.4096 12.8811 79.6025 13.6549 79.6025 14.5404C79.6025 15.434 79.4035 16.2078 79.0054 16.8617C78.6114 17.5157 78.057 18.0193 77.3421 18.3727C76.6313 18.7261 75.8007 18.9028 74.8502 18.9028H71.6332V16.2707H74.1678C74.5659 16.2707 74.905 16.2017 75.1853 16.0636C75.4696 15.9214 75.6869 15.7203 75.8372 15.4604C75.9916 15.2004 76.0687 14.8938 76.0687 14.5404C76.0687 14.1829 75.9916 13.8783 75.8372 13.6265C75.6869 13.3706 75.4696 13.1756 75.1853 13.0416C74.905 12.9035 74.5659 12.8344 74.1678 12.8344H72.9736V22.6072H69.586ZM82.5286 22.6072H78.8729L82.9916 10.1292H87.6221L91.7408 22.6072H88.0852L85.3556 13.5655H85.2581L82.5286 22.6072ZM81.8462 17.6842H88.7188V20.2188H81.8462V17.6842ZM92.9426 22.6072V10.1292H98.3286C99.2547 10.1292 100.065 10.2978 100.76 10.6349C101.454 10.9721 101.994 11.4574 102.38 12.0911C102.766 12.7247 102.959 13.4843 102.959 14.3698C102.959 15.2634 102.76 16.0169 102.362 16.6302C101.968 17.2435 101.414 17.7066 100.699 18.0193C99.9878 18.3321 99.1572 18.4885 98.2067 18.4885H94.9898V15.8564H97.5243C97.9224 15.8564 98.2616 15.8077 98.5418 15.7102C98.8262 15.6086 99.0435 15.4482 99.1938 15.2289C99.3481 15.0095 99.4253 14.7232 99.4253 14.3698C99.4253 14.0123 99.3481 13.7219 99.1938 13.4985C99.0435 13.2711 98.8262 13.1045 98.5418 12.9989C98.2616 12.8892 97.9224 12.8344 97.5243 12.8344H96.3302V22.6072H92.9426ZM100.254 16.88L103.373 22.6072H99.6934L96.647 16.88H100.254ZM116.052 14.8085H112.616C112.592 14.5241 112.527 14.2662 112.421 14.0347C112.32 13.8032 112.177 13.6041 111.995 13.4376C111.816 13.267 111.599 13.137 111.343 13.0477C111.087 12.9542 110.796 12.9075 110.471 12.9075C109.903 12.9075 109.421 13.0456 109.027 13.3218C108.638 13.598 108.341 13.9941 108.138 14.5099C107.939 15.0258 107.839 15.6452 107.839 16.3682C107.839 17.1318 107.941 17.7716 108.144 18.2874C108.351 18.7992 108.65 19.1851 109.04 19.445C109.43 19.7009 109.899 19.8289 110.447 19.8289C110.76 19.8289 111.04 19.7903 111.288 19.7131C111.536 19.6319 111.751 19.5161 111.934 19.3658C112.116 19.2155 112.265 19.0348 112.378 18.8236C112.496 18.6083 112.575 18.3666 112.616 18.0985L116.052 18.1229C116.012 18.651 115.864 19.1891 115.608 19.7375C115.352 20.2818 114.988 20.7854 114.517 21.2485C114.05 21.7075 113.471 22.0771 112.781 22.3574C112.09 22.6376 111.288 22.7778 110.374 22.7778C109.229 22.7778 108.201 22.532 107.291 22.0406C106.385 21.5491 105.668 20.8261 105.14 19.8715C104.616 18.917 104.354 17.7492 104.354 16.3682C104.354 14.9791 104.622 13.8092 105.159 12.8588C105.695 11.9042 106.418 11.1833 107.328 10.6959C108.237 10.2044 109.253 9.95863 110.374 9.95863C111.162 9.95863 111.887 10.0663 112.549 10.2815C113.211 10.4968 113.792 10.8116 114.292 11.2259C114.791 11.6362 115.193 12.1419 115.498 12.743C115.803 13.3442 115.987 14.0326 116.052 14.8085ZM117.589 22.6072V10.1292H126.582V12.8588H120.977V15.0034H126.119V17.733H120.977V19.8776H126.558V22.6072H117.589ZM128.262 22.6072V10.1292H131.65V19.8776H136.695V22.6072H128.262ZM141.305 22.6072H137.65L141.768 10.1292H146.399L150.518 22.6072H146.862L144.132 13.5655H144.035L141.305 22.6072ZM140.623 17.6842H147.496V20.2188H140.623V17.6842ZM151.719 10.1292H155.936L158.836 17.1968H158.982L161.882 10.1292H166.098V22.6072H162.784V15.3934H162.686L159.908 22.5097H157.91L155.131 15.3446H155.034V22.6072H151.719V10.1292ZM167.704 22.6072V10.1292H176.697V12.8588H171.091V15.0034H176.234V17.733H171.091V19.8776H176.672V22.6072H167.704ZM189.173 10.1292V22.6072H186.346L181.837 16.0514H181.764V22.6072H178.377V10.1292H181.252L185.688 16.6607H185.785V10.1292H189.173ZM190.434 12.8588V10.1292H201.279V12.8588H197.526V22.6072H194.187V12.8588H190.434ZM214.056 16.3682C214.056 17.7574 213.786 18.9292 213.245 19.8837C212.705 20.8342 211.976 21.5552 211.058 22.0466C210.14 22.5341 209.117 22.7778 207.987 22.7778C206.85 22.7778 205.822 22.532 204.904 22.0406C203.991 21.545 203.263 20.822 202.723 19.8715C202.187 18.917 201.919 17.7492 201.919 16.3682C201.919 14.9791 202.187 13.8092 202.723 12.8588C203.263 11.9042 203.991 11.1833 204.904 10.6959C205.822 10.2044 206.85 9.95863 207.987 9.95863C209.117 9.95863 210.14 10.2044 211.058 10.6959C211.976 11.1833 212.705 11.9042 213.245 12.8588C213.786 13.8092 214.056 14.9791 214.056 16.3682ZM210.571 16.3682C210.571 15.6208 210.471 14.9912 210.272 14.4795C210.077 13.9636 209.787 13.5737 209.401 13.3096C209.019 13.0416 208.548 12.9075 207.987 12.9075C207.427 12.9075 206.954 13.0416 206.568 13.3096C206.186 13.5737 205.896 13.9636 205.697 14.4795C205.502 14.9912 205.404 15.6208 205.404 16.3682C205.404 17.1156 205.502 17.7472 205.697 18.263C205.896 18.7748 206.186 19.1648 206.568 19.4329C206.954 19.6969 207.427 19.8289 207.987 19.8289C208.548 19.8289 209.019 19.6969 209.401 19.4329C209.787 19.1648 210.077 18.7748 210.272 18.263C210.471 17.7472 210.571 17.1156 210.571 16.3682Z" fill="white"/>
<path d="M72.752 39.0019C72.0687 39.0019 71.4794 38.851 70.9839 38.5494C70.4914 38.2448 70.1114 37.82 69.8436 37.2753C69.5789 36.7275 69.4466 36.0904 69.4466 35.3641C69.4466 34.6377 69.5789 33.9976 69.8436 33.4436C70.1114 32.8866 70.4837 32.4526 70.9608 32.1418C71.4409 31.8278 72.001 31.6709 72.6412 31.6709C73.0105 31.6709 73.3752 31.7324 73.7353 31.8555C74.0954 31.9787 74.4231 32.1787 74.7186 32.4557C75.014 32.7296 75.2495 33.0928 75.4249 33.5452C75.6003 33.9976 75.6881 34.5546 75.6881 35.2163V35.678H70.2221V34.7362H74.5801C74.5801 34.3361 74.5001 33.9791 74.34 33.6652C74.1831 33.3513 73.9584 33.1035 73.666 32.922C73.3767 32.7404 73.0351 32.6496 72.6412 32.6496C72.2072 32.6496 71.8318 32.7573 71.5148 32.9727C71.2008 33.1851 70.9592 33.4621 70.79 33.8037C70.6207 34.1453 70.5361 34.5116 70.5361 34.9024V35.5303C70.5361 36.0658 70.6284 36.5197 70.8131 36.8921C71.0008 37.2614 71.2609 37.543 71.5932 37.7369C71.9256 37.9278 72.3119 38.0232 72.752 38.0232C73.0382 38.0232 73.2967 37.9832 73.5275 37.9031C73.7614 37.82 73.963 37.6969 74.1323 37.5338C74.3016 37.3676 74.4324 37.1614 74.5247 36.9152L75.5773 37.2107C75.4665 37.5677 75.2803 37.8816 75.0187 38.1524C74.7571 38.4202 74.4339 38.6295 74.0492 38.7803C73.6645 38.928 73.2321 39.0019 72.752 39.0019ZM77.3454 38.8541V31.7632H78.3979V32.8712H78.4903C78.638 32.4926 78.8765 32.1987 79.2058 31.9894C79.5351 31.7771 79.9306 31.6709 80.3922 31.6709C80.86 31.6709 81.2494 31.7771 81.5602 31.9894C81.8741 32.1987 82.1188 32.4926 82.2942 32.8712H82.3681C82.5497 32.5049 82.8221 32.2141 83.1852 31.9987C83.5484 31.7801 83.9839 31.6709 84.4917 31.6709C85.1257 31.6709 85.6443 31.8694 86.0474 32.2664C86.4506 32.6604 86.6522 33.2743 86.6522 34.1084V38.8541H85.5627V34.1084C85.5627 33.5852 85.4196 33.2113 85.1334 32.9866C84.8471 32.7619 84.5101 32.6496 84.1224 32.6496C83.6238 32.6496 83.2375 32.8004 82.9636 33.102C82.6897 33.4005 82.5528 33.7791 82.5528 34.2376V38.8541H81.4448V33.9976C81.4448 33.5944 81.314 33.2697 81.0524 33.0235C80.7908 32.7742 80.4538 32.6496 80.0414 32.6496C79.7582 32.6496 79.4936 32.725 79.2474 32.8758C79.0042 33.0266 78.8073 33.2359 78.6565 33.5036C78.5087 33.7683 78.4349 34.0745 78.4349 34.4223V38.8541H77.3454ZM94.3871 39.0203C93.9378 39.0203 93.53 38.9357 93.1637 38.7664C92.7975 38.5941 92.5067 38.3463 92.2912 38.0232C92.0758 37.6969 91.9681 37.303 91.9681 36.8413C91.9681 36.4351 92.0481 36.1058 92.2081 35.8534C92.3682 35.598 92.5821 35.3979 92.8498 35.2533C93.1176 35.1086 93.413 35.0009 93.7362 34.9301C94.0624 34.8563 94.3902 34.7978 94.7195 34.7547C95.1504 34.6993 95.4997 34.6577 95.7674 34.63C96.0383 34.5993 96.2352 34.5485 96.3583 34.4777C96.4845 34.4069 96.5476 34.2838 96.5476 34.1084V34.0715C96.5476 33.616 96.423 33.262 96.1737 33.0097C95.9275 32.7573 95.5535 32.6311 95.0519 32.6311C94.5317 32.6311 94.124 32.745 93.8285 32.9727C93.533 33.2005 93.3253 33.4436 93.2053 33.7021L92.1712 33.3328C92.3558 32.9019 92.6021 32.5665 92.9098 32.3264C93.2207 32.0833 93.5592 31.914 93.9254 31.8186C94.2948 31.7201 94.6579 31.6709 95.0149 31.6709C95.2427 31.6709 95.5043 31.6986 95.7997 31.754C96.0983 31.8063 96.386 31.9156 96.663 32.0818C96.9431 32.2479 97.1754 32.4988 97.3601 32.8342C97.5448 33.1697 97.6371 33.619 97.6371 34.1823V38.8541H96.5476V37.8939H96.4922C96.4183 38.0478 96.2952 38.2124 96.1229 38.3879C95.9505 38.5633 95.7213 38.7126 95.435 38.8357C95.1488 38.9588 94.7995 39.0203 94.3871 39.0203ZM94.5533 38.0416C94.9842 38.0416 95.3473 37.957 95.6428 37.7877C95.9413 37.6184 96.166 37.3999 96.3168 37.1322C96.4707 36.8644 96.5476 36.5828 96.5476 36.2874V35.2902C96.5014 35.3456 96.3999 35.3964 96.2429 35.4425C96.089 35.4856 95.9105 35.5241 95.7074 35.558C95.5074 35.5887 95.3119 35.6164 95.1211 35.6411C94.9334 35.6626 94.781 35.6811 94.6641 35.6965C94.3809 35.7334 94.1163 35.7934 93.8701 35.8765C93.6269 35.9565 93.4299 36.0781 93.2791 36.2412C93.1314 36.4012 93.0576 36.6198 93.0576 36.8967C93.0576 37.2753 93.1976 37.5615 93.4777 37.7554C93.7608 37.9462 94.1193 38.0416 94.5533 38.0416ZM102.709 31.7632V32.6865H99.0347V31.7632H102.709ZM100.106 30.0644H101.195V36.8229C101.195 37.1306 101.24 37.3615 101.329 37.5153C101.421 37.6662 101.538 37.7677 101.68 37.82C101.825 37.8693 101.977 37.8939 102.137 37.8939C102.257 37.8939 102.356 37.8877 102.432 37.8754C102.509 37.86 102.571 37.8477 102.617 37.8385L102.839 38.8172C102.765 38.8449 102.662 38.8726 102.529 38.9003C102.397 38.9311 102.229 38.9465 102.026 38.9465C101.718 38.9465 101.417 38.8803 101.121 38.7479C100.829 38.6156 100.586 38.414 100.392 38.1432C100.201 37.8724 100.106 37.5307 100.106 37.1183V30.0644ZM107.245 39.0019C106.562 39.0019 105.973 38.851 105.477 38.5494C104.985 38.2448 104.605 37.82 104.337 37.2753C104.072 36.7275 103.94 36.0904 103.94 35.3641C103.94 34.6377 104.072 33.9976 104.337 33.4436C104.605 32.8866 104.977 32.4526 105.454 32.1418C105.934 31.8278 106.494 31.6709 107.134 31.6709C107.504 31.6709 107.868 31.7324 108.228 31.8555C108.589 31.9787 108.916 32.1787 109.212 32.4557C109.507 32.7296 109.743 33.0928 109.918 33.5452C110.094 33.9976 110.181 34.5546 110.181 35.2163V35.678H104.715V34.7362H109.073C109.073 34.3361 108.993 33.9791 108.833 33.6652C108.676 33.3513 108.452 33.1035 108.159 32.922C107.87 32.7404 107.528 32.6496 107.134 32.6496C106.7 32.6496 106.325 32.7573 106.008 32.9727C105.694 33.1851 105.452 33.4621 105.283 33.8037C105.114 34.1453 105.029 34.5116 105.029 34.9024V35.5303C105.029 36.0658 105.122 36.5197 105.306 36.8921C105.494 37.2614 105.754 37.543 106.086 37.7369C106.419 37.9278 106.805 38.0232 107.245 38.0232C107.531 38.0232 107.79 37.9832 108.021 37.9031C108.255 37.82 108.456 37.6969 108.625 37.5338C108.795 37.3676 108.926 37.1614 109.018 36.9152L110.07 37.2107C109.96 37.5677 109.773 37.8816 109.512 38.1524C109.25 38.4202 108.927 38.6295 108.542 38.7803C108.158 38.928 107.725 39.0019 107.245 39.0019ZM106.58 30.803L107.707 28.6609H108.981L107.541 30.803H106.58ZM118.8 29.3996V38.8541H117.655V30.5999H117.6L115.292 32.1325V30.9692L117.655 29.3996H118.8ZM121.519 38.8541V38.0232L124.64 34.607C125.006 34.2069 125.308 33.8591 125.545 33.5636C125.782 33.2651 125.957 32.985 126.071 32.7234C126.188 32.4588 126.247 32.1818 126.247 31.8925C126.247 31.5601 126.167 31.2723 126.007 31.0292C125.85 30.7861 125.634 30.5983 125.36 30.466C125.086 30.3336 124.779 30.2675 124.437 30.2675C124.074 30.2675 123.757 30.3429 123.486 30.4937C123.218 30.6414 123.01 30.8492 122.863 31.1169C122.718 31.3847 122.646 31.6986 122.646 32.0587H121.556C121.556 31.5047 121.684 31.0184 121.939 30.5999C122.195 30.1813 122.543 29.8551 122.983 29.6212C123.426 29.3873 123.923 29.2703 124.474 29.2703C125.028 29.2703 125.519 29.3873 125.946 29.6212C126.374 29.8551 126.71 30.1705 126.953 30.5675C127.196 30.9646 127.318 31.4062 127.318 31.8925C127.318 32.2403 127.254 32.5803 127.128 32.9127C127.005 33.242 126.79 33.6098 126.482 34.0161C126.177 34.4192 125.754 34.9117 125.212 35.4933L123.089 37.7646V37.8385H127.484V38.8541H121.519ZM130.221 31.7632L131.92 34.6624L133.619 31.7632H134.875L132.585 35.3087L134.875 38.8541H133.619L131.92 36.1027L130.221 38.8541H128.966L131.219 35.3087L128.966 31.7632H130.221ZM145.108 33.3513L144.13 33.6283C144.068 33.4652 143.977 33.3067 143.857 33.1528C143.74 32.9958 143.58 32.8666 143.377 32.765C143.174 32.6634 142.914 32.6126 142.597 32.6126C142.163 32.6126 141.801 32.7127 141.512 32.9127C141.226 33.1097 141.083 33.3605 141.083 33.6652C141.083 33.936 141.181 34.1499 141.378 34.3069C141.575 34.4639 141.883 34.5947 142.302 34.6993L143.354 34.9578C143.988 35.1117 144.46 35.3471 144.771 35.6641C145.082 35.9781 145.238 36.3828 145.238 36.8783C145.238 37.2845 145.121 37.6477 144.887 37.9678C144.656 38.2878 144.333 38.5402 143.917 38.7249C143.502 38.9095 143.019 39.0019 142.468 39.0019C141.744 39.0019 141.146 38.8449 140.672 38.531C140.198 38.2171 139.898 37.7585 139.772 37.1553L140.806 36.8967C140.904 37.2784 141.09 37.5646 141.364 37.7554C141.641 37.9462 142.003 38.0416 142.449 38.0416C142.957 38.0416 143.36 37.9339 143.659 37.7185C143.96 37.5 144.111 37.2384 144.111 36.9337C144.111 36.6875 144.025 36.4813 143.853 36.3151C143.68 36.1458 143.416 36.0196 143.059 35.9365L141.877 35.6595C141.227 35.5056 140.75 35.2671 140.446 34.944C140.144 34.6177 139.993 34.2099 139.993 33.7206C139.993 33.3205 140.106 32.9666 140.33 32.6588C140.558 32.351 140.867 32.1095 141.258 31.934C141.652 31.7586 142.098 31.6709 142.597 31.6709C143.299 31.6709 143.85 31.8248 144.25 32.1325C144.653 32.4403 144.939 32.8466 145.108 33.3513ZM149.851 39.0019C149.167 39.0019 148.578 38.851 148.082 38.5494C147.59 38.2448 147.21 37.82 146.942 37.2753C146.678 36.7275 146.545 36.0904 146.545 35.3641C146.545 34.6377 146.678 33.9976 146.942 33.4436C147.21 32.8866 147.582 32.4526 148.059 32.1418C148.54 31.8278 149.1 31.6709 149.74 31.6709C150.109 31.6709 150.474 31.7324 150.834 31.8555C151.194 31.9787 151.522 32.1787 151.817 32.4557C152.113 32.7296 152.348 33.0928 152.524 33.5452C152.699 33.9976 152.787 34.5546 152.787 35.2163V35.678H147.321V34.7362H151.679C151.679 34.3361 151.599 33.9791 151.439 33.6652C151.282 33.3513 151.057 33.1035 150.765 32.922C150.475 32.7404 150.134 32.6496 149.74 32.6496C149.306 32.6496 148.93 32.7573 148.613 32.9727C148.299 33.1851 148.058 33.4621 147.889 33.8037C147.719 34.1453 147.635 34.5116 147.635 34.9024V35.5303C147.635 36.0658 147.727 36.5197 147.912 36.8921C148.099 37.2614 148.359 37.543 148.692 37.7369C149.024 37.9278 149.411 38.0232 149.851 38.0232C150.137 38.0232 150.395 37.9832 150.626 37.9031C150.86 37.82 151.062 37.6969 151.231 37.5338C151.4 37.3676 151.531 37.1614 151.623 36.9152L152.676 37.2107C152.565 37.5677 152.379 37.8816 152.117 38.1524C151.856 38.4202 151.533 38.6295 151.148 38.7803C150.763 38.928 150.331 39.0019 149.851 39.0019ZM154.444 38.8541V31.7632H155.497V32.8712H155.589C155.737 32.4926 155.975 32.1987 156.304 31.9894C156.634 31.7771 157.029 31.6709 157.491 31.6709C157.959 31.6709 158.348 31.7771 158.659 31.9894C158.973 32.1987 159.217 32.4926 159.393 32.8712H159.467C159.648 32.5049 159.921 32.2141 160.284 31.9987C160.647 31.7801 161.082 31.6709 161.59 31.6709C162.224 31.6709 162.743 31.8694 163.146 32.2664C163.549 32.6604 163.751 33.2743 163.751 34.1084V38.8541H162.661V34.1084C162.661 33.5852 162.518 33.2113 162.232 32.9866C161.946 32.7619 161.609 32.6496 161.221 32.6496C160.722 32.6496 160.336 32.8004 160.062 33.102C159.788 33.4005 159.651 33.7791 159.651 34.2376V38.8541H158.543V33.9976C158.543 33.5944 158.413 33.2697 158.151 33.0235C157.889 32.7742 157.552 32.6496 157.14 32.6496C156.857 32.6496 156.592 32.725 156.346 32.8758C156.103 33.0266 155.906 33.2359 155.755 33.5036C155.607 33.7683 155.533 34.0745 155.533 34.4223V38.8541H154.444ZM169.399 31.7632H170.489V39.3712C170.489 39.8082 170.413 40.1867 170.262 40.5068C170.115 40.8269 169.89 41.0747 169.588 41.2501C169.29 41.4255 168.913 41.5132 168.457 41.5132C168.42 41.5132 168.383 41.5132 168.347 41.5132C168.31 41.5132 168.273 41.5132 168.236 41.5132V40.4976C168.273 40.4976 168.307 40.4976 168.337 40.4976C168.368 40.4976 168.402 40.4976 168.439 40.4976C168.771 40.4976 169.014 40.3991 169.168 40.2021C169.322 40.0082 169.399 39.7313 169.399 39.3712V31.7632ZM169.935 30.5814C169.722 30.5814 169.539 30.5091 169.385 30.3644C169.234 30.2198 169.159 30.0459 169.159 29.8428C169.159 29.6396 169.234 29.4657 169.385 29.3211C169.539 29.1765 169.722 29.1041 169.935 29.1041C170.147 29.1041 170.329 29.1765 170.479 29.3211C170.633 29.4657 170.71 29.6396 170.71 29.8428C170.71 30.0459 170.633 30.2198 170.479 30.3644C170.329 30.5091 170.147 30.5814 169.935 30.5814ZM176.953 35.955V31.7632H178.042V38.8541H176.953V37.6538H176.879C176.713 38.0139 176.454 38.3202 176.103 38.5725C175.753 38.8218 175.309 38.9465 174.774 38.9465C174.331 38.9465 173.937 38.8495 173.592 38.6556C173.247 38.4586 172.976 38.1632 172.779 37.7693C172.583 37.3722 172.484 36.8721 172.484 36.2689V31.7632H173.574V36.195C173.574 36.7121 173.718 37.1245 174.007 37.4323C174.3 37.74 174.672 37.8939 175.125 37.8939C175.396 37.8939 175.671 37.8247 175.951 37.6862C176.234 37.5477 176.471 37.3353 176.662 37.0491C176.856 36.7629 176.953 36.3982 176.953 35.955ZM180.038 38.8541V31.7632H181.09V32.8342H181.164C181.293 32.4834 181.527 32.1987 181.866 31.9802C182.204 31.7617 182.586 31.6524 183.011 31.6524C183.091 31.6524 183.191 31.654 183.311 31.657C183.431 31.6601 183.522 31.6647 183.583 31.6709V32.7788C183.546 32.7696 183.462 32.7558 183.329 32.7373C183.2 32.7157 183.063 32.705 182.918 32.705C182.574 32.705 182.266 32.7773 181.995 32.922C181.727 33.0635 181.515 33.2605 181.358 33.5129C181.204 33.7622 181.127 34.0468 181.127 34.3669V38.8541H180.038ZM187.54 39.0019C186.899 39.0019 186.338 38.8495 185.855 38.5448C185.374 38.2401 184.999 37.8139 184.728 37.2661C184.46 36.7182 184.326 36.0781 184.326 35.3456C184.326 34.607 184.46 33.9622 184.728 33.4113C184.999 32.8604 185.374 32.4326 185.855 32.1279C186.338 31.8232 186.899 31.6709 187.54 31.6709C188.18 31.6709 188.74 31.8232 189.22 32.1279C189.703 32.4326 190.079 32.8604 190.346 33.4113C190.617 33.9622 190.753 34.607 190.753 35.3456C190.753 36.0781 190.617 36.7182 190.346 37.2661C190.079 37.8139 189.703 38.2401 189.22 38.5448C188.74 38.8495 188.18 39.0019 187.54 39.0019ZM187.54 38.0232C188.026 38.0232 188.426 37.8985 188.74 37.6492C189.054 37.3999 189.286 37.0722 189.437 36.6659C189.588 36.2597 189.663 35.8196 189.663 35.3456C189.663 34.8716 189.588 34.43 189.437 34.0207C189.286 33.6113 189.054 33.2805 188.74 33.0281C188.426 32.7758 188.026 32.6496 187.54 32.6496C187.053 32.6496 186.653 32.7758 186.339 33.0281C186.025 33.2805 185.793 33.6113 185.642 34.0207C185.491 34.43 185.416 34.8716 185.416 35.3456C185.416 35.8196 185.491 36.2597 185.642 36.6659C185.793 37.0722 186.025 37.3999 186.339 37.6492C186.653 37.8985 187.053 38.0232 187.54 38.0232ZM197.438 33.3513L196.46 33.6283C196.398 33.4652 196.307 33.3067 196.187 33.1528C196.07 32.9958 195.91 32.8666 195.707 32.765C195.504 32.6634 195.244 32.6126 194.927 32.6126C194.493 32.6126 194.131 32.7127 193.842 32.9127C193.556 33.1097 193.413 33.3605 193.413 33.6652C193.413 33.936 193.511 34.1499 193.708 34.3069C193.905 34.4639 194.213 34.5947 194.632 34.6993L195.684 34.9578C196.318 35.1117 196.791 35.3471 197.101 35.6641C197.412 35.9781 197.568 36.3828 197.568 36.8783C197.568 37.2845 197.451 37.6477 197.217 37.9678C196.986 38.2878 196.663 38.5402 196.247 38.7249C195.832 38.9095 195.349 39.0019 194.798 39.0019C194.075 39.0019 193.476 38.8449 193.002 38.531C192.528 38.2171 192.228 37.7585 192.102 37.1553L193.136 36.8967C193.234 37.2784 193.421 37.5646 193.694 37.7554C193.971 37.9462 194.333 38.0416 194.779 38.0416C195.287 38.0416 195.69 37.9339 195.989 37.7185C196.29 37.5 196.441 37.2384 196.441 36.9337C196.441 36.6875 196.355 36.4813 196.183 36.3151C196.01 36.1458 195.746 36.0196 195.389 35.9365L194.207 35.6595C193.557 35.5056 193.08 35.2671 192.776 34.944C192.474 34.6177 192.323 34.2099 192.323 33.7206C192.323 33.3205 192.436 32.9666 192.66 32.6588C192.888 32.351 193.197 32.1095 193.588 31.934C193.982 31.7586 194.428 31.6709 194.927 31.6709C195.629 31.6709 196.18 31.8248 196.58 32.1325C196.983 32.4403 197.269 32.8466 197.438 33.3513Z" fill="#FF0027"/>
</svg>
