<svg width="38" height="38" viewBox="0 0 38 38" fill="none" xmlns="http://www.w3.org/2000/svg">
<path d="M36.1881 29.7441L30.4723 24.0275C29.3339 22.8937 27.4483 22.9284 26.2701 24.1066L23.3906 26.9861C23.2088 26.8854 23.0205 26.7807 22.8224 26.6697C21.0041 25.6621 18.515 24.2811 15.8957 21.66C13.2691 19.0335 11.8863 16.5405 10.876 14.7208C10.7687 14.5279 10.6668 14.3423 10.5661 14.1658L12.4988 12.2356L13.4489 11.2843C14.6291 10.1041 14.6618 8.21902 13.5254 7.0821L7.8094 1.36481C6.67376 0.229177 4.78743 0.263706 3.60721 1.44392L1.9962 3.06407L2.04059 3.10792C1.50055 3.79705 1.04874 4.59214 0.713309 5.44935C0.403457 6.26527 0.21053 7.0441 0.122287 7.82403C-0.632247 14.0814 2.22694 19.7997 9.98677 27.5603C20.713 38.2858 29.3575 37.4758 29.7302 37.4359C30.543 37.3391 31.3209 37.1449 32.1122 36.8376C32.9621 36.5055 33.7566 36.0549 34.445 35.5162L34.4803 35.5469L36.1123 33.9488C37.2899 32.7688 37.3239 30.8837 36.1881 29.7441ZM34.8426 32.678L34.1233 33.396L33.8368 33.6713C33.3857 34.1074 32.6049 34.72 31.4647 35.1659C30.8174 35.4151 30.1792 35.5752 29.5299 35.6525C29.4483 35.6603 21.3178 36.354 11.255 26.292C2.69903 17.7364 1.3279 12.8063 1.90266 8.03139C1.97464 7.39853 2.1334 6.76165 2.38717 6.09609C2.83697 4.94931 3.449 4.1692 3.8818 3.71739L4.87622 2.71311C5.35543 2.23262 6.10284 2.1959 6.54094 2.634L12.2568 8.34983C12.6941 8.78848 12.6596 9.53589 12.1797 10.0178L8.31949 13.8742L8.67575 14.4738C8.87379 14.8079 9.08316 15.1825 9.30678 15.5893C10.3686 17.5044 11.8214 20.1257 14.6271 22.9288C17.4254 25.7286 20.0429 27.1801 21.9521 28.2392C22.3646 28.4674 22.7413 28.6773 23.0793 28.8786L23.6802 29.2349L27.5378 25.376C28.019 24.8968 28.769 24.8613 29.2071 25.2982L34.9204 31.0127C35.3572 31.4506 35.3225 32.198 34.8426 32.678Z" fill="white"/>
</svg>
