<svg width="191" height="47" viewBox="0 0 191 47" fill="none" xmlns="http://www.w3.org/2000/svg">
<path d="M27.2273 19.5384C27.7237 19.1545 27.8149 18.4409 27.431 17.9444C27.0471 17.448 26.3334 17.3568 25.837 17.7408L15.465 25.7625L11.2781 21.5756C10.8343 21.1318 10.1149 21.1318 9.67112 21.5756C9.22738 22.0193 9.22739 22.7388 9.67113 23.1825L14.0939 27.6052C14.7678 28.2791 15.8376 28.3472 16.5916 27.7641L27.2273 19.5384Z" fill="#990018"/>
<path fill-rule="evenodd" clip-rule="evenodd" d="M19.7451 0.390707C18.9684 -0.020942 18.0383 -0.020942 17.2617 0.390707L1.6567 8.66217C0.791176 9.12094 0.24707 10.0188 0.24707 11.0024V24.9678C0.24707 29.4501 3.15424 34.6948 6.70439 38.7334C8.50206 40.7783 10.5205 42.5799 12.5271 43.8791C14.5087 45.1622 16.5952 46.0305 18.5034 46.0305C20.4116 46.0305 22.498 45.1622 24.4797 43.8791C26.4863 42.5799 28.5047 40.7783 30.3023 38.7334C33.8525 34.6948 36.7597 29.4501 36.7597 24.9678V11.0024C36.7597 10.0188 36.2155 9.12094 35.35 8.66217L19.7451 0.390707ZM18.326 2.39863C18.4369 2.33983 18.5698 2.33983 18.6807 2.39863L34.2857 10.6701C34.4114 10.7367 34.4871 10.8642 34.4871 11.0024V24.9678C34.4871 28.6244 32.015 33.343 28.5955 37.2329C26.9084 39.1522 25.0444 40.8062 23.2446 41.9715C21.4198 43.153 19.7759 43.758 18.5034 43.758C17.2308 43.758 15.5869 43.153 13.7622 41.9715C11.9624 40.8062 10.0984 39.1522 8.41122 37.2329C4.99173 33.343 2.51963 28.6244 2.51963 24.9678V11.0024C2.51963 10.8642 2.59533 10.7367 2.721 10.6701L18.326 2.39863Z" fill="#990018"/>
<path d="M53.3204 13.6786C53.2879 13.2724 53.1356 12.9556 52.8635 12.7281C52.5954 12.5007 52.1872 12.3869 51.6388 12.3869C51.2895 12.3869 51.0032 12.4296 50.7798 12.5149C50.5604 12.5961 50.3979 12.7078 50.2923 12.85C50.1867 12.9922 50.1319 13.1546 50.1278 13.3374C50.1197 13.4877 50.1461 13.6238 50.207 13.7456C50.272 13.8634 50.3736 13.9711 50.5117 14.0685C50.6498 14.162 50.8265 14.2473 51.0417 14.3244C51.257 14.4016 51.5129 14.4707 51.8094 14.5316L52.833 14.7509C53.5235 14.8972 54.1145 15.0901 54.606 15.3297C55.0975 15.5694 55.4996 15.8517 55.8124 16.1766C56.1251 16.4975 56.3546 16.859 56.5008 17.2611C56.6511 17.6633 56.7283 18.1019 56.7324 18.5772C56.7283 19.3977 56.5232 20.0922 56.117 20.6609C55.7108 21.2296 55.13 21.6621 54.3745 21.9587C53.623 22.2552 52.7193 22.4034 51.6632 22.4034C50.5787 22.4034 49.6323 22.243 48.824 21.9221C48.0197 21.6012 47.3942 21.1077 46.9474 20.4416C46.5047 19.7714 46.2813 18.9143 46.2772 17.8704H49.4942C49.5145 18.2522 49.6099 18.5731 49.7805 18.8331C49.9511 19.093 50.1908 19.29 50.4995 19.4241C50.8123 19.5581 51.1839 19.6251 51.6145 19.6251C51.976 19.6251 52.2786 19.5805 52.5223 19.4911C52.766 19.4017 52.9508 19.2778 53.0767 19.1194C53.2026 18.961 53.2676 18.7803 53.2717 18.5772C53.2676 18.3863 53.2047 18.2197 53.0828 18.0776C52.965 17.9314 52.7701 17.8014 52.4979 17.6876C52.2258 17.5698 51.8582 17.4602 51.3951 17.3586L50.1522 17.0906C49.0474 16.8509 48.1761 16.4508 47.5384 15.8903C46.9048 15.3257 46.59 14.556 46.594 13.5811C46.59 12.7891 46.8012 12.0965 47.2277 11.5035C47.6582 10.9064 48.2533 10.4413 49.0129 10.1083C49.7765 9.77519 50.6518 9.60866 51.6388 9.60866C52.6462 9.60866 53.5174 9.77722 54.2526 10.1144C54.9878 10.4515 55.5544 10.9267 55.9525 11.5401C56.3546 12.1493 56.5577 12.8622 56.5618 13.6786H53.3204ZM61.4086 9.77925V22.2572H58.021V9.77925H61.4086ZM62.6728 12.5088V9.77925H73.5179V12.5088H69.7648V22.2572H66.4259V12.5088H62.6728ZM74.7928 22.2572V9.77925H83.7857V12.5088H78.1804V14.6535H83.3226V17.383H78.1804V19.5277H83.7613V22.2572H74.7928ZM95.6102 13.6786C95.5777 13.2724 95.4254 12.9556 95.1532 12.7281C94.8852 12.5007 94.4769 12.3869 93.9286 12.3869C93.5793 12.3869 93.2929 12.4296 93.0695 12.5149C92.8502 12.5961 92.6877 12.7078 92.5821 12.85C92.4765 12.9922 92.4217 13.1546 92.4176 13.3374C92.4095 13.4877 92.4359 13.6238 92.4968 13.7456C92.5618 13.8634 92.6633 13.9711 92.8014 14.0685C92.9395 14.162 93.1162 14.2473 93.3315 14.3244C93.5468 14.4016 93.8027 14.4707 94.0992 14.5316L95.1228 14.7509C95.8133 14.8972 96.4043 15.0901 96.8958 15.3297C97.3872 15.5694 97.7894 15.8517 98.1021 16.1766C98.4149 16.4975 98.6444 16.859 98.7906 17.2611C98.9409 17.6633 99.0181 18.1019 99.0221 18.5772C99.0181 19.3977 98.813 20.0922 98.4068 20.6609C98.0006 21.2296 97.4197 21.6621 96.6642 21.9587C95.9128 22.2552 95.009 22.4034 93.953 22.4034C92.8685 22.4034 91.9221 22.243 91.1137 21.9221C90.3095 21.6012 89.684 21.1077 89.2372 20.4416C88.7944 19.7714 88.571 18.9143 88.567 17.8704H91.784C91.8043 18.2522 91.8997 18.5731 92.0703 18.8331C92.2409 19.093 92.4806 19.29 92.7893 19.4241C93.102 19.5581 93.4737 19.6251 93.9042 19.6251C94.2657 19.6251 94.5683 19.5805 94.812 19.4911C95.0558 19.4017 95.2406 19.2778 95.3665 19.1194C95.4924 18.961 95.5574 18.7803 95.5615 18.5772C95.5574 18.3863 95.4944 18.2197 95.3726 18.0776C95.2548 17.9314 95.0598 17.8014 94.7877 17.6876C94.5155 17.5698 94.1479 17.4602 93.6849 17.3586L92.442 17.0906C91.3371 16.8509 90.4659 16.4508 89.8282 15.8903C89.1945 15.3257 88.8797 14.556 88.8838 13.5811C88.8797 12.7891 89.091 12.0965 89.5174 11.5035C89.948 10.9064 90.5431 10.4413 91.3026 10.1083C92.0662 9.77519 92.9416 9.60866 93.9286 9.60866C94.9359 9.60866 95.8072 9.77722 96.5424 10.1144C97.2776 10.4515 97.8442 10.9267 98.2423 11.5401C98.6444 12.1493 98.8475 12.8622 98.8515 13.6786H95.6102ZM100.311 22.2572V9.77925H109.304V12.5088H103.698V14.6535H108.841V17.383H103.698V19.5277H109.279V22.2572H100.311ZM119.087 13.898C119.034 13.6827 118.951 13.4938 118.837 13.3313C118.724 13.1648 118.581 13.0247 118.411 12.9109C118.244 12.7931 118.049 12.7058 117.826 12.6489C117.607 12.588 117.365 12.5575 117.101 12.5575C116.532 12.5575 116.047 12.6936 115.645 12.9658C115.247 13.2379 114.942 13.6299 114.731 14.1417C114.524 14.6535 114.42 15.2709 114.42 15.9939C114.42 16.725 114.52 17.3505 114.719 17.8704C114.918 18.3903 115.214 18.7884 115.608 19.0646C116.002 19.3408 116.492 19.4789 117.076 19.4789C117.592 19.4789 118.021 19.4038 118.362 19.2535C118.707 19.1032 118.965 18.8899 119.136 18.6137C119.306 18.3375 119.392 18.0126 119.392 17.6389L119.977 17.6998H117.125V15.2871H122.657V17.0174C122.657 18.1548 122.416 19.1276 121.932 19.9359C121.453 20.7401 120.791 21.3575 119.946 21.7881C119.105 22.2146 118.141 22.4278 117.052 22.4278C115.838 22.4278 114.771 22.1699 113.853 21.654C112.935 21.1382 112.219 20.403 111.703 19.4484C111.191 18.4939 110.935 17.3586 110.935 16.0426C110.935 15.0109 111.091 14.097 111.404 13.3009C111.721 12.5047 112.16 11.8325 112.72 11.2842C113.281 10.7318 113.929 10.3154 114.664 10.0351C115.399 9.75082 116.187 9.60866 117.028 9.60866C117.767 9.60866 118.453 9.71426 119.087 9.92548C119.725 10.1326 120.287 10.4291 120.775 10.815C121.266 11.1968 121.662 11.6497 121.963 12.1737C122.263 12.6977 122.446 13.2724 122.511 13.898H119.087ZM131.621 9.77925H135.009V17.7729C135.009 18.7234 134.781 19.5459 134.327 20.2405C133.876 20.931 133.246 21.4651 132.438 21.8429C131.63 22.2166 130.691 22.4034 129.623 22.4034C128.547 22.4034 127.604 22.2166 126.796 21.8429C125.988 21.4651 125.358 20.931 124.907 20.2405C124.46 19.5459 124.237 18.7234 124.237 17.7729V9.77925H127.625V17.4805C127.625 17.8664 127.71 18.2116 127.88 18.5163C128.051 18.8168 128.287 19.0524 128.587 19.223C128.892 19.3936 129.237 19.4789 129.623 19.4789C130.013 19.4789 130.358 19.3936 130.659 19.223C130.959 19.0524 131.195 18.8168 131.365 18.5163C131.536 18.2116 131.621 17.8664 131.621 17.4805V9.77925ZM136.619 22.2572V9.77925H142.005C142.931 9.77925 143.741 9.94782 144.436 10.285C145.131 10.6221 145.671 11.1075 146.057 11.7411C146.443 12.3748 146.635 13.1343 146.635 14.0198C146.635 14.9134 146.436 15.6669 146.038 16.2802C145.644 16.8936 145.09 17.3566 144.375 17.6694C143.664 17.9821 142.834 18.1385 141.883 18.1385H138.666V15.5064H141.201C141.599 15.5064 141.938 15.4577 142.218 15.3602C142.503 15.2587 142.72 15.0982 142.87 14.8789C143.024 14.6595 143.102 14.3732 143.102 14.0198C143.102 13.6624 143.024 13.3719 142.87 13.1485C142.72 12.9211 142.503 12.7545 142.218 12.6489C141.938 12.5393 141.599 12.4844 141.201 12.4844H140.007V22.2572H136.619ZM143.93 16.53L147.05 22.2572H143.37L140.323 16.53H143.93ZM160.167 16.0182C160.167 17.4074 159.897 18.5792 159.357 19.5337C158.817 20.4842 158.088 21.2052 157.17 21.6967C156.252 22.1841 155.228 22.4278 154.099 22.4278C152.962 22.4278 151.934 22.1821 151.016 21.6906C150.102 21.195 149.375 20.472 148.835 19.5216C148.299 18.567 148.031 17.3993 148.031 16.0182C148.031 14.6291 148.299 13.4593 148.835 12.5088C149.375 11.5543 150.102 10.8333 151.016 10.3459C151.934 9.8544 152.962 9.60866 154.099 9.60866C155.228 9.60866 156.252 9.8544 157.17 10.3459C158.088 10.8333 158.817 11.5543 159.357 12.5088C159.897 13.4593 160.167 14.6291 160.167 16.0182ZM156.682 16.0182C156.682 15.2709 156.583 14.6413 156.384 14.1295C156.189 13.6136 155.898 13.2237 155.513 12.9597C155.131 12.6916 154.66 12.5575 154.099 12.5575C153.539 12.5575 153.065 12.6916 152.679 12.9597C152.298 13.2237 152.007 13.6136 151.808 14.1295C151.613 14.6413 151.516 15.2709 151.516 16.0182C151.516 16.7656 151.613 17.3972 151.808 17.9131C152.007 18.4249 152.298 18.8148 152.679 19.0829C153.065 19.3469 153.539 19.4789 154.099 19.4789C154.66 19.4789 155.131 19.3469 155.513 19.0829C155.898 18.8148 156.189 18.4249 156.384 17.9131C156.583 17.3972 156.682 16.7656 156.682 16.0182Z" fill="white"/>
<path d="M49.6676 38.6519C49.0029 38.6519 48.4304 38.4949 47.9503 38.181C47.4702 37.8671 47.1009 37.4347 46.8424 36.8838C46.5838 36.3329 46.4546 35.7035 46.4546 34.9956C46.4546 34.2755 46.5869 33.6399 46.8516 33.089C47.1193 32.535 47.4917 32.1026 47.9688 31.7918C48.4489 31.4779 49.009 31.3209 49.6492 31.3209C50.1477 31.3209 50.5971 31.4132 50.9972 31.5979C51.3973 31.7826 51.725 32.0411 51.9805 32.3735C52.2359 32.7059 52.3944 33.0936 52.456 33.5368H51.3665C51.2834 33.2137 51.0987 32.9274 50.8125 32.6782C50.5294 32.4258 50.1477 32.2996 49.6676 32.2996C49.2429 32.2996 48.8705 32.4104 48.5504 32.632C48.2335 32.8505 47.9857 33.1598 47.8072 33.5599C47.6318 33.9569 47.5441 34.4232 47.5441 34.9587C47.5441 35.5065 47.6302 35.9836 47.8026 36.3898C47.978 36.7961 48.2242 37.1115 48.5412 37.3362C48.8613 37.5609 49.2368 37.6732 49.6676 37.6732C49.9508 37.6732 50.2078 37.6239 50.4386 37.5255C50.6694 37.427 50.8648 37.2854 51.0249 37.1007C51.1849 36.9161 51.2988 36.6945 51.3665 36.436H52.456C52.3944 36.8545 52.2421 37.2315 51.999 37.567C51.7589 37.8994 51.4404 38.1641 51.0433 38.361C50.6494 38.5549 50.1908 38.6519 49.6676 38.6519ZM56.9294 38.6519C56.2892 38.6519 55.7275 38.4995 55.2443 38.1948C54.7642 37.8902 54.3888 37.4639 54.1179 36.9161C53.8502 36.3683 53.7163 35.7281 53.7163 34.9956C53.7163 34.257 53.8502 33.6122 54.1179 33.0613C54.3888 32.5104 54.7642 32.0826 55.2443 31.7779C55.7275 31.4733 56.2892 31.3209 56.9294 31.3209C57.5695 31.3209 58.1296 31.4733 58.6098 31.7779C59.0929 32.0826 59.4684 32.5104 59.7362 33.0613C60.007 33.6122 60.1424 34.257 60.1424 34.9956C60.1424 35.7281 60.007 36.3683 59.7362 36.9161C59.4684 37.4639 59.0929 37.8902 58.6098 38.1948C58.1296 38.4995 57.5695 38.6519 56.9294 38.6519ZM56.9294 37.6732C57.4156 37.6732 57.8157 37.5485 58.1296 37.2992C58.4436 37.05 58.6759 36.7222 58.8267 36.3159C58.9775 35.9097 59.0529 35.4696 59.0529 34.9956C59.0529 34.5217 58.9775 34.08 58.8267 33.6707C58.6759 33.2614 58.4436 32.9305 58.1296 32.6782C57.8157 32.4258 57.4156 32.2996 56.9294 32.2996C56.4431 32.2996 56.043 32.4258 55.7291 32.6782C55.4152 32.9305 55.1828 33.2614 55.032 33.6707C54.8812 34.08 54.8058 34.5217 54.8058 34.9956C54.8058 35.4696 54.8812 35.9097 55.032 36.3159C55.1828 36.7222 55.4152 37.05 55.7291 37.2992C56.043 37.5485 56.4431 37.6732 56.9294 37.6732ZM61.8055 38.5042V31.4132H62.8581V32.5212H62.9504C63.0981 32.1426 63.3366 31.8487 63.6659 31.6394C63.9953 31.4271 64.3907 31.3209 64.8524 31.3209C65.3202 31.3209 65.7095 31.4271 66.0204 31.6394C66.3343 31.8487 66.5789 32.1426 66.7544 32.5212H66.8282C67.0098 32.155 67.2822 31.8641 67.6454 31.6487C68.0085 31.4302 68.444 31.3209 68.9518 31.3209C69.5858 31.3209 70.1044 31.5194 70.5076 31.9164C70.9107 32.3104 71.1123 32.9244 71.1123 33.7584V38.5042H70.0228V33.7584C70.0228 33.2352 69.8797 32.8613 69.5935 32.6366C69.3073 32.4119 68.9703 32.2996 68.5825 32.2996C68.0839 32.2996 67.6977 32.4504 67.4238 32.752C67.1499 33.0506 67.0129 33.4291 67.0129 33.8877V38.5042H65.9049V33.6476C65.9049 33.2444 65.7741 32.9198 65.5125 32.6735C65.2509 32.4242 64.9139 32.2996 64.5015 32.2996C64.2184 32.2996 63.9537 32.375 63.7075 32.5258C63.4644 32.6766 63.2674 32.8859 63.1166 33.1537C62.9689 33.4183 62.895 33.7246 62.895 34.0723V38.5042H61.8055ZM73.1043 41.1632V31.4132H74.1569V32.5397H74.2862C74.3662 32.4166 74.477 32.2596 74.6185 32.0688C74.7632 31.8749 74.9694 31.7025 75.2371 31.5517C75.508 31.3979 75.8742 31.3209 76.3359 31.3209C76.9329 31.3209 77.4592 31.4702 77.9147 31.7687C78.3702 32.0672 78.7257 32.4904 78.9811 33.0382C79.2366 33.5861 79.3643 34.2324 79.3643 34.9772C79.3643 35.7281 79.2366 36.379 78.9811 36.9299C78.7257 37.4778 78.3717 37.9025 77.9193 38.2041C77.4669 38.5026 76.9452 38.6519 76.3543 38.6519C75.8988 38.6519 75.5341 38.5765 75.2602 38.4257C74.9863 38.2718 74.7755 38.0979 74.6278 37.904C74.48 37.707 74.3662 37.5439 74.2862 37.4147H74.1938V41.1632H73.1043ZM74.1754 34.9587C74.1754 35.4942 74.2538 35.9666 74.4108 36.376C74.5678 36.7822 74.797 37.1007 75.0987 37.3316C75.4003 37.5593 75.7696 37.6732 76.2066 37.6732C76.6621 37.6732 77.0422 37.5532 77.3469 37.3131C77.6546 37.07 77.8855 36.7437 78.0394 36.3344C78.1963 35.922 78.2748 35.4634 78.2748 34.9587C78.2748 34.4601 78.1979 34.0108 78.044 33.6107C77.8932 33.2075 77.6639 32.889 77.3561 32.6551C77.0514 32.4181 76.6683 32.2996 76.2066 32.2996C75.7634 32.2996 75.391 32.4119 75.0894 32.6366C74.7878 32.8582 74.5601 33.169 74.4062 33.5691C74.2523 33.9662 74.1754 34.4293 74.1754 34.9587ZM81.0262 38.5042V31.4132H82.0788V32.4843H82.1526C82.2819 32.1334 82.5158 31.8487 82.8543 31.6302C83.1929 31.4117 83.5745 31.3024 83.9992 31.3024C84.0792 31.3024 84.1793 31.304 84.2993 31.3071C84.4193 31.3101 84.5101 31.3148 84.5717 31.3209V32.4289C84.5347 32.4196 84.4501 32.4058 84.3178 32.3873C84.1885 32.3658 84.0515 32.355 83.9069 32.355C83.5622 32.355 83.2544 32.4273 82.9836 32.572C82.7158 32.7135 82.5035 32.9105 82.3465 33.1629C82.1926 33.4122 82.1157 33.6969 82.1157 34.0169V38.5042H81.0262ZM88.6203 38.6519C87.9371 38.6519 87.3477 38.5011 86.8522 38.1995C86.3598 37.8948 85.9797 37.4701 85.7119 36.9253C85.4473 36.3775 85.3149 35.7404 85.3149 35.0141C85.3149 34.2878 85.4473 33.6476 85.7119 33.0936C85.9797 32.5366 86.3521 32.1026 86.8291 31.7918C87.3092 31.4779 87.8694 31.3209 88.5095 31.3209C88.8788 31.3209 89.2435 31.3825 89.6036 31.5056C89.9637 31.6287 90.2915 31.8287 90.5869 32.1057C90.8824 32.3796 91.1178 32.7428 91.2933 33.1952C91.4687 33.6476 91.5564 34.2047 91.5564 34.8664V35.328H86.0905V34.3863H90.4484C90.4484 33.9862 90.3684 33.6292 90.2084 33.3152C90.0514 33.0013 89.8268 32.7536 89.5344 32.572C89.2451 32.3904 88.9035 32.2996 88.5095 32.2996C88.0756 32.2996 87.7001 32.4073 87.3831 32.6228C87.0692 32.8351 86.8276 33.1121 86.6583 33.4537C86.489 33.7953 86.4044 34.1616 86.4044 34.5524V35.1803C86.4044 35.7158 86.4967 36.1698 86.6814 36.5421C86.8691 36.9115 87.1292 37.1931 87.4616 37.387C87.794 37.5778 88.1802 37.6732 88.6203 37.6732C88.9065 37.6732 89.1651 37.6332 89.3959 37.5532C89.6298 37.4701 89.8314 37.347 90.0006 37.1838C90.1699 37.0176 90.3007 36.8114 90.393 36.5652L91.4456 36.8607C91.3348 37.2177 91.1486 37.5316 90.887 37.8024C90.6254 38.0702 90.3023 38.2795 89.9175 38.4303C89.5328 38.578 89.1004 38.6519 88.6203 38.6519ZM99.7506 38.6519C99.0859 38.6519 98.5134 38.4949 98.0333 38.181C97.5532 37.8671 97.1839 37.4347 96.9254 36.8838C96.6668 36.3329 96.5376 35.7035 96.5376 34.9956C96.5376 34.2755 96.6699 33.6399 96.9346 33.089C97.2023 32.535 97.5747 32.1026 98.0518 31.7918C98.5319 31.4779 99.092 31.3209 99.7322 31.3209C100.231 31.3209 100.68 31.4132 101.08 31.5979C101.48 31.7826 101.808 32.0411 102.063 32.3735C102.319 32.7059 102.477 33.0936 102.539 33.5368H101.45C101.366 33.2137 101.182 32.9274 100.896 32.6782C100.612 32.4258 100.231 32.2996 99.7506 32.2996C99.3259 32.2996 98.9535 32.4104 98.6335 32.632C98.3165 32.8505 98.0687 33.1598 97.8902 33.5599C97.7148 33.9569 97.6271 34.4232 97.6271 34.9587C97.6271 35.5065 97.7132 35.9836 97.8856 36.3898C98.061 36.7961 98.3072 37.1115 98.6242 37.3362C98.9443 37.5609 99.3198 37.6732 99.7506 37.6732C100.034 37.6732 100.291 37.6239 100.522 37.5255C100.752 37.427 100.948 37.2854 101.108 37.1007C101.268 36.9161 101.382 36.6945 101.45 36.436H102.539C102.477 36.8545 102.325 37.2315 102.082 37.567C101.842 37.8994 101.523 38.1641 101.126 38.361C100.732 38.5549 100.274 38.6519 99.7506 38.6519ZM107.012 38.6519C106.372 38.6519 105.811 38.4995 105.327 38.1948C104.847 37.8902 104.472 37.4639 104.201 36.9161C103.933 36.3683 103.799 35.7281 103.799 34.9956C103.799 34.257 103.933 33.6122 104.201 33.0613C104.472 32.5104 104.847 32.0826 105.327 31.7779C105.811 31.4733 106.372 31.3209 107.012 31.3209C107.653 31.3209 108.213 31.4733 108.693 31.7779C109.176 32.0826 109.551 32.5104 109.819 33.0613C110.09 33.6122 110.225 34.257 110.225 34.9956C110.225 35.7281 110.09 36.3683 109.819 36.9161C109.551 37.4639 109.176 37.8902 108.693 38.1948C108.213 38.4995 107.653 38.6519 107.012 38.6519ZM107.012 37.6732C107.499 37.6732 107.899 37.5485 108.213 37.2992C108.527 37.05 108.759 36.7222 108.91 36.3159C109.061 35.9097 109.136 35.4696 109.136 34.9956C109.136 34.5217 109.061 34.08 108.91 33.6707C108.759 33.2614 108.527 32.9305 108.213 32.6782C107.899 32.4258 107.499 32.2996 107.012 32.2996C106.526 32.2996 106.126 32.4258 105.812 32.6782C105.498 32.9305 105.266 33.2614 105.115 33.6707C104.964 34.08 104.889 34.5217 104.889 34.9956C104.889 35.4696 104.964 35.9097 105.115 36.3159C105.266 36.7222 105.498 37.05 105.812 37.2992C106.126 37.5485 106.526 37.6732 107.012 37.6732ZM111.889 38.5042V31.4132H112.941V32.5212H113.033C113.181 32.1426 113.42 31.8487 113.749 31.6394C114.078 31.4271 114.474 31.3209 114.935 31.3209C115.403 31.3209 115.793 31.4271 116.103 31.6394C116.417 31.8487 116.662 32.1426 116.837 32.5212H116.911C117.093 32.155 117.365 31.8641 117.728 31.6487C118.092 31.4302 118.527 31.3209 119.035 31.3209C119.669 31.3209 120.187 31.5194 120.591 31.9164C120.994 32.3104 121.195 32.9244 121.195 33.7584V38.5042H120.106V33.7584C120.106 33.2352 119.963 32.8613 119.677 32.6366C119.39 32.4119 119.053 32.2996 118.666 32.2996C118.167 32.2996 117.781 32.4504 117.507 32.752C117.233 33.0506 117.096 33.4291 117.096 33.8877V38.5042H115.988V33.6476C115.988 33.2444 115.857 32.9198 115.596 32.6735C115.334 32.4242 114.997 32.2996 114.585 32.2996C114.301 32.2996 114.037 32.375 113.791 32.5258C113.547 32.6766 113.35 32.8859 113.2 33.1537C113.052 33.4183 112.978 33.7246 112.978 34.0723V38.5042H111.889ZM131.866 33.0013L130.888 33.2783C130.826 33.1152 130.735 32.9567 130.615 32.8028C130.498 32.6458 130.338 32.5166 130.135 32.415C129.932 32.3135 129.672 32.2627 129.355 32.2627C128.921 32.2627 128.559 32.3627 128.27 32.5627C127.984 32.7597 127.841 33.0105 127.841 33.3152C127.841 33.5861 127.939 33.8 128.136 33.9569C128.333 34.1139 128.641 34.2447 129.06 34.3493L130.112 34.6078C130.746 34.7617 131.218 34.9972 131.529 35.3142C131.84 35.6281 131.996 36.0328 131.996 36.5283C131.996 36.9345 131.879 37.2977 131.645 37.6178C131.414 37.9379 131.091 38.1902 130.675 38.3749C130.26 38.5595 129.777 38.6519 129.226 38.6519C128.502 38.6519 127.904 38.4949 127.43 38.181C126.956 37.8671 126.656 37.4085 126.53 36.8053L127.564 36.5468C127.662 36.9284 127.848 37.2146 128.122 37.4054C128.399 37.5962 128.761 37.6917 129.207 37.6917C129.715 37.6917 130.118 37.5839 130.417 37.3685C130.718 37.15 130.869 36.8884 130.869 36.5837C130.869 36.3375 130.783 36.1313 130.611 35.9651C130.438 35.7958 130.174 35.6696 129.817 35.5865L128.635 35.3095C127.985 35.1557 127.508 34.9171 127.204 34.594C126.902 34.2678 126.751 33.86 126.751 33.3706C126.751 32.9705 126.864 32.6166 127.088 32.3088C127.316 32.0011 127.625 31.7595 128.016 31.5841C128.41 31.4086 128.856 31.3209 129.355 31.3209C130.057 31.3209 130.608 31.4748 131.008 31.7826C131.411 32.0903 131.697 32.4966 131.866 33.0013ZM136.609 38.6519C135.925 38.6519 135.336 38.5011 134.84 38.1995C134.348 37.8948 133.968 37.4701 133.7 36.9253C133.436 36.3775 133.303 35.7404 133.303 35.0141C133.303 34.2878 133.436 33.6476 133.7 33.0936C133.968 32.5366 134.34 32.1026 134.817 31.7918C135.298 31.4779 135.858 31.3209 136.498 31.3209C136.867 31.3209 137.232 31.3825 137.592 31.5056C137.952 31.6287 138.28 31.8287 138.575 32.1057C138.871 32.3796 139.106 32.7428 139.282 33.1952C139.457 33.6476 139.545 34.2047 139.545 34.8664V35.328H134.079V34.3863H138.437C138.437 33.9862 138.357 33.6292 138.197 33.3152C138.04 33.0013 137.815 32.7536 137.523 32.572C137.233 32.3904 136.892 32.2996 136.498 32.2996C136.064 32.2996 135.688 32.4073 135.371 32.6228C135.057 32.8351 134.816 33.1121 134.647 33.4537C134.477 33.7953 134.393 34.1616 134.393 34.5524V35.1803C134.393 35.7158 134.485 36.1698 134.67 36.5421C134.857 36.9115 135.117 37.1931 135.45 37.387C135.782 37.5778 136.168 37.6732 136.609 37.6732C136.895 37.6732 137.153 37.6332 137.384 37.5532C137.618 37.4701 137.82 37.347 137.989 37.1838C138.158 37.0176 138.289 36.8114 138.381 36.5652L139.434 36.8607C139.323 37.2177 139.137 37.5316 138.875 37.8024C138.614 38.0702 138.291 38.2795 137.906 38.4303C137.521 38.578 137.089 38.6519 136.609 38.6519ZM144.064 41.311C143.538 41.311 143.086 41.2433 142.707 41.1078C142.328 40.9755 142.013 40.8001 141.761 40.5816C141.511 40.3661 141.313 40.1353 141.165 39.8891L142.033 39.2797C142.131 39.409 142.256 39.5567 142.407 39.7229C142.558 39.8922 142.764 40.0384 143.026 40.1615C143.29 40.2876 143.636 40.3507 144.064 40.3507C144.637 40.3507 145.109 40.2122 145.481 39.9353C145.854 39.6583 146.04 39.2243 146.04 38.6334V37.1931H145.948C145.868 37.3223 145.754 37.4824 145.606 37.6732C145.461 37.8609 145.252 38.0287 144.978 38.1764C144.707 38.321 144.341 38.3934 143.88 38.3934C143.307 38.3934 142.793 38.2579 142.338 37.9871C141.885 37.7163 141.527 37.3223 141.262 36.8053C141 36.2882 140.87 35.6604 140.87 34.9218C140.87 34.1954 140.997 33.563 141.253 33.0244C141.508 32.4827 141.864 32.0642 142.319 31.7687C142.775 31.4702 143.301 31.3209 143.898 31.3209C144.36 31.3209 144.726 31.3979 144.997 31.5517C145.271 31.7025 145.48 31.8749 145.625 32.0688C145.772 32.2596 145.886 32.4166 145.966 32.5397H146.077V31.4132H147.13V38.7073C147.13 39.3167 146.991 39.8122 146.714 40.1938C146.44 40.5785 146.071 40.8601 145.606 41.0386C145.144 41.2202 144.63 41.311 144.064 41.311ZM144.027 37.4147C144.464 37.4147 144.834 37.3146 145.135 37.1146C145.437 36.9145 145.666 36.6268 145.823 36.2513C145.98 35.8758 146.059 35.4265 146.059 34.9033C146.059 34.3924 145.982 33.9415 145.828 33.5507C145.674 33.1598 145.446 32.8536 145.144 32.632C144.843 32.4104 144.47 32.2996 144.027 32.2996C143.566 32.2996 143.181 32.4166 142.873 32.6505C142.568 32.8844 142.339 33.1983 142.185 33.5922C142.034 33.9862 141.959 34.4232 141.959 34.9033C141.959 35.3957 142.036 35.8312 142.19 36.2098C142.347 36.5852 142.578 36.8807 142.882 37.0961C143.19 37.3085 143.572 37.4147 144.027 37.4147ZM153.593 35.605V31.4132H154.682V38.5042H153.593V37.3039H153.519C153.353 37.664 153.094 37.9702 152.743 38.2225C152.392 38.4718 151.949 38.5965 151.414 38.5965C150.97 38.5965 150.577 38.4995 150.232 38.3056C149.887 38.1087 149.616 37.8132 149.419 37.4193C149.222 37.0223 149.124 36.5221 149.124 35.9189V31.4132H150.213V35.8451C150.213 36.3621 150.358 36.7745 150.647 37.0823C150.94 37.39 151.312 37.5439 151.764 37.5439C152.035 37.5439 152.311 37.4747 152.591 37.3362C152.874 37.1977 153.111 36.9853 153.302 36.6991C153.496 36.4129 153.593 36.0482 153.593 35.605ZM156.678 38.5042V31.4132H157.73V32.4843H157.804C157.933 32.1334 158.167 31.8487 158.506 31.6302C158.844 31.4117 159.226 31.3024 159.651 31.3024C159.731 31.3024 159.831 31.304 159.951 31.3071C160.071 31.3101 160.161 31.3148 160.223 31.3209V32.4289C160.186 32.4196 160.101 32.4058 159.969 32.3873C159.84 32.3658 159.703 32.355 159.558 32.355C159.214 32.355 158.906 32.4273 158.635 32.572C158.367 32.7135 158.155 32.9105 157.998 33.1629C157.844 33.4122 157.767 33.6969 157.767 34.0169V38.5042H156.678ZM163.601 38.6703C163.152 38.6703 162.744 38.5857 162.378 38.4164C162.012 38.2441 161.721 37.9963 161.505 37.6732C161.29 37.347 161.182 36.953 161.182 36.4914C161.182 36.0851 161.262 35.7558 161.422 35.5034C161.582 35.248 161.796 35.0479 162.064 34.9033C162.332 34.7586 162.627 34.6509 162.95 34.5801C163.276 34.5063 163.604 34.4478 163.934 34.4047C164.364 34.3493 164.714 34.3078 164.981 34.2801C165.252 34.2493 165.449 34.1985 165.572 34.1277C165.699 34.0569 165.762 33.9338 165.762 33.7584V33.7215C165.762 33.266 165.637 32.9121 165.388 32.6597C165.142 32.4073 164.768 32.2811 164.266 32.2811C163.746 32.2811 163.338 32.395 163.043 32.6228C162.747 32.8505 162.539 33.0936 162.419 33.3522L161.385 32.9828C161.57 32.552 161.816 32.2165 162.124 31.9765C162.435 31.7333 162.773 31.564 163.139 31.4686C163.509 31.3702 163.872 31.3209 164.229 31.3209C164.457 31.3209 164.718 31.3486 165.014 31.404C165.312 31.4563 165.6 31.5656 165.877 31.7318C166.157 31.898 166.389 32.1488 166.574 32.4843C166.759 32.8197 166.851 33.2691 166.851 33.8323V38.5042H165.762V37.5439H165.706C165.632 37.6978 165.509 37.8625 165.337 38.0379C165.165 38.2133 164.935 38.3626 164.649 38.4857C164.363 38.6088 164.014 38.6703 163.601 38.6703ZM163.767 37.6917C164.198 37.6917 164.561 37.607 164.857 37.4377C165.155 37.2685 165.38 37.05 165.531 36.7822C165.685 36.5144 165.762 36.2328 165.762 35.9374V34.9402C165.715 34.9956 165.614 35.0464 165.457 35.0926C165.303 35.1357 165.125 35.1741 164.921 35.208C164.721 35.2388 164.526 35.2665 164.335 35.2911C164.147 35.3126 163.995 35.3311 163.878 35.3465C163.595 35.3834 163.33 35.4434 163.084 35.5265C162.841 35.6065 162.644 35.7281 162.493 35.8912C162.345 36.0513 162.272 36.2698 162.272 36.5468C162.272 36.9253 162.412 37.2115 162.692 37.4054C162.975 37.5962 163.333 37.6917 163.767 37.6917ZM169.929 34.2385V38.5042H168.84V31.4132H169.892V32.5212H169.985C170.151 32.1611 170.403 31.8718 170.742 31.6533C171.08 31.4317 171.517 31.3209 172.053 31.3209C172.533 31.3209 172.953 31.4194 173.313 31.6164C173.673 31.8103 173.953 32.1057 174.153 32.5027C174.353 32.8967 174.453 33.3952 174.453 33.9985V38.5042H173.364V34.0723C173.364 33.5153 173.219 33.0813 172.93 32.7705C172.641 32.4566 172.244 32.2996 171.739 32.2996C171.391 32.2996 171.08 32.375 170.806 32.5258C170.535 32.6766 170.322 32.8967 170.165 33.186C170.008 33.4753 169.929 33.8261 169.929 34.2385ZM179.325 38.6519C178.66 38.6519 178.088 38.4949 177.608 38.181C177.127 37.8671 176.758 37.4347 176.5 36.8838C176.241 36.3329 176.112 35.7035 176.112 34.9956C176.112 34.2755 176.244 33.6399 176.509 33.089C176.777 32.535 177.149 32.1026 177.626 31.7918C178.106 31.4779 178.666 31.3209 179.306 31.3209C179.805 31.3209 180.254 31.4132 180.654 31.5979C181.055 31.7826 181.382 32.0411 181.638 32.3735C181.893 32.7059 182.052 33.0936 182.113 33.5368H181.024C180.941 33.2137 180.756 32.9274 180.47 32.6782C180.187 32.4258 179.805 32.2996 179.325 32.2996C178.9 32.2996 178.528 32.4104 178.208 32.632C177.891 32.8505 177.643 33.1598 177.464 33.5599C177.289 33.9569 177.201 34.4232 177.201 34.9587C177.201 35.5065 177.287 35.9836 177.46 36.3898C177.635 36.7961 177.881 37.1115 178.198 37.3362C178.519 37.5609 178.894 37.6732 179.325 37.6732C179.608 37.6732 179.865 37.6239 180.096 37.5255C180.327 37.427 180.522 37.2854 180.682 37.1007C180.842 36.9161 180.956 36.6945 181.024 36.436H182.113C182.052 36.8545 181.899 37.2315 181.656 37.567C181.416 37.8994 181.098 38.1641 180.701 38.361C180.307 38.5549 179.848 38.6519 179.325 38.6519ZM178.808 38.4672H179.713L179.639 38.8365C179.879 38.8735 180.099 38.9735 180.299 39.1366C180.499 39.3028 180.599 39.5659 180.599 39.926C180.599 40.323 180.434 40.6462 180.105 40.8955C179.779 41.1479 179.297 41.274 178.66 41.274L178.623 40.5539C178.909 40.5539 179.146 40.5077 179.334 40.4154C179.525 40.3261 179.62 40.1753 179.62 39.963C179.62 39.7506 179.542 39.6059 179.385 39.529C179.228 39.4521 178.974 39.3997 178.623 39.372L178.808 38.4672ZM185.793 38.6703C185.343 38.6703 184.935 38.5857 184.569 38.4164C184.203 38.2441 183.912 37.9963 183.697 37.6732C183.481 37.347 183.374 36.953 183.374 36.4914C183.374 36.0851 183.454 35.7558 183.614 35.5034C183.774 35.248 183.988 35.0479 184.255 34.9033C184.523 34.7586 184.818 34.6509 185.142 34.5801C185.468 34.5063 185.796 34.4478 186.125 34.4047C186.556 34.3493 186.905 34.3078 187.173 34.2801C187.444 34.2493 187.641 34.1985 187.764 34.1277C187.89 34.0569 187.953 33.9338 187.953 33.7584V33.7215C187.953 33.266 187.828 32.9121 187.579 32.6597C187.333 32.4073 186.959 32.2811 186.457 32.2811C185.937 32.2811 185.529 32.395 185.234 32.6228C184.938 32.8505 184.731 33.0936 184.611 33.3522L183.577 32.9828C183.761 32.552 184.008 32.2165 184.315 31.9765C184.626 31.7333 184.965 31.564 185.331 31.4686C185.7 31.3702 186.063 31.3209 186.42 31.3209C186.648 31.3209 186.91 31.3486 187.205 31.404C187.504 31.4563 187.791 31.5656 188.068 31.7318C188.349 31.898 188.581 32.1488 188.766 32.4843C188.95 32.8197 189.043 33.2691 189.043 33.8323V38.5042H187.953V37.5439H187.898C187.824 37.6978 187.701 37.8625 187.528 38.0379C187.356 38.2133 187.127 38.3626 186.84 38.4857C186.554 38.6088 186.205 38.6703 185.793 38.6703ZM185.959 37.6917C186.39 37.6917 186.753 37.607 187.048 37.4377C187.347 37.2685 187.571 37.05 187.722 36.7822C187.876 36.5144 187.953 36.2328 187.953 35.9374V34.9402C187.907 34.9956 187.805 35.0464 187.648 35.0926C187.494 35.1357 187.316 35.1741 187.113 35.208C186.913 35.2388 186.717 35.2665 186.527 35.2911C186.339 35.3126 186.186 35.3311 186.07 35.3465C185.786 35.3834 185.522 35.4434 185.276 35.5265C185.032 35.6065 184.835 35.7281 184.685 35.8912C184.537 36.0513 184.463 36.2698 184.463 36.5468C184.463 36.9253 184.603 37.2115 184.883 37.4054C185.166 37.5962 185.525 37.6917 185.959 37.6917Z" fill="#FF0027"/>
</svg>
