<svg width="42" height="40" viewBox="0 0 42 40" fill="none" xmlns="http://www.w3.org/2000/svg">
<path d="M19.4423 1.74743C19.912 0.301634 21.9574 0.301636 22.4272 1.74744L26.1621 13.2423C26.3722 13.8889 26.9748 14.3267 27.6546 14.3267H39.7411C41.2613 14.3267 41.8933 16.272 40.6635 17.1655L30.8853 24.2698C30.3353 24.6694 30.1052 25.3777 30.3152 26.0243L34.0502 37.5192C34.5199 38.965 32.8652 40.1673 31.6353 39.2737L21.8571 32.1695C21.3071 31.7699 20.5623 31.7699 20.0123 32.1695L10.2342 39.2737C9.00432 40.1673 7.34954 38.965 7.81931 37.5192L11.5542 26.0243C11.7643 25.3777 11.5342 24.6694 10.9841 24.2698L1.20601 17.1655C-0.0238667 16.272 0.608207 14.3267 2.12841 14.3267H14.2149C14.8947 14.3267 15.4973 13.8889 15.7073 13.2423L19.4423 1.74743Z" fill="#FFB800"/>
</svg>
