<svg width="20" height="19" viewBox="0 0 20 19" fill="none" xmlns="http://www.w3.org/2000/svg">
<path d="M7.54205 8.34627C7.54205 7.93589 7.20938 7.60321 6.799 7.60321C6.38862 7.60321 6.05594 7.93589 6.05594 8.34627L6.05594 14.8521C6.05594 15.2625 6.38862 15.5952 6.799 15.5952C7.20937 15.5952 7.54205 15.2625 7.54205 14.8521L7.54205 8.34627Z" fill="#FF0027"/>
<path d="M10.0559 7.60321C10.4663 7.60321 10.799 7.93589 10.799 8.34627V14.8521C10.799 15.2625 10.4663 15.5952 10.0559 15.5952C9.64551 15.5952 9.31284 15.2625 9.31284 14.8521V8.34627C9.31284 7.93589 9.64551 7.60321 10.0559 7.60321Z" fill="#FF0027"/>
<path d="M14.0559 8.34627C14.0559 7.93589 13.7232 7.60321 13.3129 7.60321C12.9025 7.60321 12.5698 7.93589 12.5698 8.34627V14.8521C12.5698 15.2625 12.9025 15.5952 13.3129 15.5952C13.7232 15.5952 14.0559 15.2625 14.0559 14.8521V8.34627Z" fill="#FF0027"/>
<path fill-rule="evenodd" clip-rule="evenodd" d="M7.05591 0.969482C5.39905 0.969482 4.05591 2.31263 4.05591 3.96948V4.48337H1.35799C0.947607 4.48337 0.614929 4.81605 0.614929 5.22643C0.614929 5.6368 0.947608 5.96948 1.35799 5.96948H3.55591V15.7151C3.55591 17.3719 4.89905 18.7151 6.55591 18.7151H13.5559C15.2128 18.7151 16.5559 17.3719 16.5559 15.7151V5.96948H18.7538C19.1642 5.96948 19.4968 5.6368 19.4968 5.22643C19.4968 4.81605 19.1642 4.48337 18.7538 4.48337H16.0559V3.96948C16.0559 2.31263 14.7128 0.969482 13.0559 0.969482H7.05591ZM13.0559 2.46948H7.05591C6.22748 2.46948 5.55591 3.14106 5.55591 3.96948V4.46948H14.5559V3.96948C14.5559 3.14106 13.8843 2.46948 13.0559 2.46948ZM5.05591 5.98337H15.0559V15.7151C15.0559 16.5435 14.3843 17.2151 13.5559 17.2151H6.55591C5.72748 17.2151 5.05591 16.5435 5.05591 15.7151V5.98337Z" fill="#FF0027"/>
</svg>
