<svg width="41" height="31" viewBox="0 0 41 31" fill="none" xmlns="http://www.w3.org/2000/svg">
<path d="M40.7898 3.32967C39.3004 3.96797 37.5983 4.3935 35.8962 4.60627C37.5983 3.7552 38.8749 2.26584 39.5132 0.35095C37.8111 1.20201 36.1089 1.84031 34.194 2.26584C32.7047 0.989247 30.577 0.138184 28.2366 0.138184C23.5557 0.138184 19.9387 3.54244 19.9387 7.79776C19.9387 8.43606 19.9387 8.86159 20.1515 9.49989C13.1302 9.28712 6.96 6.3084 2.70468 2.05308C2.06639 3.11691 1.64085 4.3935 1.64085 5.6701C1.64085 8.22329 3.13022 10.5637 5.47064 11.8403C4.19405 11.8403 2.70468 11.4148 1.64085 10.9892C1.64085 14.6063 4.61958 17.585 8.44936 18.2233C7.81107 18.4361 6.96 18.4361 6.3217 18.4361H4.83234C5.89617 21.4148 9.08766 23.5424 12.7047 23.5424C9.93873 25.6701 6.3217 26.9467 2.27915 26.9467H0.364258C4.19404 29.0744 8.44936 30.1382 13.343 30.1382C28.6621 29.9254 36.96 18.4361 36.7472 8.43606V7.37223C38.2366 6.3084 39.726 5.0318 40.7898 3.32967Z" fill="#A7A7A7"/>
</svg>
