<svg width="38" height="38" viewBox="0 0 38 38" fill="none" xmlns="http://www.w3.org/2000/svg">
<path d="M37.2594 18.5075C37.2594 28.4783 29.135 36.5616 19.1232 36.5616C15.9637 36.5616 12.9683 35.741 10.3833 34.2638L0.330444 37.4643L3.61302 27.8218C1.97173 25.1547 0.986959 21.8721 0.986959 18.5075C0.986959 8.5777 9.11133 0.5354 19.1232 0.5354C29.135 0.5354 37.2594 8.5777 37.2594 18.5075ZM19.1232 3.40765C10.7116 3.40765 3.94127 10.178 3.94127 18.5075C3.94127 21.7901 4.96708 24.9085 6.81353 27.4115L4.84398 32.9508L10.7526 31.1454C13.1325 32.7867 16.0868 33.6073 19.1232 33.6073C27.5348 33.6483 34.3871 26.9191 34.3871 18.5896C34.3871 10.26 27.5348 3.40765 19.1232 3.40765ZM28.2323 22.6928C28.2323 22.4876 27.822 22.3645 27.4117 22.1593C27.0013 21.9132 24.7856 20.8463 24.4163 20.7232C24.006 20.5591 23.6777 20.5181 23.3905 20.9284L21.9954 22.6928C21.7492 22.98 21.462 22.98 21.0107 22.7748C20.6003 22.5697 19.1642 22.0773 17.4409 20.6001C16.1278 19.3692 15.2251 17.933 14.9789 17.4817C14.7327 17.0714 14.9789 16.8252 15.1841 16.579C15.3892 16.4148 15.5944 16.0866 15.8406 15.8404C16.0458 15.5532 16.1278 15.4301 16.2509 15.1018C16.4561 14.8146 16.374 14.5274 16.2509 14.2812L14.8969 10.9986C14.4865 10.178 14.1583 10.3011 13.8711 10.3011L13.0504 10.219C12.7222 10.219 12.2298 10.3421 11.8194 10.7934C11.4091 11.2038 10.3013 12.2706 10.3013 14.4863C10.3013 16.62 11.8605 18.7126 12.1067 18.9999C12.3118 19.3281 15.1841 23.9237 19.6976 25.6881C24.2112 27.4525 24.2112 26.837 25.0318 26.796C25.8524 26.7139 27.6579 25.7291 28.0271 24.6623C28.4375 23.6365 28.4375 22.7748 28.2733 22.6107L28.2323 22.6928Z" fill="white"/>
</svg>
